{"glyphs":{"0":{"ha":672,"x_min":68,"x_max":631,"o":"m 274 -14 q 73 238 87 -9 q 85 440 68 325 l 111 611 q 224 912 146 821 q 425 1001 302 1004 q 627 755 612 996 q 618 572 631 683 l 587 367 q 472 73 551 164 q 274 -14 393 -18 m 515 708 q 494 850 519 806 q 417 899 469 895 q 231 644 273 907 l 194 391 q 184 286 185 327 q 281 88 176 92 q 466 340 424 81 l 500 570 q 515 708 513 656 z "},"1":{"ha":672,"x_min":162,"x_max":522,"o":"m 353 0 l 235 0 l 380 832 l 162 740 l 184 861 l 501 992 l 522 992 l 353 0 z "},"2":{"ha":672,"x_min":13,"x_max":637,"o":"m 549 0 l 13 0 l 28 96 l 382 496 q 481 642 450 574 q 507 783 513 709 q 476 866 503 836 q 406 899 450 897 q 285 847 332 901 q 226 697 238 793 l 111 696 q 207 919 124 833 q 412 1001 289 1004 q 578 926 519 998 q 627 741 637 853 q 492 460 615 611 l 444 404 l 173 102 l 566 102 l 549 0 z "},"3":{"ha":672,"x_min":38,"x_max":625,"o":"m 252 555 l 323 553 q 461 620 411 555 q 501 789 511 684 q 469 870 496 841 q 397 899 442 899 q 296 857 337 901 q 241 729 254 813 l 126 728 q 215 926 138 848 q 404 1002 292 1003 q 527 965 476 1000 q 602 867 578 929 q 618 727 625 804 q 569 596 612 654 q 460 503 527 538 q 541 417 515 475 q 559 280 566 359 q 466 66 547 148 q 267 -14 386 -16 q 99 65 159 -11 q 44 260 38 141 l 161 260 q 186 135 156 180 q 274 89 216 90 q 389 138 344 87 q 443 278 435 190 q 418 404 451 358 q 319 452 385 449 l 235 452 l 252 555 z "},"4":{"ha":672,"x_min":8,"x_max":619,"o":"m 505 332 l 612 332 l 594 229 l 488 229 l 448 0 l 330 0 l 370 229 l 8 229 l 22 310 l 492 987 l 619 987 l 505 332 m 159 332 l 388 332 l 473 802 l 159 332 z "},"5":{"ha":672,"x_min":72,"x_max":673,"o":"m 137 497 l 256 987 l 673 987 l 655 871 l 338 871 l 268 602 q 397 644 333 646 q 541 574 489 643 q 596 391 592 505 q 562 180 600 276 q 454 34 524 85 q 294 -15 385 -18 q 134 61 194 -13 q 72 260 73 136 l 181 260 q 301 89 189 91 q 437 176 389 87 q 478 387 486 266 q 444 491 473 452 q 362 532 414 530 q 301 520 330 533 q 233 471 272 507 l 137 497 z "},"6":{"ha":672,"x_min":77,"x_max":591,"o":"m 570 989 l 560 882 l 538 882 q 352 807 429 880 q 224 565 276 734 q 395 648 300 650 q 533 579 483 645 q 587 397 583 513 q 554 191 591 290 q 450 38 517 92 q 292 -14 382 -16 q 118 100 174 -10 q 77 285 79 177 q 89 424 77 328 q 245 848 131 712 q 544 989 359 984 l 570 989 m 368 544 q 274 510 318 545 q 201 409 230 474 l 196 360 l 194 315 q 216 155 189 218 q 298 90 243 92 q 426 171 378 86 q 471 387 474 255 q 443 499 470 455 q 368 544 416 543 z "},"7":{"ha":672,"x_min":87,"x_max":696,"o":"m 684 910 l 215 0 l 87 0 l 555 884 l 130 884 l 146 987 l 696 987 l 684 910 z "},"8":{"ha":672,"x_min":47,"x_max":641,"o":"m 631 736 q 475 505 617 586 q 550 407 525 468 q 569 273 575 345 q 478 65 559 147 q 277 -14 398 -17 q 108 66 169 -12 q 58 261 47 144 q 233 512 73 430 q 171 605 190 549 q 157 724 151 661 q 240 925 165 846 q 428 1002 315 1004 q 585 925 528 999 q 631 736 641 851 m 452 275 q 430 407 460 357 q 344 457 400 456 l 342 457 q 248 423 289 458 q 188 325 207 388 q 175 203 168 262 q 210 119 181 149 q 285 88 238 89 q 398 137 352 86 q 452 275 444 187 m 514 787 q 484 868 509 838 q 420 899 459 898 q 319 849 359 900 q 273 722 279 798 q 292 604 267 647 q 368 559 318 560 q 480 626 437 556 q 514 787 523 696 z "},"9":{"ha":672,"x_min":104,"x_max":617,"o":"m 471 422 q 299 330 387 328 q 198 363 241 331 q 133 455 155 395 q 109 585 110 515 q 142 794 104 692 q 248 950 180 897 q 404 1001 316 1004 q 562 915 507 998 q 615 685 617 831 q 589 469 614 596 q 438 122 545 236 q 166 -1 332 8 l 124 -1 l 134 104 l 163 104 q 351 181 277 108 q 471 422 426 254 m 326 433 q 488 565 414 429 q 498 722 501 665 q 469 851 494 806 q 397 897 443 895 q 262 797 311 901 q 227 661 233 735 l 224 619 q 248 484 222 534 q 326 433 274 435 z "},"\u0000":{"ha":0,"x_min":0,"x_max":0,"o":""},"\u0002":{"ha":0,"x_min":0,"x_max":0,"o":""},"\r":{"ha":315,"x_min":0,"x_max":0,"o":""}," ":{"ha":315,"x_min":0,"x_max":0,"o":""},"!":{"ha":338,"x_min":42,"x_max":330,"o":"m 197 279 l 92 279 l 207 987 l 330 987 l 197 279 m 43 62 q 63 113 45 92 q 112 136 81 135 q 159 116 140 137 q 177 64 178 95 q 158 14 176 35 q 109 -8 140 -7 q 61 11 81 -9 q 43 62 42 31 z "},"\"":{"ha":437,"x_min":136,"x_max":460,"o":"m 267 943 l 210 707 l 136 706 l 190 1047 l 282 1041 l 267 943 m 444 943 l 388 707 l 313 707 l 368 1047 l 460 1041 l 444 943 z "},"#":{"ha":745,"x_min":64,"x_max":755,"o":"m 414 278 l 282 278 l 189 0 l 98 0 l 191 278 l 64 278 l 80 371 l 222 371 l 302 611 l 163 611 l 180 705 l 334 705 l 429 987 l 520 987 l 425 705 l 557 705 l 652 987 l 744 987 l 650 705 l 755 705 l 739 611 l 618 611 l 538 371 l 656 371 l 640 278 l 507 278 l 413 0 l 321 0 l 414 278 m 313 371 l 446 371 l 526 611 l 394 611 l 313 371 z "},"$":{"ha":672,"x_min":51,"x_max":637,"o":"m 458 260 q 344 438 471 376 q 198 557 243 487 q 161 726 154 627 q 231 909 170 837 q 394 998 292 981 l 420 1147 l 514 1147 l 487 996 q 597 913 559 977 q 637 747 635 849 l 635 684 l 519 684 l 520 746 q 494 851 519 812 q 422 892 469 890 q 323 848 361 893 q 277 729 285 803 q 298 625 271 669 q 391 549 326 581 q 538 429 495 498 q 574 260 582 360 q 500 76 566 148 q 323 -11 433 4 l 299 -141 l 207 -141 l 231 -9 q 96 85 142 8 q 60 291 51 163 l 177 291 q 200 144 171 193 q 288 95 230 96 q 404 139 357 94 q 458 260 450 184 z "},"%":{"ha":859,"x_min":129,"x_max":770,"o":"m 327 1002 q 439 942 400 1000 q 474 798 479 885 l 470 753 q 409 599 461 657 q 282 542 357 541 q 170 601 211 543 q 134 745 129 659 l 138 789 q 198 945 146 886 q 327 1002 250 1004 m 220 744 l 220 706 q 239 646 222 669 q 286 623 256 624 q 349 654 322 622 q 383 745 375 686 l 389 798 l 389 837 q 369 897 386 874 q 323 920 353 920 q 257 886 284 922 q 224 791 231 851 l 220 744 m 429 242 q 490 391 439 334 q 617 446 542 448 q 729 387 689 444 q 765 242 770 330 l 761 198 q 699 41 752 99 q 572 -15 646 -17 q 461 43 502 -14 q 425 189 420 100 l 429 242 m 511 149 q 530 89 513 112 q 576 66 547 66 q 642 100 615 64 q 674 195 668 136 l 679 243 l 679 281 q 660 341 676 319 q 614 365 643 364 q 547 330 575 366 q 514 233 519 294 q 511 149 509 172 m 212 76 l 151 125 l 673 890 l 736 841 l 212 76 z "},"&":{"ha":739,"x_min":41,"x_max":680,"o":"m 50 260 q 100 395 56 332 q 250 534 144 458 l 223 593 q 190 755 184 681 q 264 937 199 869 q 423 1002 328 1004 q 555 940 505 999 q 600 798 606 882 q 465 576 593 674 l 390 519 l 516 273 q 576 456 561 356 l 680 456 q 572 172 662 284 l 659 0 l 527 0 l 492 71 q 281 -13 393 -16 q 106 65 172 -12 q 50 260 41 141 m 286 89 q 412 139 347 87 l 441 163 l 299 449 l 276 431 q 170 260 179 349 q 191 138 160 186 q 286 89 222 90 m 304 760 q 308 697 300 730 q 341 608 316 665 l 399 652 q 461 715 436 681 q 490 798 486 749 q 472 870 494 842 q 414 899 450 899 q 341 861 372 899 q 304 760 311 823 z "},"'":{"ha":241,"x_min":115,"x_max":267,"o":"m 254 962 l 202 717 l 115 717 l 168 1042 l 267 1042 l 254 962 z "},"(":{"ha":430,"x_min":68,"x_max":488,"o":"m 473 1115 l 488 1031 q 288 725 363 916 q 189 265 212 534 l 184 179 q 205 -69 179 38 q 289 -243 231 -176 l 258 -318 q 149 -170 193 -260 q 87 37 105 -79 q 75 271 68 154 q 85 391 77 334 l 94 440 q 235 856 136 680 q 473 1115 334 1032 z "},")":{"ha":435,"x_min":-66,"x_max":357,"o":"m 336 397 q 257 90 311 233 q 124 -158 203 -54 q -50 -319 46 -262 l -66 -241 q 191 252 118 -71 q 238 616 234 444 q 134 1038 245 904 l 164 1114 q 310 873 263 1027 q 348 524 357 719 q 337 404 345 460 l 336 397 z "},"*":{"ha":587,"x_min":73,"x_max":614,"o":"m 260 669 l 73 730 l 119 828 l 307 751 l 342 987 l 444 987 l 396 754 l 602 827 l 614 720 l 401 658 l 500 471 l 414 412 l 325 608 l 174 418 l 97 485 l 260 669 z "},"+":{"ha":675,"x_min":57,"x_max":631,"o":"m 414 530 l 631 530 l 610 411 l 393 411 l 339 99 l 221 99 l 275 411 l 57 411 l 78 530 l 296 530 l 346 818 l 464 818 l 414 530 z "},",":{"ha":271,"x_min":-77,"x_max":159,"o":"m -6 -197 l -77 -146 q 21 46 2 -50 l 39 149 l 159 149 l 144 57 q -6 -197 120 -98 z "},"-":{"ha":341,"x_min":24,"x_max":315,"o":"m 296 368 l 24 368 l 42 471 l 315 471 l 296 368 z "},".":{"ha":361,"x_min":36,"x_max":188,"o":"m 111 142 q 166 122 144 143 q 187 68 188 101 q 165 14 186 35 q 111 -8 143 -7 q 57 11 78 -9 q 36 64 36 31 q 57 119 36 97 q 111 142 78 141 z "},"/":{"ha":506,"x_min":-68,"x_max":558,"o":"m 37 -85 l -68 -85 l 455 987 l 558 987 l 37 -85 z "},":":{"ha":321,"x_min":32,"x_max":288,"o":"m 107 142 q 162 122 140 143 q 183 68 184 101 q 161 14 182 35 q 106 -8 139 -7 q 53 11 74 -9 q 32 64 32 31 q 53 119 32 97 q 107 142 74 141 m 211 741 q 266 721 244 742 q 287 667 288 700 q 264 613 286 633 q 210 591 243 592 q 157 609 178 589 q 136 663 136 629 q 157 718 136 696 q 211 741 178 740 z "},";":{"ha":280,"x_min":-67,"x_max":271,"o":"m 195 741 q 250 721 228 742 q 271 667 271 700 q 248 613 270 633 q 194 591 227 592 q 140 609 161 589 q 119 663 119 629 q 140 718 119 696 q 195 741 161 740 m 3 -197 l -67 -146 q 31 46 12 -50 l 48 149 l 168 149 l 154 57 q 3 -197 130 -98 z "},"<":{"ha":608,"x_min":49,"x_max":562,"o":"m 172 433 l 477 262 l 456 136 l 49 393 l 66 492 l 562 749 l 537 608 l 172 433 z "},"=":{"ha":652,"x_min":73,"x_max":604,"o":"m 584 552 l 122 552 l 141 661 l 604 661 l 584 552 m 535 271 l 73 271 l 92 379 l 555 379 l 535 271 z "},">":{"ha":627,"x_min":41,"x_max":578,"o":"m 452 445 l 126 620 l 147 742 l 578 485 l 560 387 l 41 129 l 65 267 l 452 445 z "},"?":{"ha":575,"x_min":115,"x_max":580,"o":"m 189 277 q 227 413 198 355 q 322 540 256 472 q 411 645 388 608 q 444 716 435 682 q 450 795 452 751 q 426 866 448 840 q 366 893 404 892 q 279 856 315 895 q 231 757 243 818 l 115 756 q 200 936 128 867 q 375 1002 271 1004 q 527 928 475 999 q 570 749 580 857 q 453 522 560 636 l 368 436 q 303 278 319 379 l 189 277 m 144 62 q 163 113 146 92 q 212 136 180 134 q 258 117 239 137 q 277 64 278 97 q 257 14 275 35 q 209 -8 239 -7 q 162 10 180 -9 q 144 62 143 30 z "},"@":{"ha":1043,"x_min":42,"x_max":972,"o":"m 676 -14 q 594 16 625 -13 q 557 94 564 44 l 530 58 q 404 -15 471 -15 q 315 30 347 -14 q 281 161 283 74 q 324 407 279 276 q 436 605 369 538 q 585 671 503 673 q 672 651 635 670 q 745 598 709 631 l 658 222 q 648 130 647 167 q 696 65 651 67 q 815 145 767 62 q 885 395 864 229 q 894 578 899 499 q 818 803 885 726 q 627 881 750 879 q 429 826 521 883 q 269 653 338 768 q 162 382 200 538 q 132 91 125 227 q 205 -141 139 -62 q 389 -222 271 -220 q 584 -169 487 -223 l 599 -248 q 387 -307 517 -307 q 137 -194 226 -304 q 42 121 48 -83 l 43 184 q 95 474 48 328 q 222 737 142 621 q 408 913 303 853 q 630 970 512 972 q 878 858 789 968 q 972 544 966 747 l 972 479 q 925 214 964 328 q 822 42 886 100 q 676 -14 758 -17 m 385 163 q 443 81 387 83 q 510 118 477 79 q 561 210 544 157 l 564 222 l 646 570 q 593 586 619 585 q 465 503 516 589 q 388 239 413 418 q 385 163 382 200 z "},"A":{"ha":783,"x_min":-45,"x_max":677,"o":"m 526 258 l 203 258 l 84 0 l -45 0 l 435 987 l 539 987 l 677 0 l 557 0 l 526 258 m 254 365 l 513 365 l 461 812 l 254 365 z "},"B":{"ha":741,"x_min":33,"x_max":705,"o":"m 33 0 l 203 987 l 469 987 q 647 916 588 983 q 696 730 705 849 q 534 517 684 591 q 615 432 589 493 q 635 290 642 371 q 541 78 625 157 q 327 0 457 -1 l 33 0 m 234 462 l 172 106 l 330 105 q 473 177 422 106 q 517 351 525 247 q 410 461 507 456 l 234 462 m 252 566 l 400 565 q 498 596 456 566 q 560 680 541 627 q 573 789 580 733 q 466 880 562 876 l 307 880 l 252 566 z "},"C":{"ha":770,"x_min":76,"x_max":757,"o":"m 683 314 q 568 71 661 159 q 334 -14 475 -18 q 197 28 255 -12 q 109 142 140 67 q 77 308 78 216 q 82 402 76 356 l 109 576 q 243 892 141 779 q 498 1001 346 1004 q 691 912 625 999 q 751 669 757 825 l 629 670 q 618 798 631 754 q 574 868 605 842 q 491 895 544 893 q 323 818 389 898 q 232 577 256 737 l 205 401 q 198 272 195 330 q 240 138 203 183 q 340 92 277 94 q 483 138 429 88 q 564 313 537 189 l 683 314 z "},"D":{"ha":776,"x_min":33,"x_max":736,"o":"m 33 0 l 203 987 l 425 987 q 659 871 581 983 q 713 576 736 759 l 689 418 q 546 107 659 215 q 260 0 433 -1 l 33 0 m 307 880 l 172 106 l 261 106 q 466 181 387 104 q 568 414 545 258 l 593 579 q 599 686 600 633 q 550 826 595 776 q 421 880 505 877 l 307 880 z "},"E":{"ha":675,"x_min":33,"x_max":713,"o":"m 572 456 l 233 456 l 172 106 l 567 106 l 548 0 l 33 0 l 203 987 l 713 987 l 694 880 l 307 880 l 251 563 l 590 563 l 572 456 z "},"F":{"ha":654,"x_min":33,"x_max":703,"o":"m 553 436 l 229 436 l 154 0 l 33 0 l 203 987 l 703 987 l 684 880 l 307 880 l 248 543 l 572 543 l 553 436 z "},"G":{"ha":803,"x_min":76,"x_max":758,"o":"m 660 123 q 594 58 631 85 q 353 -14 494 -16 q 154 73 227 -12 q 77 302 81 157 q 82 401 76 351 l 113 595 q 237 895 144 791 q 495 1001 334 1004 q 690 917 623 997 q 755 697 758 837 l 634 698 q 596 845 634 798 q 489 894 559 892 q 323 827 388 899 q 234 597 259 755 l 203 391 l 199 335 l 199 288 q 358 93 210 96 q 454 109 412 92 q 537 158 496 126 l 578 386 l 403 386 l 422 492 l 717 492 l 660 123 z "},"H":{"ha":842,"x_min":33,"x_max":831,"o":"m 660 0 l 538 0 l 618 456 l 233 456 l 154 0 l 33 0 l 203 987 l 325 987 l 251 563 l 636 563 l 709 987 l 831 987 l 660 0 z "},"I":{"ha":344,"x_min":37,"x_max":330,"o":"m 159 0 l 37 0 l 209 987 l 330 987 l 159 0 z "},"J":{"ha":658,"x_min":11,"x_max":661,"o":"m 539 987 l 661 987 l 543 288 q 440 63 522 144 q 241 -14 359 -18 q 69 67 127 -10 q 20 273 11 144 l 142 273 q 164 140 136 185 q 250 92 192 94 q 359 139 314 90 q 420 288 404 189 l 539 987 z "},"K":{"ha":741,"x_min":33,"x_max":811,"o":"m 331 454 l 211 332 l 154 0 l 33 0 l 203 987 l 325 987 l 243 518 l 340 625 l 656 987 l 811 987 l 418 546 l 656 0 l 519 0 l 331 454 z "},"L":{"ha":647,"x_min":33,"x_max":549,"o":"m 173 106 l 549 106 l 530 0 l 33 0 l 203 987 l 326 987 l 173 106 z "},"M":{"ha":1025,"x_min":33,"x_max":1015,"o":"m 357 987 l 467 183 l 857 987 l 1015 987 l 844 0 l 722 0 l 790 391 l 865 758 l 486 0 l 393 0 l 277 773 l 219 378 l 154 0 l 33 0 l 203 987 l 357 987 z "},"N":{"ha":841,"x_min":33,"x_max":830,"o":"m 659 0 l 541 0 l 288 766 l 155 0 l 33 0 l 203 987 l 322 987 l 576 218 l 709 987 l 830 987 l 659 0 z "},"O":{"ha":816,"x_min":78,"x_max":761,"o":"m 343 -14 q 150 75 220 -11 q 79 309 81 160 q 84 407 78 358 l 113 591 q 246 896 146 788 q 496 1001 345 1004 q 680 924 612 998 q 759 714 748 850 l 761 677 q 755 578 761 627 l 726 391 q 593 88 691 193 q 343 -14 494 -17 m 634 581 l 640 647 q 608 826 647 766 q 489 890 570 887 q 323 818 388 893 q 233 593 258 742 l 203 397 l 199 342 q 231 162 192 226 q 351 96 270 99 q 602 374 549 90 l 634 581 z "},"P":{"ha":753,"x_min":33,"x_max":754,"o":"m 221 387 l 154 0 l 33 0 l 203 987 l 501 987 q 688 901 623 983 q 743 691 754 819 q 642 468 730 550 q 413 386 553 386 l 221 387 m 239 493 l 418 492 q 534 527 485 492 q 607 626 584 562 q 622 758 630 691 q 583 845 615 812 q 498 880 551 877 l 307 880 l 239 493 z "},"Q":{"ha":816,"x_min":72,"x_max":755,"o":"m 528 45 l 648 -90 l 559 -167 l 416 -5 q 335 -13 371 -13 q 144 75 213 -12 q 73 311 75 161 q 78 408 72 360 l 104 575 q 235 891 135 778 q 490 1001 336 1004 q 685 913 615 998 q 755 677 754 827 q 749 578 755 627 l 721 395 q 652 180 699 264 q 528 45 604 96 m 629 581 q 635 715 639 660 q 484 890 622 885 q 316 815 382 893 q 226 585 250 738 l 198 397 l 193 342 q 225 162 186 225 q 344 96 263 99 q 510 166 444 92 q 601 399 576 240 l 629 581 z "},"R":{"ha":722,"x_min":33,"x_max":720,"o":"m 394 399 l 224 399 l 154 0 l 33 0 l 203 987 l 465 987 q 656 905 592 983 q 707 696 720 827 q 648 533 698 602 q 511 426 597 465 l 626 9 l 625 0 l 495 0 l 394 399 m 242 506 l 382 505 q 496 539 447 506 q 569 633 545 572 q 585 765 593 694 q 548 847 580 817 q 461 880 517 877 l 307 880 l 242 506 z "},"S":{"ha":705,"x_min":31,"x_max":708,"o":"m 498 255 q 477 358 505 317 q 362 438 450 400 q 229 516 275 476 q 141 726 132 600 q 238 925 151 846 q 450 1001 326 1004 q 639 914 570 998 q 699 702 708 829 l 577 702 q 549 844 584 795 q 444 894 515 892 q 321 849 370 895 q 263 728 271 804 q 289 630 256 673 q 402 554 321 588 q 530 481 484 519 q 620 256 631 398 q 523 60 610 136 q 304 -14 435 -16 q 105 73 180 -11 q 37 287 31 157 l 159 286 q 192 146 152 199 q 311 93 232 94 q 436 134 385 90 q 498 255 488 178 z "},"T":{"ha":708,"x_min":121,"x_max":764,"o":"m 745 880 l 494 880 l 341 0 l 220 0 l 372 880 l 121 880 l 140 987 l 764 987 l 745 880 z "},"U":{"ha":764,"x_min":60,"x_max":784,"o":"m 784 987 l 665 292 q 555 65 646 147 q 326 -15 464 -18 q 128 70 195 -12 q 76 292 60 151 l 194 987 l 315 987 l 197 291 q 196 215 192 250 q 333 92 208 96 q 473 137 419 89 q 543 283 526 186 l 662 987 l 784 987 z "},"V":{"ha":762,"x_min":120,"x_max":822,"o":"m 341 192 l 685 987 l 822 987 l 369 0 l 263 0 l 120 987 l 248 987 l 341 192 z "},"W":{"ha":1033,"x_min":138,"x_max":1084,"o":"m 271 304 l 266 205 l 300 302 l 560 987 l 661 987 l 703 293 l 705 199 l 739 318 l 960 987 l 1084 987 l 738 0 l 629 0 l 581 725 l 581 775 l 562 716 l 285 0 l 174 0 l 138 987 l 257 987 l 271 304 z "},"X":{"ha":749,"x_min":-22,"x_max":789,"o":"m 401 610 l 640 987 l 789 987 l 458 492 l 633 0 l 496 0 l 372 385 l 127 0 l -22 0 l 316 504 l 144 987 l 279 987 l 401 610 z "},"Y":{"ha":713,"x_min":123,"x_max":789,"o":"m 364 493 l 646 987 l 789 987 l 405 361 l 342 0 l 221 0 l 287 376 l 123 987 l 255 987 l 364 493 z "},"Z":{"ha":711,"x_min":-11,"x_max":732,"o":"m 146 106 l 597 106 l 578 0 l -11 0 l 7 104 l 574 880 l 146 880 l 165 987 l 732 987 l 713 885 l 146 106 z "},"[":{"ha":345,"x_min":-7,"x_max":422,"o":"m 406 1025 l 304 1025 l 127 -109 l 229 -109 l 212 -212 l -7 -212 l 203 1128 l 422 1128 l 406 1025 z "},"\\":{"ha":504,"x_min":136,"x_max":392,"o":"m 136 987 l 242 987 l 392 -85 l 287 -85 l 136 987 z "},"]":{"ha":345,"x_min":-77,"x_max":352,"o":"m 132 1128 l 352 1128 l 142 -212 l -77 -212 l -61 -109 l 42 -109 l 219 1025 l 116 1025 l 132 1128 z "},"^":{"ha":507,"x_min":58,"x_max":467,"o":"m 323 820 l 170 494 l 58 494 l 309 987 l 388 987 l 467 494 l 365 494 l 323 820 z "},"_":{"ha":552,"x_min":-73,"x_max":460,"o":"m 441 -102 l -73 -102 l -55 0 l 460 0 l 441 -102 z "},"`":{"ha":423,"x_min":141,"x_max":376,"o":"m 376 842 l 280 842 l 141 1042 l 280 1042 l 376 842 z "},"a":{"ha":652,"x_min":37,"x_max":582,"o":"m 392 0 q 389 40 388 20 l 391 80 q 223 -14 313 -14 q 86 43 135 -14 q 42 195 37 100 q 136 377 50 309 q 363 446 222 446 l 444 446 l 456 524 q 364 645 468 645 q 275 613 311 645 q 230 531 239 582 l 114 530 q 198 686 123 623 q 376 748 274 749 q 529 687 475 747 q 572 522 582 628 l 512 160 q 507 86 506 121 l 511 12 l 510 0 l 392 0 m 248 94 q 399 180 336 94 l 430 356 l 376 357 q 254 331 307 357 q 178 261 200 306 q 163 163 156 216 q 248 94 172 94 z "},"b":{"ha":671,"x_min":16,"x_max":608,"o":"m 309 -14 q 149 87 196 -9 l 124 0 l 16 0 l 197 1042 l 314 1042 l 240 653 q 415 747 313 750 q 559 677 511 746 q 605 477 608 608 q 589 315 602 404 q 549 161 575 225 q 309 -14 475 -18 m 490 505 q 458 608 486 576 q 378 642 431 641 q 227 541 292 644 l 167 191 q 285 92 199 95 q 412 148 364 88 q 476 335 460 207 q 490 505 491 464 z "},"c":{"ha":629,"x_min":43,"x_max":593,"o":"m 281 87 q 378 123 338 85 q 433 231 417 161 l 543 231 q 452 53 528 123 q 274 -14 376 -17 q 119 44 177 -12 q 50 202 62 100 q 51 325 43 263 l 60 399 q 165 661 83 570 q 380 747 248 751 q 537 673 481 745 q 589 481 593 601 l 478 481 q 373 645 482 641 q 180 418 214 651 q 163 221 159 273 q 281 87 170 90 z "},"d":{"ha":675,"x_min":47,"x_max":687,"o":"m 349 747 q 499 661 450 744 l 570 1042 l 687 1042 l 507 0 l 400 0 l 413 79 q 239 -14 340 -16 q 97 58 147 -12 q 47 258 47 127 q 63 418 47 318 q 111 587 79 517 q 349 747 189 751 m 164 229 q 276 92 168 94 q 350 111 315 90 q 421 182 385 132 l 485 553 q 372 642 451 638 q 178 406 211 650 q 164 229 161 286 z "},"e":{"ha":637,"x_min":44,"x_max":594,"o":"m 290 -14 q 105 75 166 -12 q 60 314 44 163 l 69 387 q 173 654 90 557 q 385 747 256 751 q 542 676 489 745 q 591 482 594 607 l 585 401 l 575 331 l 182 332 q 174 236 173 271 q 208 129 175 168 q 300 89 240 90 q 386 106 344 87 q 475 172 429 125 l 530 95 q 423 12 487 38 q 290 -14 359 -15 m 377 645 q 209 500 257 650 l 191 434 l 472 433 l 475 451 q 479 516 479 482 q 377 645 477 640 z "},"f":{"ha":433,"x_min":67,"x_max":522,"o":"m 67 0 l 178 637 l 85 637 l 102 734 l 195 734 l 204 806 q 284 994 220 928 q 446 1057 347 1059 q 522 1044 481 1056 l 505 943 q 450 951 477 950 q 322 803 346 951 l 311 734 l 433 734 l 416 637 l 295 637 l 184 0 l 67 0 z "},"g":{"ha":671,"x_min":1,"x_max":635,"o":"m 349 747 q 504 651 456 745 l 528 734 l 635 734 l 509 -6 q 458 -159 498 -93 q 355 -258 418 -224 q 212 -290 292 -292 q 96 -261 154 -288 q 1 -193 37 -235 l 57 -113 q 207 -187 123 -184 q 329 -146 281 -190 q 392 -13 376 -102 l 410 73 q 240 -14 337 -16 q 97 60 146 -12 q 49 257 47 132 q 62 404 49 311 q 158 662 85 574 q 349 747 230 751 m 165 229 q 277 92 169 94 q 422 183 358 90 l 486 551 q 373 642 450 638 q 178 401 210 648 q 165 229 163 283 z "},"h":{"ha":657,"x_min":16,"x_max":579,"o":"m 241 658 q 420 747 323 749 q 531 700 490 746 q 576 572 571 654 q 574 481 579 526 l 494 0 l 378 0 l 458 483 l 461 536 q 376 642 461 640 q 245 563 306 644 l 225 534 l 133 0 l 16 0 l 197 1042 l 314 1042 l 241 658 z "},"i":{"ha":315,"x_min":25,"x_max":314,"o":"m 142 0 l 25 0 l 153 734 l 270 734 l 142 0 m 180 928 q 199 979 181 957 q 247 1002 216 1000 q 295 982 276 1003 q 313 930 314 961 q 293 879 311 900 q 245 857 275 857 q 197 876 215 855 q 180 928 178 897 z "},"j":{"ha":308,"x_min":-132,"x_max":303,"o":"m 263 734 l 124 -87 q 62 -249 109 -197 q -62 -298 15 -300 q -132 -285 -91 -297 l -121 -184 q -75 -192 -90 -192 q 3 -104 -14 -192 l 146 734 l 263 734 m 237 1002 q 284 983 265 1003 q 302 929 303 962 q 283 879 300 900 q 234 857 265 857 q 186 877 203 855 q 170 927 168 898 q 188 978 171 956 q 237 1002 205 1000 z "},"k":{"ha":614,"x_min":16,"x_max":627,"o":"m 258 334 l 178 257 l 134 0 l 16 0 l 197 1042 l 315 1042 l 208 427 l 477 734 l 627 734 l 341 420 l 521 0 l 393 0 l 258 334 z "},"l":{"ha":315,"x_min":25,"x_max":323,"o":"m 142 0 l 25 0 l 206 1042 l 323 1042 l 142 0 z "},"m":{"ha":1021,"x_min":16,"x_max":941,"o":"m 253 734 l 239 666 q 419 747 317 750 q 513 720 473 746 q 570 642 553 693 q 770 748 658 749 q 887 701 844 746 q 937 576 930 656 q 936 482 941 530 l 855 0 l 739 0 l 819 484 l 821 541 q 796 615 820 589 q 727 642 772 642 q 631 599 673 644 q 578 492 588 554 l 578 489 l 495 0 l 377 0 l 458 483 q 459 538 460 510 q 367 642 454 638 q 228 551 283 643 l 133 0 l 16 0 l 144 734 l 253 734 z "},"n":{"ha":659,"x_min":16,"x_max":579,"o":"m 253 734 l 237 654 q 419 747 317 749 q 530 700 489 747 q 576 572 571 653 q 574 481 579 526 l 494 0 l 378 0 l 458 483 l 461 536 q 376 642 461 640 q 245 563 306 644 l 225 534 l 133 0 l 16 0 l 143 734 l 253 734 z "},"o":{"ha":683,"x_min":45,"x_max":625,"o":"m 64 399 q 172 654 86 557 q 389 747 258 751 q 524 700 470 745 q 602 576 578 655 q 614 401 625 496 l 606 332 q 498 79 584 174 q 281 -14 412 -17 q 146 33 200 -12 q 68 157 92 78 q 56 332 45 237 l 64 399 m 169 282 q 197 141 167 191 q 288 88 227 91 q 418 144 367 85 q 488 322 470 203 l 498 401 l 501 450 q 472 592 503 542 q 381 645 441 642 q 248 579 301 648 q 179 386 195 509 l 171 319 l 169 282 z "},"p":{"ha":671,"x_min":-33,"x_max":608,"o":"m 307 -14 q 150 71 203 -12 l 84 -282 l -33 -282 l 144 734 l 249 734 l 235 652 q 414 748 310 749 q 559 675 511 747 q 604 477 608 604 q 588 323 602 418 q 548 163 574 228 q 307 -14 473 -19 m 487 505 q 372 642 477 640 q 229 555 292 644 l 163 172 q 276 88 196 92 q 406 144 355 85 q 473 330 457 204 q 487 505 490 456 z "},"q":{"ha":681,"x_min":46,"x_max":634,"o":"m 352 747 q 504 661 455 745 l 526 734 l 634 734 l 458 -282 l 340 -282 l 407 64 q 243 -14 336 -16 q 96 60 146 -12 q 48 256 46 132 q 63 412 49 313 q 109 581 78 511 q 352 747 186 752 m 165 228 q 279 88 172 90 q 419 169 355 86 l 487 564 q 377 645 451 642 q 246 588 297 648 q 179 404 195 528 q 165 228 162 280 z "},"r":{"ha":416,"x_min":16,"x_max":435,"o":"m 422 622 q 370 628 393 628 q 224 526 281 628 l 133 0 l 16 0 l 143 734 l 256 734 l 240 659 q 385 749 304 751 q 435 739 401 748 l 422 622 z "},"s":{"ha":621,"x_min":29,"x_max":570,"o":"m 398 193 q 326 300 407 258 l 235 348 q 137 431 165 387 q 112 534 109 475 q 188 688 117 627 q 360 747 258 749 q 514 683 458 745 q 566 524 570 621 l 450 524 q 425 611 451 579 q 353 644 399 642 q 267 614 301 644 q 227 538 233 585 q 280 448 218 483 l 395 389 q 515 202 522 319 q 435 43 508 102 q 256 -14 361 -16 q 92 53 155 -12 q 33 220 29 117 l 151 219 q 179 122 150 155 q 262 90 208 90 q 355 118 318 90 q 398 193 392 146 z "},"t":{"ha":405,"x_min":54,"x_max":404,"o":"m 328 911 l 296 734 l 404 734 l 387 637 l 280 637 l 203 180 l 201 153 q 243 96 199 96 q 292 102 259 95 l 281 0 q 205 -12 243 -14 q 112 39 143 -12 q 89 182 81 90 l 163 637 l 54 637 l 72 734 l 180 734 l 211 911 l 328 911 z "},"u":{"ha":658,"x_min":59,"x_max":621,"o":"m 396 64 q 220 -14 325 -17 q 101 43 142 -13 q 59 198 59 98 l 62 260 l 142 734 l 258 734 l 179 258 l 176 208 q 192 126 174 159 q 248 93 211 94 q 410 190 347 88 l 503 734 l 621 734 l 494 0 l 383 0 l 396 64 z "},"v":{"ha":583,"x_min":83,"x_max":596,"o":"m 252 184 l 473 734 l 596 734 l 270 0 l 182 0 l 83 734 l 199 734 l 252 184 z "},"w":{"ha":882,"x_min":91,"x_max":900,"o":"m 582 212 l 781 734 l 900 734 l 598 0 l 505 0 l 458 524 l 231 0 l 137 0 l 91 734 l 203 734 l 224 227 l 445 734 l 538 734 l 582 212 z "},"x":{"ha":598,"x_min":-33,"x_max":604,"o":"m 299 467 l 463 734 l 604 734 l 349 365 l 488 0 l 359 0 l 277 274 l 109 0 l -33 0 l 228 377 l 94 734 l 222 734 l 299 467 z "},"y":{"ha":568,"x_min":-60,"x_max":594,"o":"m 243 201 l 466 734 l 594 734 l 214 -114 q 122 -253 176 -206 q 7 -298 69 -300 q -60 -286 -14 -298 l -48 -184 l -23 -189 q 115 -98 66 -193 l 165 14 l 82 734 l 205 734 l 243 201 z "},"z":{"ha":598,"x_min":-9,"x_max":583,"o":"m 146 102 l 486 102 l 468 0 l -9 0 l 8 99 l 422 630 l 102 630 l 121 734 l 583 734 l 566 638 l 146 102 z "},"{":{"ha":419,"x_min":43,"x_max":479,"o":"m 267 -248 q 108 -32 126 -190 q 109 67 102 19 l 127 208 l 130 263 q 43 367 127 358 l 54 465 q 197 627 174 472 l 217 778 q 463 1084 252 1014 l 479 1005 q 333 768 358 954 l 311 610 q 182 414 288 478 q 246 264 242 361 l 244 207 q 220 0 222 36 q 295 -170 212 -129 l 267 -248 z "},"|":{"ha":335,"x_min":22,"x_max":304,"o":"m 121 -183 l 22 -183 l 205 987 l 304 987 l 121 -183 z "},"}":{"ha":419,"x_min":-65,"x_max":371,"o":"m -65 -170 q 82 67 56 -119 l 103 221 q 241 420 126 359 q 169 570 174 469 q 170 627 168 599 q 195 835 193 798 q 119 1005 200 964 l 149 1082 q 258 999 218 1054 q 307 867 298 944 q 306 768 311 819 l 286 616 l 284 572 q 371 468 284 475 l 360 370 q 217 204 239 363 q 192 27 196 45 q -48 -250 148 -184 l -65 -170 z "},"~":{"ha":801,"x_min":67,"x_max":729,"o":"m 729 527 q 692 394 722 456 q 617 301 661 332 q 519 272 572 271 q 437 297 476 273 q 344 389 397 321 q 271 434 308 434 q 168 298 190 436 l 67 296 q 102 423 74 365 q 175 514 130 481 q 277 545 219 546 q 434 450 359 543 q 485 395 466 408 q 524 382 504 382 q 594 419 566 382 q 634 526 623 456 l 729 527 z "},"¡":{"ha":319,"x_min":-16,"x_max":271,"o":"m 115 464 l 222 464 l 107 -244 l -16 -244 l 115 464 m 269 677 q 250 625 268 647 q 201 602 232 604 q 153 622 172 601 q 136 675 134 643 q 155 725 137 704 q 203 747 173 747 q 252 728 233 749 q 269 677 271 707 z "},"¢":{"ha":653,"x_min":55,"x_max":600,"o":"m 288 87 q 382 126 341 86 q 439 231 423 167 l 550 231 q 476 78 536 142 q 324 -8 417 14 l 293 -166 l 176 -166 l 208 -4 q 101 85 140 19 q 60 248 62 151 q 86 475 55 366 q 179 651 117 584 q 330 740 242 718 l 361 894 l 477 894 l 447 741 q 560 649 521 718 q 596 481 600 579 l 486 481 q 459 599 488 555 q 380 645 431 643 q 234 554 287 648 q 174 292 181 460 l 174 244 q 205 129 176 168 q 288 87 235 89 z "},"£":{"ha":695,"x_min":-6,"x_max":692,"o":"m 273 422 l 254 274 q 185 104 237 173 l 592 106 l 572 0 l -6 0 l 9 106 l 47 104 q 100 158 79 119 q 131 273 120 197 l 152 422 l 65 422 l 84 528 l 168 528 l 190 700 q 290 922 208 840 q 486 1001 371 1004 q 638 928 584 999 q 686 736 692 857 l 564 737 q 544 851 570 809 q 466 895 519 893 q 365 843 407 897 q 311 695 323 789 l 289 528 l 460 528 l 441 422 l 273 422 z "},"¤":{"ha":967,"x_min":12,"x_max":964,"o":"m 675 75 q 420 -14 549 -16 q 193 75 285 -11 l 86 -18 l 12 80 l 120 171 q 93 288 100 229 q 110 487 80 389 q 211 665 140 585 l 132 771 l 227 857 l 304 757 q 549 837 426 840 q 770 755 677 836 l 888 858 l 964 759 l 846 659 q 876 540 868 600 q 861 347 888 442 q 766 170 833 251 l 844 68 l 747 -18 l 675 75 m 206 406 q 221 258 196 329 q 300 146 246 188 q 427 102 354 104 q 579 142 507 99 q 702 260 652 184 q 762 418 751 335 q 746 566 771 496 q 668 677 722 636 q 541 721 614 718 q 388 681 461 724 q 266 564 315 638 q 206 406 217 489 z "},"¥":{"ha":631,"x_min":47,"x_max":709,"o":"m 338 566 l 570 987 l 709 987 l 424 499 l 559 499 l 544 414 l 372 414 l 353 302 l 525 302 l 510 218 l 338 218 l 300 0 l 178 0 l 216 218 l 47 218 l 63 302 l 231 302 l 250 414 l 82 414 l 97 499 l 239 499 l 123 987 l 254 987 l 338 566 z "},"¦":{"ha":330,"x_min":-6,"x_max":321,"o":"m -6 -183 l 87 353 l 211 353 l 117 -183 l -6 -183 m 231 473 l 108 473 l 197 987 l 321 987 l 231 473 z "},"§":{"ha":730,"x_min":-22,"x_max":705,"o":"m 636 298 q 500 104 625 169 q 547 -81 556 33 q 451 -269 536 -199 q 240 -336 365 -339 q 46 -255 115 -334 q -13 -43 -22 -177 l 104 -42 q 135 -179 98 -127 q 246 -233 172 -231 q 368 -193 317 -234 q 429 -83 419 -151 q 332 60 441 9 l 276 85 q 102 203 151 136 q 63 368 54 269 q 197 562 75 494 q 152 747 141 634 q 248 933 162 863 q 458 1001 334 1004 q 642 922 578 998 q 696 709 705 845 l 581 709 q 553 845 587 793 q 452 899 519 897 q 330 859 380 900 q 271 749 280 819 q 356 606 257 653 l 418 580 q 594 464 544 532 q 636 298 644 397 m 283 503 q 182 370 196 469 q 267 222 168 269 l 411 161 q 518 296 503 199 q 430 441 530 388 l 391 460 l 283 503 z "},"¨":{"ha":570,"x_min":148,"x_max":576,"o":"m 148 928 q 168 980 149 960 q 220 1002 188 1001 q 272 983 252 1003 q 292 931 293 963 q 272 880 292 900 q 220 858 252 859 q 168 877 188 857 q 148 928 148 897 m 431 927 q 451 979 431 958 q 503 1002 471 1000 q 555 982 535 1002 q 575 930 576 962 q 555 878 575 898 q 503 857 534 858 q 451 876 471 856 q 431 927 430 895 z "},"©":{"ha":1065,"x_min":66,"x_max":1029,"o":"m 741 405 q 669 246 732 302 q 505 192 606 189 q 352 268 406 195 q 307 454 298 341 l 314 521 q 398 723 328 649 q 574 796 468 798 q 723 738 671 793 q 772 583 776 683 l 675 583 q 655 674 679 641 q 571 709 632 707 q 464 661 507 710 q 411 525 420 612 q 401 418 401 439 l 403 395 q 434 312 408 342 q 507 279 461 281 q 646 404 623 275 l 741 405 m 156 387 q 259 157 171 246 q 476 66 347 68 q 716 139 603 64 q 891 344 829 215 q 939 602 953 473 q 838 829 924 741 q 620 920 751 916 q 379 846 492 922 q 204 643 266 770 q 156 387 142 515 m 81 490 q 173 745 96 625 q 369 935 250 866 q 619 1001 488 1004 q 836 933 740 1000 q 981 749 932 867 q 1015 498 1029 631 q 922 241 999 361 q 728 53 844 121 q 484 -14 611 -15 l 477 -14 q 258 55 353 -12 q 115 239 163 121 q 81 490 66 357 z "},"ª":{"ha":541,"x_min":128,"x_max":509,"o":"m 368 477 l 368 524 q 255 468 316 468 q 162 510 195 468 q 131 617 128 553 q 190 738 134 696 q 340 780 246 780 l 395 779 l 402 816 l 405 845 q 361 907 405 905 q 280 836 298 908 l 180 843 q 237 959 186 916 q 363 1002 288 1003 q 471 952 433 1000 q 505 825 509 904 l 505 814 l 472 601 q 466 539 467 570 q 468 477 465 509 l 368 477 m 282 560 q 368 602 321 560 l 388 703 l 342 703 q 269 680 298 702 q 235 621 239 658 q 243 577 231 595 q 282 560 254 560 z "},"«":{"ha":570,"x_min":58,"x_max":545,"o":"m 168 364 l 257 102 l 180 102 l 58 365 l 60 378 l 265 642 l 358 642 l 168 364 m 354 364 l 444 102 l 366 102 l 245 365 l 246 378 l 452 642 l 545 642 l 354 364 z "},"¬":{"ha":663,"x_min":87,"x_max":572,"o":"m 522 254 l 404 254 l 435 433 l 87 433 l 107 543 l 572 543 l 522 254 z "},"®":{"ha":1066,"x_min":66,"x_max":1029,"o":"m 80 490 q 172 745 95 625 q 368 935 250 866 q 618 1001 487 1004 q 833 935 737 1000 q 979 752 929 870 q 1014 498 1029 635 q 920 240 998 360 q 725 51 842 119 q 477 -15 607 -18 q 260 53 355 -12 q 116 236 165 117 q 80 490 66 355 m 155 386 q 207 222 163 297 q 320 108 251 148 q 475 66 390 68 q 714 138 602 63 q 889 341 826 212 q 939 602 952 470 q 886 766 930 692 q 773 878 842 839 q 619 920 705 918 q 382 850 494 922 q 206 648 270 777 q 155 386 142 519 m 444 444 l 408 214 l 314 214 l 404 790 l 578 789 q 723 742 673 786 q 769 621 774 699 q 744 549 767 582 q 666 486 721 517 q 724 390 718 456 l 724 349 q 718 269 716 290 l 720 225 l 718 214 l 625 214 q 622 263 621 239 l 627 312 l 631 349 q 619 417 635 393 q 557 443 603 440 l 444 444 m 456 530 l 553 530 q 636 554 602 531 q 677 617 671 578 q 662 681 684 660 q 579 704 640 702 l 484 704 l 456 530 z "},"¯":{"ha":565,"x_min":167,"x_max":565,"o":"m 550 883 l 167 883 l 182 980 l 565 980 l 550 883 z "},"°":{"ha":510,"x_min":157,"x_max":494,"o":"m 160 819 q 217 948 163 894 q 342 1002 272 1003 q 451 950 408 1000 q 492 831 494 899 q 436 702 490 755 q 313 650 382 649 q 202 701 246 652 q 160 819 157 750 m 242 820 q 259 762 238 787 q 313 737 279 737 q 378 764 349 737 q 411 829 407 791 q 396 889 415 862 q 342 916 377 916 q 276 887 305 916 q 242 820 246 858 z "},"±":{"ha":640,"x_min":25,"x_max":604,"o":"m 408 579 l 604 579 l 587 477 l 392 477 l 348 196 l 243 196 l 287 477 l 79 477 l 96 579 l 302 579 l 347 859 l 452 859 l 408 579 m 488 0 l 25 0 l 41 103 l 504 103 l 488 0 z "},"²":{"ha":451,"x_min":64,"x_max":452,"o":"m 402 452 l 64 452 l 78 532 l 262 711 l 288 738 q 347 840 340 793 l 347 865 q 302 910 342 910 q 218 819 237 910 l 119 818 q 178 948 127 898 q 302 996 228 998 q 411 954 370 996 q 448 840 452 911 q 422 756 446 797 q 344 663 399 715 l 210 539 l 418 539 l 402 452 z "},"³":{"ha":451,"x_min":79,"x_max":455,"o":"m 218 763 l 264 763 q 324 786 300 765 q 353 843 348 806 q 344 889 356 871 q 301 909 332 908 q 227 846 248 909 l 127 846 q 182 956 134 913 q 300 996 229 998 q 412 955 370 995 q 451 848 455 915 q 357 723 446 770 q 420 607 423 694 q 364 489 417 534 q 233 445 311 444 q 120 490 161 446 q 81 604 79 534 l 178 604 q 238 532 176 534 q 297 555 273 532 q 325 612 320 577 q 262 684 333 682 l 211 684 l 218 763 z "},"´":{"ha":429,"x_min":144,"x_max":460,"o":"m 303 1042 l 460 1042 l 252 842 l 144 842 l 303 1042 z "},"µ":{"ha":678,"x_min":-23,"x_max":633,"o":"m 270 734 l 201 311 q 193 225 193 252 q 271 87 189 90 q 418 178 363 84 l 515 734 l 633 734 l 505 0 l 401 0 l 412 69 q 267 -15 350 -15 q 153 33 194 -14 l 94 -282 l -23 -282 l 153 734 l 270 734 z "},"¶":{"ha":592,"x_min":87,"x_max":584,"o":"m 294 0 l 359 353 l 319 353 q 189 395 243 355 q 112 506 136 435 q 96 665 87 577 q 197 899 109 809 q 414 988 284 988 l 584 987 l 412 0 l 294 0 z "},"·":{"ha":334,"x_min":106,"x_max":246,"o":"m 106 492 q 125 547 106 524 q 176 571 143 570 q 226 551 206 572 q 246 496 246 530 q 227 443 246 465 q 176 419 208 420 q 126 438 146 418 q 106 492 106 458 z "},"¸":{"ha":315,"x_min":-34,"x_max":159,"o":"m 106 0 l 93 -37 q 142 -75 125 -46 q 158 -148 159 -104 q 106 -254 156 -215 q -34 -296 56 -293 l -31 -223 q 68 -151 59 -216 q 22 -96 75 -105 l -6 -91 l 22 0 l 106 0 z "},"¹":{"ha":451,"x_min":150,"x_max":391,"o":"m 301 452 l 202 452 l 273 857 l 150 819 l 166 911 l 376 987 l 391 987 l 301 452 z "},"º":{"ha":549,"x_min":128,"x_max":537,"o":"m 363 1002 q 492 933 446 1000 q 529 762 537 866 l 524 707 q 450 531 510 597 q 302 467 391 465 q 174 537 219 469 q 136 707 128 605 l 141 753 q 214 936 153 867 q 363 1002 275 1004 m 239 706 l 239 662 q 257 589 239 617 q 309 561 276 562 q 384 600 354 559 q 421 712 414 641 q 428 807 428 784 q 409 879 427 852 q 357 907 391 906 q 281 866 311 909 q 243 749 251 823 l 239 706 z "},"»":{"ha":570,"x_min":10,"x_max":511,"o":"m 190 644 l 311 380 l 310 367 l 104 103 l 10 103 l 201 380 l 111 644 l 190 644 m 389 644 l 511 380 l 509 367 l 304 103 l 210 103 l 400 380 l 311 644 l 389 644 z "},"¼":{"ha":865,"x_min":123,"x_max":772,"o":"m 275 450 l 176 450 l 246 855 l 123 817 l 140 909 l 350 985 l 364 985 l 275 450 m 212 81 l 151 130 l 673 895 l 735 846 l 212 81 m 713 202 l 772 203 l 756 115 l 701 115 l 681 0 l 583 0 l 603 115 l 400 115 l 410 191 l 670 534 l 770 535 l 713 202 m 513 203 l 618 203 l 655 393 l 646 380 l 513 203 z "},"½":{"ha":920,"x_min":123,"x_max":821,"o":"m 187 81 l 127 130 l 649 895 l 711 846 l 187 81 m 274 450 l 175 450 l 245 855 l 123 817 l 139 909 l 349 985 l 363 985 l 274 450 m 771 0 l 433 0 l 447 79 l 631 258 l 656 286 q 715 387 709 340 l 716 412 q 671 458 711 458 q 587 366 606 458 l 488 366 q 547 495 496 446 q 671 544 597 545 q 780 502 739 544 q 817 388 821 459 q 791 304 814 345 q 713 210 768 263 l 579 87 l 787 87 l 771 0 z "},"¾":{"ha":914,"x_min":107,"x_max":818,"o":"m 278 81 l 218 130 l 740 895 l 802 846 l 278 81 m 758 202 l 818 203 l 802 115 l 747 115 l 726 0 l 628 0 l 648 115 l 446 115 l 455 191 l 715 534 l 816 535 l 758 202 m 558 203 l 663 203 l 701 393 l 691 380 l 558 203 m 245 763 l 292 763 q 352 786 328 765 q 380 843 376 806 q 372 889 384 871 q 329 909 359 908 q 255 846 276 909 l 155 846 q 210 956 162 913 q 328 996 257 998 q 440 955 397 995 q 479 848 483 915 q 385 723 474 770 q 448 607 451 694 q 392 489 445 534 q 260 445 339 444 q 148 490 189 446 q 109 604 107 534 l 205 604 q 266 532 204 534 q 325 555 301 532 q 353 612 348 577 q 290 684 361 682 l 239 684 l 245 763 z "},"¿":{"ha":574,"x_min":-28,"x_max":441,"o":"m 356 462 q 320 334 348 391 q 225 204 292 277 q 136 92 158 131 q 101 -58 95 21 q 191 -154 109 -152 q 278 -117 241 -155 q 326 -14 315 -78 l 441 -14 q 357 -196 428 -127 q 182 -262 286 -264 q 26 -190 79 -259 q -18 -9 -28 -121 q 102 228 -7 108 l 174 304 q 241 461 227 364 l 356 462 m 401 677 q 382 626 399 648 q 334 603 365 604 q 286 622 305 602 q 269 675 267 642 q 288 725 270 705 q 336 747 306 746 q 384 728 365 749 q 401 677 402 707 z "},"Æ":{"ha":1101,"x_min":-76,"x_max":1131,"o":"m 993 0 l 490 0 l 524 239 l 227 239 l 74 0 l -76 0 l 582 987 l 1131 987 l 1112 884 l 730 884 l 686 565 l 1013 565 l 994 463 l 672 463 l 622 102 l 1011 102 l 993 0 m 301 357 l 540 357 l 608 840 l 301 357 z "},"×":{"ha":641,"x_min":30,"x_max":612,"o":"m 30 229 l 251 456 l 107 684 l 191 762 l 331 538 l 549 762 l 612 672 l 389 444 l 532 217 l 449 139 l 310 361 l 94 140 l 30 229 z "},"Ø":{"ha":816,"x_min":17,"x_max":857,"o":"m 342 -14 q 184 40 252 -12 l 111 -63 l 17 -62 l 131 96 q 79 369 73 213 q 98 536 82 435 q 151 728 114 637 q 296 933 208 863 q 497 1001 385 1004 q 685 920 614 998 l 762 1028 l 857 1027 l 731 852 q 760 690 757 772 q 737 430 764 574 q 652 184 709 286 q 517 33 595 83 q 342 -14 438 -16 m 196 336 q 205 212 193 273 l 616 813 q 490 890 574 886 q 369 854 425 893 q 275 731 314 814 q 218 533 237 648 q 196 336 199 418 m 646 722 l 248 140 q 349 96 286 98 q 523 183 454 92 q 621 452 593 275 q 646 722 648 630 z "},"Þ":{"ha":701,"x_min":31,"x_max":661,"o":"m 319 987 l 284 789 l 419 788 q 598 706 535 784 q 651 506 661 628 q 554 294 640 376 q 336 212 468 212 l 185 212 l 148 0 l 31 0 l 202 987 l 319 987 m 271 687 l 202 315 l 338 314 q 448 349 400 315 q 518 443 495 382 q 534 570 542 503 q 497 652 528 621 q 417 685 467 682 l 273 686 l 271 687 z "},"ß":{"ha":710,"x_min":16,"x_max":612,"o":"m 133 0 l 16 0 l 145 753 q 234 977 165 897 q 410 1055 302 1057 q 554 991 505 1052 q 595 831 604 930 q 583 770 593 798 q 538 680 572 741 q 495 596 503 618 q 483 549 487 574 l 481 534 q 542 389 477 475 q 612 243 608 302 l 612 221 q 539 47 605 112 q 369 -14 473 -17 q 203 37 269 -13 l 241 141 q 361 88 300 88 q 453 123 418 88 q 496 214 489 157 q 486 287 500 250 q 433 376 472 323 q 378 469 394 429 q 366 550 362 510 q 378 604 369 578 q 428 694 388 629 q 477 793 469 760 q 484 865 486 827 q 461 928 481 905 q 407 954 441 951 q 261 754 288 958 l 133 0 z "},"æ":{"ha":987,"x_min":17,"x_max":939,"o":"m 650 -14 q 529 18 583 -12 q 448 103 476 49 q 193 -14 347 -16 q 63 46 109 -12 q 23 201 17 105 q 106 370 31 309 q 304 431 181 431 l 427 431 l 435 489 q 437 539 437 512 q 413 616 434 588 q 353 645 391 644 q 260 609 298 646 q 212 515 221 571 l 96 528 q 181 688 106 627 q 361 748 255 749 q 467 720 421 747 q 534 644 513 694 q 734 748 627 750 q 844 715 798 746 q 913 625 890 684 q 939 493 937 566 q 935 417 939 454 l 922 337 l 530 337 q 526 258 525 300 q 561 136 528 182 q 655 89 594 91 q 838 160 742 87 l 870 68 q 777 7 836 28 q 650 -14 718 -14 m 222 87 q 381 168 291 85 l 412 336 l 304 336 q 194 296 239 335 q 142 198 149 258 q 157 118 136 147 q 222 87 179 89 m 725 646 q 621 598 667 648 q 541 434 574 548 l 819 434 q 827 519 827 486 l 825 543 q 725 646 811 642 z "},"ð":{"ha":698,"x_min":58,"x_max":661,"o":"m 553 882 q 620 661 606 773 q 604 336 638 518 q 489 78 573 173 q 290 -14 406 -18 q 118 83 178 -11 q 71 311 58 176 q 124 498 81 414 q 230 624 168 582 q 368 663 293 665 q 510 595 448 661 q 458 809 511 709 l 320 711 l 284 786 l 406 871 q 250 964 349 929 l 296 1071 q 503 943 418 1034 l 625 1029 l 661 954 l 553 882 m 504 474 q 390 560 475 556 q 286 526 332 563 q 213 417 239 489 q 186 267 186 345 q 215 139 186 187 q 300 87 245 90 q 424 160 374 84 q 494 382 475 237 l 504 474 z "},"÷":{"ha":680,"x_min":52,"x_max":627,"o":"m 604 407 l 52 407 l 73 532 l 627 532 l 604 407 m 319 743 q 338 797 319 774 q 389 821 356 820 q 439 802 419 823 q 460 747 460 781 q 440 693 459 715 q 389 670 421 671 q 338 689 358 669 q 319 743 319 709 m 223 189 q 242 243 224 220 q 294 267 260 266 q 343 248 323 269 q 363 193 363 227 q 344 139 363 161 q 293 116 326 117 q 243 135 262 115 q 223 189 223 155 z "},"ø":{"ha":678,"x_min":31,"x_max":637,"o":"m 386 749 q 495 720 444 747 l 555 819 l 637 819 l 551 678 q 612 454 612 587 l 607 375 q 493 87 583 191 q 275 -15 404 -17 q 172 9 224 -14 l 113 -91 l 31 -90 l 117 50 q 52 275 51 138 q 56 354 52 315 l 58 368 q 170 646 82 542 q 386 749 257 751 m 163 258 q 176 161 162 209 l 444 625 q 380 646 415 646 q 269 601 316 649 q 194 462 221 552 q 163 258 167 372 m 498 468 q 489 562 499 515 l 224 102 q 281 86 251 87 q 436 192 378 82 q 498 468 493 302 z "},"þ":{"ha":692,"x_min":-26,"x_max":610,"o":"m 313 -15 q 154 60 213 -12 l 90 -282 l -26 -282 l 203 1042 l 320 1042 l 250 671 q 420 747 324 750 q 561 668 513 746 q 606 452 610 589 l 602 378 l 600 367 q 499 81 574 180 q 313 -15 425 -18 m 488 484 q 377 642 481 640 q 254 575 309 644 l 234 548 l 171 178 q 283 88 203 91 q 404 146 353 85 q 477 329 454 206 l 483 363 q 488 484 490 441 z "},"đ":{"ha":720,"x_min":51,"x_max":777,"o":"m 758 836 l 652 836 l 507 0 l 401 0 l 412 67 q 240 -14 338 -16 q 100 70 149 -11 q 52 284 51 151 l 56 357 l 57 368 q 159 649 81 547 q 350 748 236 751 q 502 672 446 745 l 535 836 l 400 836 l 418 939 l 552 939 l 570 1042 l 688 1042 l 669 939 l 777 939 l 758 836 m 168 250 q 277 92 175 94 q 423 189 358 90 l 484 546 q 372 641 450 637 q 257 591 304 644 q 187 438 210 539 q 168 250 163 336 z "},"Ħ":{"ha":830,"x_min":33,"x_max":870,"o":"m 798 791 l 870 791 l 853 694 l 781 694 l 660 0 l 538 0 l 618 456 l 235 456 l 155 0 l 33 0 l 153 694 l 80 694 l 96 791 l 170 791 l 205 987 l 326 987 l 292 791 l 675 791 l 710 987 l 831 987 l 798 791 m 252 563 l 635 563 l 659 694 l 275 694 l 252 563 z "},"ı":{"ha":323,"x_min":25,"x_max":270,"o":"m 142 0 l 25 0 l 153 734 l 270 734 l 142 0 z "},"ĸ":{"ha":669,"x_min":26,"x_max":665,"o":"m 253 312 l 197 313 l 143 0 l 26 0 l 153 734 l 271 734 l 213 422 l 252 422 l 516 734 l 665 734 l 349 373 l 546 0 l 410 0 l 253 312 z "},"Ł":{"ha":647,"x_min":33,"x_max":549,"o":"m 254 579 l 400 631 l 385 541 l 239 488 l 173 106 l 549 106 l 530 0 l 33 0 l 109 440 l 36 414 l 52 505 l 125 531 l 203 987 l 326 987 l 254 579 z "},"ł":{"ha":344,"x_min":35,"x_max":346,"o":"m 256 596 l 346 634 l 330 544 l 240 505 l 153 0 l 35 0 l 113 450 l 35 417 l 51 507 l 129 541 l 216 1042 l 333 1042 l 256 596 z "},"Ŋ":{"ha":814,"x_min":28,"x_max":815,"o":"m 815 987 l 637 -57 q 563 -237 621 -174 q 417 -298 505 -300 q 348 -284 387 -298 l 366 -180 q 423 -192 399 -192 q 514 -57 495 -192 l 524 0 l 279 748 l 149 0 l 28 0 l 199 987 l 317 987 l 563 240 l 692 987 l 815 987 z "},"ŋ":{"ha":678,"x_min":20,"x_max":586,"o":"m 252 734 l 237 635 q 419 748 318 750 q 543 689 499 747 q 586 527 586 631 l 583 463 l 498 -60 q 426 -238 483 -176 q 282 -298 369 -300 q 215 -284 258 -298 l 235 -178 q 290 -189 271 -189 q 379 -73 358 -189 l 466 460 l 470 522 q 448 609 471 577 q 377 642 425 641 q 235 562 297 643 l 137 0 l 20 0 l 147 734 l 252 734 z "},"Œ":{"ha":1120,"x_min":62,"x_max":1103,"o":"m 939 0 l 476 0 l 354 -12 l 317 -12 q 136 75 203 -9 q 64 300 69 159 q 69 395 62 351 l 100 589 q 228 890 130 779 q 473 1002 327 1002 l 508 1001 l 632 987 l 1103 987 l 1084 880 l 696 880 l 642 563 l 980 563 l 961 456 l 623 456 l 562 106 l 958 106 l 939 0 m 322 90 q 436 96 367 88 l 578 890 q 469 901 524 900 q 306 823 371 903 q 218 595 241 743 l 186 390 l 181 330 q 211 155 174 216 q 322 90 248 93 z "},"œ":{"ha":1054,"x_min":55,"x_max":1002,"o":"m 61 370 q 121 571 75 481 q 234 705 167 661 q 382 747 301 749 q 502 710 450 746 q 578 613 554 673 l 605 646 q 798 748 696 750 q 948 679 895 747 q 1002 496 1001 611 l 1000 437 l 985 337 l 601 337 l 597 289 q 622 144 592 197 q 711 89 651 92 q 887 161 805 86 l 926 75 q 831 8 889 31 q 706 -13 773 -14 q 585 23 637 -12 q 507 117 532 58 q 397 16 454 47 q 275 -14 340 -16 q 116 64 174 -12 q 56 273 59 140 q 60 354 55 315 l 61 370 m 177 354 q 172 248 170 299 q 282 87 180 92 q 410 156 359 83 q 478 360 461 229 l 479 375 q 485 482 486 430 q 374 645 477 640 q 252 583 301 648 q 181 388 202 517 l 178 370 l 177 354 m 788 646 q 629 484 690 648 l 614 440 l 882 439 l 885 458 q 888 519 889 487 l 886 543 q 788 646 872 642 z "},"ſ":{"ha":323,"x_min":29,"x_max":477,"o":"m 29 0 l 167 810 q 241 995 182 929 q 392 1059 300 1061 q 477 1045 426 1058 l 457 947 q 410 956 431 954 q 283 804 310 958 l 146 0 l 29 0 z "},"Ə":{"ha":811,"x_min":57,"x_max":754,"o":"m 330 -14 q 181 30 243 -12 q 88 151 119 71 q 57 333 57 231 q 65 441 57 388 l 77 520 l 621 518 l 623 526 q 634 602 631 562 q 620 750 640 682 q 556 854 601 818 q 448 891 511 890 q 245 836 354 893 l 225 933 q 452 1000 292 1000 q 611 956 544 1000 q 715 827 678 912 q 753 635 751 741 q 735 443 754 552 q 669 235 717 333 q 553 75 621 136 q 330 -14 454 -16 m 336 93 q 496 168 427 90 q 610 420 564 245 l 184 419 q 174 328 175 364 q 210 156 167 216 q 336 93 252 96 z "},"ƒ":{"ha":424,"x_min":-102,"x_max":502,"o":"m 387 637 l 284 637 l 178 -60 q 109 -238 164 -176 q -35 -298 54 -300 q -102 -285 -63 -297 l -85 -185 q -29 -196 -54 -196 q 56 -85 35 -196 l 167 637 l 74 637 l 89 734 l 182 734 l 191 806 q 264 994 205 929 q 415 1057 322 1059 q 502 1042 450 1056 l 478 943 q 425 951 443 951 q 311 821 332 951 l 298 734 l 402 734 l 387 637 z "},"Ơ":{"ha":806,"x_min":66,"x_max":920,"o":"m 330 -14 q 185 35 245 -12 q 96 169 125 81 q 67 361 66 257 q 85 537 68 433 q 140 732 102 642 q 283 935 196 865 q 483 1001 371 1004 q 690 896 614 998 q 771 947 741 907 q 816 1078 802 987 l 920 1079 q 861 902 907 967 q 733 813 815 838 q 747 669 747 741 q 721 419 749 561 q 632 173 693 277 q 485 22 571 68 q 330 -14 414 -16 m 618 527 q 627 673 628 614 q 475 890 619 883 q 305 804 375 895 q 207 547 235 713 q 187 317 183 405 q 336 96 195 103 q 514 188 443 92 q 612 481 585 285 l 618 527 z "},"ơ":{"ha":684,"x_min":52,"x_max":756,"o":"m 58 369 q 119 571 72 481 q 235 706 167 661 q 385 748 303 750 q 566 653 499 745 q 655 762 639 673 l 664 814 l 756 814 q 707 656 744 711 q 603 581 670 602 q 613 479 612 530 q 570 222 615 339 q 450 44 526 104 q 278 -14 374 -17 q 117 65 176 -12 q 54 273 58 142 q 58 369 52 311 m 170 304 q 194 145 165 201 q 285 87 224 90 q 430 180 375 84 q 492 425 486 277 q 468 586 497 529 q 376 645 439 642 q 241 568 294 648 q 172 347 188 488 l 170 304 z "},"Ư":{"ha":827,"x_min":65,"x_max":998,"o":"m 779 987 l 750 841 q 850 896 814 852 q 901 1043 886 941 l 998 1043 q 919 829 983 900 q 741 751 856 759 l 665 319 q 604 143 652 221 q 483 24 557 66 q 320 -14 410 -17 q 177 31 235 -12 q 92 149 118 73 q 76 319 65 225 l 189 987 l 310 987 l 197 318 q 195 240 192 279 q 234 134 199 173 q 329 92 268 95 q 469 147 413 89 q 543 319 524 205 l 657 987 l 779 987 z "},"ư":{"ha":747,"x_min":58,"x_max":804,"o":"m 804 792 q 742 622 791 673 q 595 568 692 571 l 494 0 l 383 0 l 397 64 q 220 -14 326 -16 q 107 35 148 -12 q 61 166 66 83 q 62 260 58 214 l 142 734 l 258 734 l 179 258 l 176 208 q 192 126 174 159 q 248 93 211 94 q 410 190 347 88 l 503 734 l 621 734 l 603 644 q 709 734 691 648 l 719 792 l 804 792 z "},"ȷ":{"ha":327,"x_min":-138,"x_max":281,"o":"m 281 734 l 146 -60 q 75 -237 130 -175 q -71 -298 19 -300 q -138 -284 -101 -297 l -119 -185 q -64 -196 -85 -197 q 28 -60 8 -196 l 163 734 l 281 734 z "},"ə":{"ha":634,"x_min":47,"x_max":572,"o":"m 345 748 q 505 671 446 747 q 568 465 564 596 q 530 222 572 336 q 416 46 488 109 q 255 -14 344 -16 q 114 45 167 -11 q 52 200 62 101 q 54 313 47 258 l 66 396 l 450 396 l 454 444 q 429 591 458 539 q 340 645 399 642 q 163 573 248 648 l 126 659 q 225 728 167 706 q 345 748 283 749 m 264 88 q 358 133 316 87 q 437 294 400 179 l 170 294 l 166 275 q 163 215 162 247 l 165 191 q 264 88 180 92 z "},"ˆ":{"ha":584,"x_min":187,"x_max":533,"o":"m 533 857 l 533 848 l 439 849 l 382 964 l 282 850 l 187 848 l 187 858 l 351 1042 l 418 1042 l 533 857 z "},"ˇ":{"ha":551,"x_min":198,"x_max":553,"o":"m 352 926 l 452 1040 l 553 1042 l 553 1034 l 382 848 l 314 848 l 198 1033 l 198 1042 l 295 1041 l 352 926 z "},"ˉ":{"ha":566,"x_min":167,"x_max":565,"o":"m 550 883 l 167 883 l 182 980 l 565 980 l 550 883 z "},"˘":{"ha":582,"x_min":178,"x_max":572,"o":"m 572 1014 q 506 879 564 929 q 361 832 448 829 q 228 883 278 833 q 180 1015 178 932 l 279 1014 q 362 912 275 915 q 438 940 410 911 q 474 1013 466 969 l 572 1014 z "},"˙":{"ha":334,"x_min":183,"x_max":328,"o":"m 183 925 q 203 978 183 957 q 255 1000 222 999 q 307 982 286 1002 q 328 929 328 962 q 307 877 327 897 q 255 855 287 857 q 204 873 225 854 q 183 925 183 892 z "},"˚":{"ha":457,"x_min":174,"x_max":458,"o":"m 176 949 q 221 1054 177 1011 q 325 1097 264 1097 q 419 1057 380 1097 q 458 960 458 1018 q 413 858 457 900 q 309 816 370 816 q 213 854 252 816 q 176 949 174 893 m 241 951 q 256 898 238 920 q 304 877 275 877 q 362 901 335 877 q 393 959 389 925 q 378 1013 397 990 q 330 1035 359 1035 q 272 1010 299 1035 q 241 951 245 985 z "},"˛":{"ha":348,"x_min":-49,"x_max":169,"o":"m 169 -2 l 134 -33 q 56 -155 60 -98 q 85 -199 52 -197 q 114 -194 100 -200 l 141 -182 l 141 -265 q 52 -294 100 -294 q -22 -260 5 -294 q -47 -170 -49 -226 q 122 39 -43 -44 l 169 -2 z "},"˜":{"ha":583,"x_min":154,"x_max":574,"o":"m 574 1018 q 531 897 567 943 q 440 852 496 850 q 400 863 418 852 q 367 886 383 873 q 334 909 351 899 q 296 918 317 919 q 230 842 250 916 l 154 847 q 198 969 161 922 q 290 1015 235 1017 q 363 980 321 1014 q 435 948 404 947 q 502 1025 481 950 l 574 1018 z "},"˝":{"ha":454,"x_min":131,"x_max":585,"o":"m 447 1041 l 585 1041 l 401 836 l 289 836 l 447 1041 m 254 1041 l 384 1041 l 230 836 l 131 836 l 254 1041 z "},"˳":{"ha":361,"x_min":-22,"x_max":175,"o":"m -22 -168 q 8 -85 -22 -121 q 81 -50 37 -50 q 149 -82 122 -50 q 175 -160 175 -113 q 146 -241 175 -206 q 75 -275 117 -275 q 6 -246 34 -277 q -22 -168 -22 -215 m 28 -168 q 37 -204 25 -188 q 66 -220 48 -220 q 104 -202 87 -220 q 124 -161 121 -183 q 124 -143 125 -153 q 112 -116 122 -127 q 89 -106 102 -106 q 50 -124 68 -106 q 28 -168 32 -142 z "},"̀":{"ha":0,"x_min":-358,"x_max":-153,"o":"m -153 842 l -243 842 l -358 1042 l -225 1042 l -153 842 z "},"́":{"ha":0,"x_min":-288,"x_max":4,"o":"m -145 1042 l 4 1042 l -186 842 l -288 842 l -145 1042 z "},"̃":{"ha":0,"x_min":-413,"x_max":7,"o":"m 7 1018 q -36 897 0 943 q -127 852 -71 850 q -166 863 -149 852 q -200 886 -184 873 q -233 909 -216 899 q -271 918 -250 919 q -337 842 -317 916 l -413 847 q -369 969 -406 922 q -277 1015 -332 1017 q -204 980 -245 1014 q -132 948 -163 947 q -65 1025 -86 950 l 7 1018 z "},"̉":{"ha":0,"x_min":-279,"x_max":-86,"o":"m -279 842 l -263 945 q -198 963 -218 950 q -176 1000 -178 977 q -230 1046 -170 1041 l -250 1048 l -239 1120 q -125 1084 -164 1117 q -90 998 -86 1051 q -183 890 -95 911 l -191 841 l -279 842 z "},"̏":{"ha":0,"x_min":-430,"x_max":-31,"o":"m -178 849 l -292 849 l -430 1029 l -281 1029 l -178 849 m -31 849 l -130 849 l -235 1029 l -99 1029 l -31 849 z "},"̣":{"ha":0,"x_min":-568,"x_max":-423,"o":"m -568 -168 q -547 -115 -567 -136 q -496 -93 -528 -94 q -444 -112 -465 -92 q -423 -164 -423 -132 q -444 -216 -424 -196 q -496 -238 -464 -237 q -547 -220 -526 -239 q -568 -168 -568 -201 z "},"΄":{"ha":352,"x_min":196,"x_max":391,"o":"m 272 1084 l 391 1084 l 275 856 l 196 856 l 272 1084 z "},"΅":{"ha":616,"x_min":157,"x_max":618,"o":"m 406 1134 l 526 1134 l 433 955 l 345 955 l 406 1134 m 226 1002 q 273 983 254 1004 q 291 930 292 962 q 272 880 290 901 q 223 858 254 859 q 175 878 193 857 q 158 928 157 899 q 177 980 159 958 q 226 1002 195 1001 m 552 1002 q 600 982 581 1003 q 617 929 618 961 q 598 879 616 900 q 549 857 580 858 q 501 876 519 855 q 484 927 483 897 q 503 979 486 957 q 552 1002 521 1000 z "},"·":{"ha":335,"x_min":106,"x_max":246,"o":"m 106 492 q 125 547 106 524 q 176 571 143 570 q 226 551 206 572 q 246 496 246 530 q 227 443 246 465 q 176 419 208 420 q 126 438 146 418 q 106 492 106 458 z "},"Γ":{"ha":664,"x_min":38,"x_max":709,"o":"m 690 880 l 313 880 l 160 0 l 38 0 l 210 987 l 709 987 l 690 880 z "},"Δ":{"ha":834,"x_min":-46,"x_max":715,"o":"m 465 987 l 571 987 l 715 0 l -46 0 l 465 987 m 137 106 l 582 106 l 489 802 l 137 106 z "},"Θ":{"ha":806,"x_min":71,"x_max":750,"o":"m 551 447 l 271 447 l 290 550 l 569 550 l 551 447 m 334 -14 q 190 35 250 -12 q 100 170 130 81 q 72 361 71 258 l 75 420 q 144 734 88 601 q 289 935 201 867 q 487 1001 376 1004 q 631 953 572 999 q 721 820 691 907 q 749 626 750 732 q 726 421 747 534 q 661 218 705 308 q 561 75 618 129 q 334 -14 464 -18 m 630 673 q 480 890 623 883 q 303 795 374 895 q 206 512 231 696 l 199 461 q 192 317 189 373 q 341 96 199 103 q 513 181 444 92 q 611 452 583 271 q 630 673 633 591 z "},"Λ":{"ha":778,"x_min":-37,"x_max":656,"o":"m 448 768 l 98 0 l -37 0 l 428 987 l 534 987 l 656 0 l 530 0 l 448 768 z "},"Ξ":{"ha":684,"x_min":9,"x_max":696,"o":"m 28 106 l 550 106 l 531 0 l 9 0 l 28 106 m 153 564 l 578 564 l 559 457 l 134 457 l 153 564 m 182 987 l 696 987 l 677 880 l 163 880 l 182 987 z "},"Π":{"ha":843,"x_min":38,"x_max":827,"o":"m 656 0 l 534 0 l 686 880 l 313 880 l 159 0 l 38 0 l 210 987 l 827 987 l 656 0 z "},"Σ":{"ha":684,"x_min":-18,"x_max":696,"o":"m 455 487 l 146 106 l 570 106 l 551 0 l -18 0 l 0 104 l 328 501 l 137 897 l 153 987 l 696 987 l 677 880 l 273 880 l 456 504 l 455 487 z "},"Φ":{"ha":844,"x_min":61,"x_max":816,"o":"m 562 861 q 703 807 645 855 q 789 675 762 758 q 806 496 816 592 q 745 305 794 391 q 616 171 696 220 q 440 119 537 122 l 416 0 l 293 0 l 317 120 q 174 174 233 125 q 88 306 115 223 q 71 484 61 389 q 132 676 83 591 q 261 811 182 762 q 439 862 340 859 l 465 987 l 587 987 l 562 861 m 189 398 q 227 278 191 323 q 329 227 263 233 l 425 756 q 293 705 349 753 q 211 573 237 658 q 189 398 184 489 m 689 583 q 651 702 687 656 q 549 753 615 747 l 453 225 q 586 277 530 230 q 666 406 641 324 q 689 583 692 487 z "},"Ψ":{"ha":815,"x_min":89,"x_max":844,"o":"m 443 355 q 584 445 528 376 q 659 619 640 513 l 722 987 l 844 987 l 781 615 q 661 360 752 456 q 431 246 570 264 l 385 0 l 262 0 l 309 248 q 162 335 218 267 q 96 506 106 403 q 96 631 89 568 l 157 987 l 277 987 l 218 630 q 212 551 212 592 q 240 427 212 477 q 321 357 268 376 l 434 987 l 556 987 l 443 355 z "},"Ω":{"ha":790,"x_min":6,"x_max":729,"o":"m 363 109 q 580 435 530 151 l 601 571 q 608 702 610 643 q 470 895 600 888 q 309 811 373 898 q 222 566 244 724 q 199 355 201 408 q 302 110 188 145 l 286 0 l 6 0 l 26 106 l 147 107 q 88 492 60 284 l 98 556 q 229 883 129 762 q 476 1001 328 1004 q 648 922 583 998 q 726 708 713 846 l 729 663 q 724 569 729 614 l 716 516 q 517 104 678 248 l 640 106 l 621 0 l 347 0 l 363 109 z "},"α":{"ha":673,"x_min":51,"x_max":632,"o":"m 632 734 l 543 199 l 537 144 q 559 100 537 102 l 573 102 l 578 8 q 510 -14 546 -14 q 422 87 433 -14 q 334 7 378 31 q 240 -15 290 -16 q 101 59 151 -14 q 51 264 51 132 q 91 507 51 384 q 196 690 131 631 q 348 748 262 750 q 505 650 456 745 l 532 734 l 632 734 m 168 234 q 275 87 176 90 q 399 160 345 85 l 424 197 l 423 199 l 479 532 q 435 617 462 591 q 371 644 408 642 q 255 589 302 647 q 186 420 208 530 q 168 234 164 309 z "},"β":{"ha":703,"x_min":-18,"x_max":656,"o":"m 440 1002 q 598 926 540 999 q 647 740 656 852 q 507 534 635 612 q 584 440 559 503 q 602 293 608 378 q 554 132 593 204 q 452 22 515 60 q 311 -14 389 -16 q 157 43 219 -12 l 99 -260 l -18 -260 l 151 728 q 203 866 161 801 q 307 967 244 930 q 440 1002 370 1003 m 374 581 q 481 626 439 582 q 530 743 522 669 q 510 852 536 806 q 432 900 484 898 q 326 853 371 901 q 269 728 281 804 l 172 157 q 304 88 216 90 q 439 160 387 87 q 489 347 492 233 q 465 438 488 402 q 402 477 442 475 l 315 479 l 330 581 l 374 581 z "},"γ":{"ha":606,"x_min":98,"x_max":626,"o":"m 269 212 l 503 734 l 626 734 l 298 37 l 242 -282 l 125 -282 l 184 60 l 98 734 l 212 734 l 269 212 z "},"δ":{"ha":678,"x_min":52,"x_max":602,"o":"m 214 855 q 286 1006 221 949 q 450 1062 351 1063 q 600 1023 519 1061 l 588 914 q 442 956 515 957 q 368 928 398 954 q 332 859 338 902 q 421 735 321 787 q 566 587 522 684 q 597 476 590 536 q 594 347 602 426 q 535 155 581 241 q 424 26 490 69 q 276 -14 357 -16 q 117 62 176 -12 q 54 263 59 136 q 58 359 52 299 q 136 566 72 481 q 293 672 199 651 l 294 681 q 231 757 250 710 q 214 855 211 804 m 175 340 l 172 292 q 195 143 167 197 q 283 87 223 90 q 409 153 359 83 q 476 347 460 223 q 479 436 481 401 q 447 551 476 503 q 369 617 418 600 q 241 546 292 615 q 177 355 191 476 l 175 340 z "},"ε":{"ha":641,"x_min":28,"x_max":586,"o":"m 304 326 q 198 291 237 324 q 154 201 159 258 q 181 119 149 151 q 266 86 213 86 q 365 121 321 85 q 420 216 408 157 l 536 217 q 448 46 524 110 q 260 -14 372 -17 q 92 47 156 -12 q 35 200 28 105 q 178 380 42 326 q 102 528 98 433 q 180 688 106 627 q 367 747 254 749 q 525 684 465 744 q 583 528 586 624 l 468 529 q 440 612 469 581 q 361 644 412 643 q 264 613 305 646 q 216 528 223 580 q 235 453 210 478 q 309 425 260 427 l 433 425 l 416 324 l 304 326 z "},"ζ":{"ha":631,"x_min":88,"x_max":662,"o":"m 662 987 l 647 899 l 355 538 q 222 268 242 395 l 216 220 q 254 117 208 140 l 376 70 q 451 -54 456 34 q 412 -162 448 -106 q 326 -260 376 -218 l 268 -200 q 311 -141 290 -173 q 336 -73 331 -109 q 295 -14 342 -36 l 276 -6 l 229 11 q 100 174 113 55 q 146 407 88 281 q 332 677 204 533 l 515 884 l 171 884 l 189 987 l 662 987 z "},"η":{"ha":678,"x_min":19,"x_max":589,"o":"m 252 734 l 237 648 q 420 747 318 747 q 539 700 496 747 q 586 568 581 652 q 584 471 589 519 l 457 -281 l 340 -281 l 467 469 l 471 529 q 376 646 471 644 q 298 622 333 646 q 231 543 263 597 l 137 0 l 19 0 l 146 734 l 252 734 z "},"θ":{"ha":675,"x_min":72,"x_max":631,"o":"m 275 -14 q 134 56 184 -11 q 77 251 83 123 q 86 439 72 340 l 103 555 q 219 896 137 785 q 427 1001 300 1006 q 627 743 610 994 q 618 559 631 667 l 593 401 q 475 82 555 182 q 275 -14 395 -18 m 216 543 l 494 543 l 502 581 q 515 696 513 655 q 419 899 522 892 q 305 838 352 903 q 231 627 258 773 l 216 543 m 486 440 l 203 440 q 188 297 190 349 q 209 142 184 194 q 283 88 234 90 q 465 330 413 81 l 486 440 z "},"ι":{"ha":410,"x_min":87,"x_max":302,"o":"m 302 734 l 210 185 l 208 158 q 250 101 205 101 q 296 108 267 101 l 287 4 q 210 -7 249 -8 q 117 45 148 -5 q 95 187 87 96 l 186 734 l 302 734 z "},"λ":{"ha":661,"x_min":-42,"x_max":553,"o":"m 257 1028 q 382 910 360 1027 l 499 141 q 531 100 506 103 l 542 99 l 553 101 l 545 -3 q 504 -10 520 -10 q 396 81 426 -14 l 383 127 l 323 512 l 92 0 l -42 0 l 295 700 l 261 881 q 209 925 251 927 l 196 924 l 205 1021 q 257 1028 231 1028 z "},"ξ":{"ha":588,"x_min":37,"x_max":610,"o":"m 582 873 q 464 899 514 899 q 337 862 388 899 q 279 766 286 825 q 309 660 271 697 q 421 623 347 623 l 505 622 l 487 519 l 414 519 q 271 483 330 519 q 184 376 212 446 q 165 235 157 305 q 261 97 176 131 q 370 59 345 71 q 448 -62 453 22 q 412 -166 444 -112 q 325 -267 380 -220 l 260 -208 l 286 -176 q 335 -77 328 -125 q 294 -22 340 -39 l 245 -5 q 85 106 134 32 q 47 298 37 180 q 115 471 56 403 q 269 574 174 539 q 188 652 217 604 q 163 762 159 701 q 254 938 169 872 q 466 1002 338 1004 q 610 974 542 1001 l 582 873 z "},"π":{"ha":707,"x_min":54,"x_max":699,"o":"m 681 630 l 602 630 l 527 185 l 525 158 q 567 101 522 101 q 614 108 581 100 l 604 4 q 527 -7 568 -8 q 434 45 465 -5 q 412 187 404 95 l 484 630 l 279 630 l 170 0 l 54 0 l 163 630 l 72 630 l 90 734 l 699 734 l 681 630 z "},"ρ":{"ha":678,"x_min":-30,"x_max":600,"o":"m 85 391 q 142 579 99 492 q 248 708 185 666 q 387 748 310 750 q 545 664 490 745 q 598 438 600 583 l 593 355 q 535 142 576 224 q 438 22 495 61 q 311 -14 381 -16 q 152 60 210 -12 l 88 -282 l -30 -282 l 85 391 m 170 178 q 281 88 203 91 q 408 152 357 85 q 475 340 459 220 l 476 355 q 484 467 484 417 q 455 603 482 562 q 378 646 427 644 q 272 585 315 647 q 207 408 228 524 l 170 178 z "},"ς":{"ha":643,"x_min":53,"x_max":599,"o":"m 394 748 q 545 678 491 746 q 597 498 599 610 l 596 480 l 487 481 q 467 602 492 559 q 387 646 441 644 q 264 577 313 647 q 197 379 215 507 l 193 351 q 323 106 173 170 l 390 77 q 465 -50 471 36 q 428 -154 461 -100 q 340 -254 395 -208 l 281 -193 q 326 -134 306 -165 q 350 -65 345 -104 q 311 -7 355 -26 l 273 6 q 77 351 53 90 l 79 369 q 184 645 99 538 q 394 748 270 751 z "},"σ":{"ha":678,"x_min":55,"x_max":707,"o":"m 688 630 l 536 629 q 593 350 611 511 q 484 82 572 181 q 275 -14 397 -18 q 158 24 208 -12 q 83 128 109 60 q 56 276 57 197 q 59 357 55 318 q 122 567 75 484 q 235 693 168 651 q 383 734 302 734 l 707 734 l 688 630 m 172 248 q 283 87 179 92 q 411 157 359 84 q 479 360 462 229 l 480 375 l 484 424 q 460 575 489 523 q 370 631 431 628 q 258 581 305 633 q 189 429 210 528 q 172 248 168 331 z "},"τ":{"ha":628,"x_min":97,"x_max":618,"o":"m 600 632 l 402 632 l 327 182 l 324 157 q 356 94 319 94 q 406 110 376 94 l 425 20 q 321 -13 376 -14 q 241 24 269 -12 q 210 122 213 60 q 212 189 209 157 l 285 632 l 97 632 l 115 734 l 618 734 l 600 632 z "},"υ":{"ha":654,"x_min":68,"x_max":590,"o":"m 263 734 l 189 287 q 184 211 184 237 q 204 119 184 149 q 258 87 224 88 q 417 224 357 83 q 473 561 477 365 q 452 735 470 649 l 568 734 q 590 560 589 652 q 499 138 590 294 q 255 -15 408 -19 q 117 48 165 -12 q 68 219 69 109 q 72 290 68 255 l 146 734 l 263 734 z "},"φ":{"ha":839,"x_min":44,"x_max":781,"o":"m 286 -9 q 127 74 187 7 q 54 247 66 142 q 64 434 44 336 q 131 607 83 531 q 249 734 179 684 l 304 642 q 199 478 235 574 q 168 292 163 382 q 203 165 170 216 q 298 94 237 113 l 380 580 q 434 694 389 652 q 544 735 479 736 q 659 698 608 734 q 739 594 709 661 q 774 452 769 528 q 738 233 781 338 q 607 65 694 128 q 403 -11 519 2 l 345 -324 l 228 -324 l 286 -9 m 414 92 q 588 204 522 117 q 657 419 654 292 q 646 529 659 474 q 606 609 633 583 q 540 631 578 635 q 500 584 509 627 l 414 92 z "},"ψ":{"ha":832,"x_min":55,"x_max":779,"o":"m 520 734 l 405 92 q 599 240 531 123 q 661 562 667 357 q 640 735 659 650 l 756 734 q 778 562 777 649 q 736 258 779 377 q 605 70 693 139 q 394 -11 516 1 l 337 -320 l 220 -320 l 278 -8 q 112 95 168 12 q 55 314 55 178 q 61 404 55 359 l 117 734 l 235 734 l 179 402 q 172 283 170 339 q 289 94 179 129 l 404 734 l 520 734 z "},"ω":{"ha":965,"x_min":63,"x_max":888,"o":"m 330 733 l 287 645 q 210 455 235 538 q 182 275 186 372 q 257 87 174 93 q 409 319 377 78 l 441 522 l 559 522 l 528 319 q 521 232 521 267 q 602 87 521 89 q 747 302 707 82 q 767 561 772 441 q 739 735 763 649 l 857 734 q 884 560 882 648 q 855 269 888 410 q 758 55 822 127 q 600 -14 693 -17 q 495 30 537 -13 q 444 144 452 73 q 352 19 400 56 q 243 -15 303 -17 q 137 27 178 -13 q 79 143 95 67 q 68 301 63 219 l 73 353 q 205 733 92 554 l 330 733 z "},"ϑ":{"ha":690,"x_min":54,"x_max":662,"o":"m 656 425 q 575 404 622 412 l 557 295 q 461 66 537 149 q 272 -14 386 -18 q 112 65 170 -11 q 60 267 54 142 l 62 295 l 98 522 l 216 523 l 179 294 q 177 230 176 264 q 205 132 178 168 q 281 92 231 95 q 441 290 406 86 l 462 410 q 298 535 353 441 q 252 755 243 628 l 254 766 q 323 939 263 871 q 473 1003 383 1006 q 599 931 557 1000 q 631 749 642 863 l 591 510 l 662 526 l 656 425 m 368 754 q 389 606 363 663 q 474 521 416 549 l 513 750 l 516 791 q 462 896 522 895 q 399 863 423 897 q 369 766 376 829 l 368 754 z "},"ϒ":{"ha":633,"x_min":89,"x_max":730,"o":"m 335 543 l 509 871 q 575 970 541 942 q 654 998 609 999 q 730 979 691 998 l 700 876 q 675 882 688 882 q 630 850 648 882 l 370 382 l 304 0 l 183 0 l 252 399 l 162 827 l 158 846 q 127 878 151 877 q 100 873 120 879 l 89 977 q 155 994 123 994 q 225 964 197 993 q 270 868 252 936 l 335 543 z "},"ϖ":{"ha":921,"x_min":68,"x_max":931,"o":"m 911 630 l 840 631 q 779 161 846 341 q 577 -14 711 -18 q 472 31 513 -13 q 421 144 430 75 q 332 20 380 58 q 222 -15 283 -17 q 111 47 150 -13 q 68 224 71 107 l 68 270 q 159 631 74 476 l 94 631 l 113 734 l 931 734 l 911 630 m 722 507 q 718 630 722 568 l 284 631 q 203 416 224 514 q 182 217 182 319 q 195 125 180 161 q 237 87 209 90 q 383 288 349 79 l 414 490 l 533 490 l 506 319 q 500 231 500 272 q 582 87 500 89 q 659 144 628 85 q 706 320 690 203 q 722 507 721 437 z "},"Ђ":{"ha":884,"x_min":115,"x_max":814,"o":"m 742 880 l 464 880 l 406 573 q 556 603 492 604 q 749 519 683 602 q 803 299 814 437 q 706 75 791 156 q 478 -10 621 -6 l 485 94 q 673 258 637 98 q 680 371 686 317 q 641 457 673 427 q 549 490 608 488 q 394 463 488 492 l 311 0 l 189 0 l 341 880 l 115 880 l 134 987 l 761 987 l 742 880 z "},"Є":{"ha":802,"x_min":80,"x_max":754,"o":"m 686 314 q 563 70 656 158 q 336 -14 469 -18 q 196 33 254 -12 q 109 161 138 78 q 81 346 80 245 q 105 563 81 429 q 184 798 129 697 q 501 1001 300 1005 q 686 912 621 998 q 754 669 752 827 l 633 669 l 629 740 q 494 895 614 889 q 327 816 395 897 q 221 551 260 735 l 533 551 l 514 445 l 212 448 l 210 441 q 197 302 195 373 q 239 147 201 200 q 343 92 278 94 q 479 139 425 89 q 566 313 534 189 l 686 314 z "},"Љ":{"ha":1251,"x_min":-28,"x_max":1179,"o":"m 757 604 l 939 603 q 1073 562 1018 600 q 1153 457 1128 524 q 1171 307 1179 391 q 1075 87 1159 173 q 864 0 990 2 l 530 0 l 683 880 l 412 880 l 336 507 l 315 393 q 203 94 276 184 q 18 0 131 3 l -28 0 l -16 106 l 5 106 q 133 188 83 111 q 208 444 182 264 l 220 525 l 314 987 l 823 987 l 757 604 m 739 497 l 671 106 l 855 105 q 964 142 917 106 q 1035 244 1012 178 q 1051 374 1058 310 q 1016 462 1045 431 q 937 496 986 494 l 739 497 z "},"Њ":{"ha":1256,"x_min":38,"x_max":1182,"o":"m 257 559 l 631 559 l 705 987 l 827 987 l 755 574 l 939 573 q 1119 492 1057 569 q 1173 296 1182 416 q 1123 140 1165 209 q 1010 35 1080 72 q 855 0 940 -2 l 534 0 l 612 453 l 239 453 l 160 0 l 38 0 l 210 987 l 332 987 l 257 559 m 736 467 l 675 113 l 860 111 q 990 163 938 113 q 1052 298 1042 214 q 1030 417 1061 370 q 936 467 1000 463 l 736 467 z "},"Ћ":{"ha":958,"x_min":131,"x_max":837,"o":"m 756 880 l 471 880 l 417 589 q 593 612 502 614 q 779 532 720 610 q 822 309 837 454 l 771 0 l 649 0 l 699 309 q 703 382 703 347 q 587 506 701 503 q 406 482 512 508 l 319 0 l 197 0 l 349 880 l 131 880 l 150 987 l 775 987 l 756 880 z "},"Џ":{"ha":844,"x_min":38,"x_max":826,"o":"m 209 987 l 331 987 l 178 106 l 551 106 l 705 987 l 826 987 l 655 0 l 412 0 l 370 -243 l 247 -243 l 289 0 l 38 0 l 209 987 z "},"Б":{"ha":747,"x_min":28,"x_max":699,"o":"m 680 880 l 303 880 l 252 585 l 435 583 q 616 503 553 579 q 669 300 680 427 q 571 82 659 167 q 351 0 484 -2 l 28 0 l 199 987 l 699 987 l 680 880 m 233 477 l 169 106 l 353 105 q 462 140 416 106 q 532 238 509 175 q 548 366 555 302 q 432 477 534 471 l 233 477 z "},"Д":{"ha":896,"x_min":-76,"x_max":834,"o":"m 682 106 l 794 106 l 732 -242 l 610 -242 l 653 0 l 88 0 l 45 -243 l -76 -243 l -16 106 l 50 105 q 227 469 170 217 l 338 987 l 834 987 l 682 106 m 181 104 l 559 106 l 694 880 l 438 880 l 351 481 q 181 104 294 234 z "},"Ж":{"ha":1072,"x_min":-45,"x_max":1130,"o":"m 695 450 l 609 450 l 530 0 l 409 0 l 487 450 l 402 450 l 113 0 l -45 0 l 315 531 l 154 987 l 290 987 l 414 559 l 505 559 l 580 987 l 702 987 l 627 559 l 707 559 l 981 987 l 1130 987 l 801 518 l 972 0 l 829 0 l 695 450 z "},"З":{"ha":704,"x_min":28,"x_max":696,"o":"m 372 555 q 504 602 454 557 q 563 728 553 648 q 535 848 572 802 q 429 895 498 894 q 312 850 361 897 q 249 728 262 804 l 130 728 q 228 927 142 850 q 436 1002 315 1004 q 628 924 559 999 q 685 726 696 850 q 635 598 679 655 q 517 503 592 542 q 598 416 572 473 q 618 281 625 359 q 566 125 612 193 q 446 20 521 56 q 283 -14 371 -16 q 95 69 163 -11 q 35 274 28 149 l 155 274 q 187 144 151 194 q 290 92 224 94 q 430 143 372 90 q 498 278 489 196 q 474 403 507 360 q 368 449 440 446 l 270 450 l 289 557 l 372 555 z "},"И":{"ha":841,"x_min":37,"x_max":825,"o":"m 699 987 l 825 987 l 653 0 l 532 0 l 663 752 l 163 0 l 37 0 l 209 987 l 331 987 l 200 235 l 699 987 z "},"Л":{"ha":836,"x_min":-26,"x_max":821,"o":"m 821 987 l 649 0 l 527 0 l 680 880 l 413 880 l 336 503 l 313 378 q 199 87 273 177 q 8 0 126 -3 l -26 0 l -14 106 l 6 106 q 126 176 78 111 q 200 387 174 241 l 221 525 l 315 987 l 821 987 z "},"У":{"ha":745,"x_min":96,"x_max":795,"o":"m 382 435 l 650 987 l 795 987 l 359 125 l 340 94 q 158 -17 274 -17 q 96 -11 131 -17 l 106 94 l 160 90 q 250 157 218 91 l 299 263 l 163 987 l 294 987 l 382 435 z "},"Ф":{"ha":918,"x_min":71,"x_max":888,"o":"m 604 887 l 614 887 q 798 802 727 884 q 879 587 869 719 q 839 349 888 465 q 700 163 791 232 q 498 92 610 94 l 473 92 l 446 -41 l 329 -41 l 356 93 l 343 93 q 160 177 231 96 q 79 395 90 259 q 120 634 71 517 q 258 819 169 751 q 456 888 348 886 l 486 888 l 515 1028 l 628 1028 l 604 887 m 192 422 q 230 259 190 318 q 347 196 270 201 l 367 195 l 475 787 l 456 787 q 319 738 379 786 q 227 606 259 690 q 192 422 194 521 m 593 786 l 486 194 q 600 217 555 194 q 727 363 683 260 q 765 592 770 467 q 722 730 762 680 q 610 785 682 781 l 593 786 z "},"Ц":{"ha":868,"x_min":39,"x_max":826,"o":"m 210 987 l 332 987 l 179 106 l 552 106 l 705 987 l 826 987 l 674 109 l 761 109 l 689 -238 l 580 -238 l 621 0 l 39 0 l 210 987 z "},"Ч":{"ha":816,"x_min":134,"x_max":810,"o":"m 810 987 l 638 0 l 516 0 l 591 409 q 378 374 489 372 q 193 455 252 376 q 150 679 134 534 l 201 987 l 323 987 l 272 678 q 269 606 268 641 q 385 482 271 486 q 603 515 475 480 l 688 987 l 810 987 z "},"Ш":{"ha":1104,"x_min":39,"x_max":1090,"o":"m 332 987 l 179 106 l 437 106 l 591 987 l 711 987 l 558 106 l 815 106 l 968 987 l 1090 987 l 919 0 l 39 0 l 210 987 l 332 987 z "},"Щ":{"ha":1141,"x_min":38,"x_max":1090,"o":"m 332 987 l 179 106 l 437 106 l 591 987 l 711 987 l 558 106 l 815 106 l 968 987 l 1090 987 l 937 102 l 1020 102 l 949 -238 l 845 -238 l 886 0 l 38 0 l 210 987 l 332 987 z "},"Ъ":{"ha":885,"x_min":110,"x_max":817,"o":"m 128 987 l 460 987 l 391 585 l 574 584 q 754 504 690 580 q 807 300 817 427 q 708 82 796 166 q 489 0 621 -3 l 167 0 l 320 884 l 110 884 l 128 987 m 372 477 l 308 106 l 492 105 q 632 171 578 106 q 687 334 686 235 l 686 366 q 650 445 680 415 q 571 477 621 474 l 372 477 z "},"Ы":{"ha":1025,"x_min":39,"x_max":1004,"o":"m 262 585 l 445 583 q 627 503 564 579 q 680 300 690 427 q 581 82 669 167 q 361 0 494 -2 l 39 0 l 211 987 l 332 987 l 262 585 m 243 477 l 179 106 l 363 105 q 472 140 426 106 q 542 238 519 175 q 558 366 566 302 q 442 477 544 471 l 243 477 m 833 0 l 711 0 l 883 987 l 1004 987 l 833 0 z "},"Ь":{"ha":749,"x_min":29,"x_max":680,"o":"m 252 585 l 435 583 q 616 503 553 579 q 669 300 680 427 q 571 82 659 167 q 351 0 484 -2 l 29 0 l 201 987 l 321 987 l 252 585 m 233 477 l 169 106 l 353 105 q 462 140 416 106 q 532 238 509 175 q 548 366 555 302 q 432 477 534 471 l 233 477 z "},"Э":{"ha":802,"x_min":78,"x_max":751,"o":"m 200 314 q 239 143 202 193 q 349 92 275 94 q 592 357 521 87 l 612 439 l 297 439 l 316 546 l 623 546 q 632 689 635 623 q 478 895 621 890 q 349 845 402 899 q 266 671 296 792 l 144 670 q 263 915 173 825 q 485 1002 354 1005 q 629 956 568 1000 q 721 828 690 911 q 751 643 751 744 q 728 424 751 560 q 646 184 704 287 q 342 -14 534 -18 q 149 76 218 -10 q 78 314 79 161 l 200 314 z "},"Ю":{"ha":1038,"x_min":38,"x_max":1016,"o":"m 598 -14 q 405 75 475 -11 q 334 309 336 160 q 342 432 333 361 l 234 432 l 159 0 l 38 0 l 210 987 l 331 987 l 252 534 l 359 534 l 365 575 q 496 891 396 778 q 751 1001 597 1004 q 935 924 867 998 q 1014 714 1003 850 l 1016 677 q 1010 578 1016 627 l 981 391 q 848 88 946 193 q 598 -14 749 -17 m 889 581 l 895 647 q 863 826 902 766 q 744 890 825 887 q 578 818 643 893 q 488 593 513 742 l 458 397 l 454 342 q 486 162 447 226 q 606 96 525 99 q 857 374 804 90 l 889 581 z "},"Я":{"ha":764,"x_min":-12,"x_max":743,"o":"m 450 0 l 517 385 l 355 385 l 123 0 l -12 0 l 254 425 q 164 530 193 463 q 142 684 135 598 q 244 906 155 823 q 473 988 334 988 l 743 987 l 572 0 l 450 0 m 264 616 q 303 527 271 559 q 390 492 336 494 l 535 491 l 603 880 l 469 882 q 353 847 403 882 q 279 749 302 812 q 264 616 255 686 z "},"б":{"ha":659,"x_min":54,"x_max":665,"o":"m 392 692 q 538 620 485 689 q 597 435 592 551 q 594 345 599 400 q 538 155 583 241 q 427 26 493 68 q 281 -14 360 -16 q 120 63 180 -12 q 56 263 60 138 q 58 344 54 304 l 60 364 l 63 389 q 176 764 90 623 q 404 941 261 905 l 464 956 q 568 1053 551 981 l 665 1053 q 634 948 658 989 q 567 881 610 907 q 436 836 524 856 q 289 757 348 816 q 186 586 229 699 q 392 692 285 694 m 361 589 q 233 522 283 591 q 174 328 182 452 l 172 294 l 172 256 q 288 87 180 90 q 411 151 361 84 q 477 345 460 217 l 481 408 q 450 542 481 496 q 361 589 418 588 z "},"в":{"ha":685,"x_min":26,"x_max":615,"o":"m 26 0 l 154 734 l 385 733 q 556 679 498 730 q 608 538 615 628 q 481 375 602 432 q 552 315 528 357 q 573 214 576 272 q 497 56 567 113 q 312 0 427 -1 l 26 0 m 199 322 l 161 101 l 314 100 q 413 133 377 102 q 457 217 450 163 q 440 293 464 267 q 367 321 416 319 l 199 322 m 216 422 l 332 422 q 443 450 401 422 q 492 530 485 478 q 472 603 498 576 q 383 631 445 629 l 253 632 l 216 422 z "},"г":{"ha":507,"x_min":25,"x_max":536,"o":"m 517 630 l 252 630 l 143 0 l 25 0 l 153 734 l 536 734 l 517 630 z "},"д":{"ha":729,"x_min":-71,"x_max":650,"o":"m 31 101 q 128 238 90 163 q 189 417 166 313 l 252 734 l 650 734 l 541 102 l 623 102 l 568 -216 l 451 -216 l 488 0 l 85 0 l 47 -216 l -71 -216 l -19 102 l 31 101 m 161 100 l 424 102 l 513 618 l 346 618 l 307 421 l 294 365 q 161 100 254 200 z "},"ж":{"ha":899,"x_min":-50,"x_max":909,"o":"m 558 319 l 488 319 l 433 0 l 316 0 l 372 319 l 308 319 l 104 0 l -50 0 l 226 389 l 102 734 l 236 734 l 321 430 l 391 430 l 444 734 l 560 734 l 507 430 l 568 430 l 761 734 l 909 734 l 655 375 l 791 0 l 651 0 l 558 319 z "},"з":{"ha":608,"x_min":25,"x_max":554,"o":"m 547 540 q 427 374 538 435 q 489 305 471 349 q 503 212 506 261 q 422 46 496 109 q 241 -13 349 -16 q 83 53 140 -10 q 29 218 25 117 l 144 217 q 169 125 141 161 q 248 87 197 89 q 341 121 302 86 q 387 212 380 157 q 303 321 400 317 l 188 321 l 207 427 l 307 427 q 391 456 359 428 q 429 538 423 485 q 411 616 435 585 q 342 647 388 647 q 256 614 292 647 q 210 530 220 581 l 94 529 q 175 688 104 627 q 348 747 246 749 q 500 688 447 745 q 547 540 554 631 z "},"и":{"ha":693,"x_min":26,"x_max":645,"o":"m 525 734 l 645 734 l 517 0 l 401 0 l 492 526 l 147 0 l 26 0 l 154 734 l 271 734 l 179 208 l 525 734 z "},"к":{"ha":654,"x_min":27,"x_max":667,"o":"m 268 313 l 199 313 l 144 0 l 27 0 l 155 734 l 272 734 l 218 423 l 271 423 l 519 734 l 667 734 l 363 378 l 548 0 l 410 0 l 268 313 z "},"л":{"ha":694,"x_min":-30,"x_max":646,"o":"m 646 734 l 519 0 l 401 0 l 511 630 l 325 630 l 271 379 l 252 281 q 161 64 221 132 q 9 0 100 -3 l -30 0 l -17 110 l 5 111 q 102 174 65 115 q 159 374 140 232 l 164 410 l 230 734 l 646 734 z "},"м":{"ha":877,"x_min":26,"x_max":829,"o":"m 392 168 l 681 734 l 829 734 l 702 0 l 585 0 l 671 496 l 409 0 l 328 0 l 235 524 l 143 0 l 26 0 l 154 734 l 302 734 l 392 168 z "},"н":{"ha":692,"x_min":26,"x_max":644,"o":"m 517 0 l 400 0 l 454 313 l 199 313 l 144 0 l 26 0 l 154 734 l 272 734 l 216 416 l 472 416 l 528 734 l 644 734 l 517 0 z "},"п":{"ha":693,"x_min":26,"x_max":645,"o":"m 517 0 l 401 0 l 510 630 l 254 630 l 144 0 l 26 0 l 154 734 l 645 734 l 517 0 z "},"т":{"ha":579,"x_min":74,"x_max":594,"o":"m 576 632 l 382 632 l 273 0 l 156 0 l 266 632 l 74 632 l 92 734 l 594 734 l 576 632 z "},"ф":{"ha":854,"x_min":50,"x_max":789,"o":"m 336 749 q 414 732 373 747 l 473 1042 l 590 1042 l 530 728 q 614 746 572 747 q 747 662 704 745 q 781 427 789 579 l 775 355 q 722 146 758 223 q 504 -16 646 -20 q 414 4 458 -16 l 360 -282 l 243 -282 l 296 0 q 222 -13 253 -13 q 94 60 138 -13 q 54 267 50 133 l 58 334 l 64 374 q 161 658 92 564 q 336 749 231 751 m 667 463 q 574 643 671 639 q 522 634 554 644 l 425 95 q 474 86 448 87 q 593 150 546 85 q 656 343 640 214 l 665 420 l 667 463 m 176 335 q 169 241 169 275 q 190 129 167 167 q 258 90 214 91 q 306 96 274 89 l 404 637 q 361 646 378 645 q 240 574 287 649 q 178 349 194 500 l 176 335 z "},"ц":{"ha":713,"x_min":26,"x_max":645,"o":"m 154 734 l 272 734 l 162 102 l 418 102 l 528 734 l 645 734 l 535 102 l 610 102 l 543 -218 l 439 -218 l 477 0 l 26 0 l 154 734 z "},"ч":{"ha":653,"x_min":85,"x_max":614,"o":"m 486 0 l 368 0 l 418 264 q 290 245 353 244 q 136 322 186 248 q 98 520 85 397 l 132 734 l 250 734 l 216 519 l 212 465 q 232 382 211 413 q 296 349 254 351 q 429 367 350 347 l 496 734 l 614 734 l 486 0 z "},"ш":{"ha":955,"x_min":26,"x_max":906,"o":"m 272 734 l 162 102 l 362 102 l 471 734 l 589 734 l 479 102 l 679 102 l 789 734 l 906 734 l 779 0 l 26 0 l 154 734 l 272 734 z "},"щ":{"ha":980,"x_min":19,"x_max":899,"o":"m 264 734 l 155 102 l 355 102 l 465 734 l 581 734 l 471 102 l 672 102 l 781 734 l 899 734 l 789 102 l 878 102 l 811 -218 l 706 -218 l 745 0 l 19 0 l 146 734 l 264 734 z "},"ъ":{"ha":732,"x_min":67,"x_max":665,"o":"m 85 734 l 374 734 l 330 481 l 467 479 q 613 413 561 477 q 658 248 665 350 q 580 69 650 138 q 399 0 510 0 l 130 0 l 240 631 l 67 631 l 85 734 m 313 378 l 264 102 l 403 101 q 508 156 469 102 q 542 289 547 209 q 520 351 540 327 q 465 378 500 375 l 313 378 z "},"ы":{"ha":922,"x_min":26,"x_max":857,"o":"m 227 481 l 361 479 q 471 447 426 477 q 537 366 516 418 q 554 248 559 314 q 474 68 546 136 q 297 0 403 -1 l 26 0 l 154 734 l 271 734 l 227 481 m 209 378 l 161 102 l 298 101 q 404 156 366 102 q 438 289 443 209 q 416 351 436 327 q 361 378 396 375 l 209 378 m 730 0 l 612 0 l 740 734 l 857 734 l 730 0 z "},"ь":{"ha":651,"x_min":26,"x_max":559,"o":"m 227 481 l 361 479 q 471 447 426 477 q 537 366 516 418 q 554 248 559 314 q 474 68 546 136 q 297 0 403 -1 l 26 0 l 154 734 l 271 734 l 227 481 m 209 378 l 161 102 l 298 101 q 404 156 366 102 q 438 289 443 209 q 416 351 436 327 q 361 378 396 375 l 209 378 z "},"э":{"ha":643,"x_min":35,"x_max":568,"o":"m 345 645 q 252 606 292 646 q 199 501 212 566 l 88 500 q 176 676 100 602 q 351 748 253 751 q 544 591 494 744 q 566 462 564 531 q 525 216 568 330 q 410 43 482 102 q 245 -14 337 -17 q 90 66 146 -11 q 42 252 35 143 l 153 252 q 175 135 148 181 q 252 87 201 90 q 431 288 372 82 l 441 322 l 229 322 l 248 425 l 450 425 l 452 468 l 450 498 q 345 645 438 642 z "},"ю":{"ha":958,"x_min":26,"x_max":892,"o":"m 216 422 l 344 422 q 468 665 385 579 q 665 748 551 751 q 827 667 767 745 q 890 458 886 589 q 888 376 892 415 q 775 87 864 192 q 559 -14 686 -17 q 429 33 482 -12 q 351 154 376 78 q 335 320 326 231 l 199 319 l 143 0 l 26 0 l 154 734 l 271 734 l 216 422 m 450 304 q 475 147 446 203 q 566 87 504 90 q 698 160 645 84 q 768 360 751 235 l 769 375 l 773 425 q 748 585 778 527 q 657 645 719 642 q 523 569 576 648 q 453 349 469 490 l 450 304 z "},"я":{"ha":656,"x_min":-45,"x_max":609,"o":"m 609 734 l 482 0 l 364 0 l 414 286 l 281 286 l 88 0 l -45 0 l 168 309 q 100 388 122 337 q 83 505 78 439 q 164 672 91 610 q 345 734 238 734 l 609 734 m 199 462 q 224 410 204 429 q 276 389 244 391 l 432 389 l 475 632 l 343 633 q 262 607 298 631 q 210 542 226 583 q 199 462 194 500 z "},"ђ":{"ha":657,"x_min":16,"x_max":577,"o":"m 429 820 l 276 820 l 241 659 q 420 747 322 749 q 536 693 495 746 q 577 542 577 640 l 574 481 l 487 -60 q 415 -238 472 -175 q 271 -298 359 -300 q 203 -284 245 -297 l 223 -185 q 278 -196 254 -196 q 370 -60 350 -196 l 458 483 l 461 536 q 376 642 461 640 q 243 560 305 644 l 225 534 l 133 0 l 16 0 l 158 820 l 71 820 l 90 923 l 176 923 l 197 1042 l 314 1042 l 293 923 l 447 923 l 429 820 z "},"є":{"ha":643,"x_min":57,"x_max":599,"o":"m 286 87 q 381 125 340 86 q 439 231 422 164 l 549 231 q 456 55 534 127 q 280 -14 379 -17 q 162 22 213 -14 q 86 122 112 57 q 59 269 60 187 q 99 517 57 404 q 215 690 141 630 q 387 747 290 750 q 543 670 486 745 q 595 481 599 596 l 486 481 q 458 602 486 560 q 380 645 431 643 q 266 596 313 648 q 185 418 218 545 l 395 418 l 376 315 l 175 315 l 172 268 q 198 136 170 184 q 286 87 227 89 z "},"љ":{"ha":990,"x_min":-32,"x_max":909,"o":"m 574 454 l 709 453 q 856 392 802 450 q 904 235 909 334 q 827 66 896 130 q 655 0 758 1 l 378 0 l 487 630 l 322 630 l 269 379 l 256 305 q 166 73 224 144 q 16 0 108 2 l -32 0 l -19 110 l 3 111 q 100 174 63 115 q 156 366 138 232 l 164 420 l 228 734 l 623 734 l 574 454 m 556 351 l 513 101 l 650 100 q 741 138 704 102 q 787 236 779 175 q 787 279 790 258 q 763 330 783 311 q 708 351 742 349 l 556 351 z "},"њ":{"ha":1008,"x_min":26,"x_max":931,"o":"m 224 456 l 479 456 l 528 734 l 644 734 l 595 454 l 732 453 q 879 390 827 449 q 926 235 931 331 q 849 66 919 131 q 677 0 780 1 l 400 0 l 462 354 l 206 354 l 144 0 l 26 0 l 154 734 l 272 734 l 224 456 m 578 351 l 534 101 l 672 100 q 779 156 739 102 q 809 279 818 211 q 784 330 805 311 q 730 351 764 349 l 578 351 z "},"ћ":{"ha":679,"x_min":16,"x_max":579,"o":"m 444 823 l 273 823 l 241 658 q 420 747 323 749 q 531 700 490 746 q 576 572 571 654 q 574 481 579 526 l 494 0 l 378 0 l 458 483 l 461 536 q 376 642 461 640 q 245 563 306 644 l 225 534 l 133 0 l 16 0 l 159 823 l 86 823 l 104 926 l 176 926 l 197 1042 l 314 1042 l 292 926 l 462 926 l 444 823 z "},"џ":{"ha":693,"x_min":26,"x_max":645,"o":"m 272 734 l 162 102 l 418 102 l 528 734 l 645 734 l 517 0 l 332 0 l 290 -241 l 174 -241 l 216 0 l 26 0 l 154 734 l 272 734 z "},"Ѡ":{"ha":1024,"x_min":70,"x_max":1038,"o":"m 1038 987 l 914 270 q 821 58 895 133 q 640 -14 748 -18 q 538 16 583 -12 q 474 98 494 44 q 270 -14 392 -17 q 120 67 171 -12 q 83 269 70 146 l 205 987 l 327 987 l 206 269 l 203 216 q 222 127 202 161 q 281 92 243 93 q 384 137 343 88 q 436 269 425 186 l 558 987 l 684 987 l 563 269 l 561 213 q 585 126 562 159 q 650 92 608 93 q 744 136 706 90 q 794 269 782 182 l 916 987 l 1038 987 z "},"ѡ":{"ha":883,"x_min":47,"x_max":869,"o":"m 869 734 l 787 240 q 705 50 770 118 q 542 -15 640 -18 q 456 10 493 -14 q 400 79 418 33 q 225 -15 327 -18 q 93 57 138 -14 q 60 239 47 127 l 142 734 l 260 734 l 177 239 l 174 196 q 235 87 172 91 q 320 126 286 84 q 364 239 355 168 l 448 734 l 565 734 l 482 239 l 481 193 q 499 116 481 144 q 553 87 518 88 q 628 124 597 85 q 670 239 659 163 l 753 734 l 869 734 z "},"ѣ":{"ha":650,"x_min":25,"x_max":564,"o":"m 446 734 l 270 734 l 230 506 l 366 505 q 512 435 460 500 q 556 261 564 369 q 474 71 547 144 q 294 0 401 -3 l 25 0 l 153 734 l 48 734 l 66 836 l 170 836 l 209 1057 l 326 1057 l 288 836 l 465 836 l 446 734 m 212 403 l 160 102 l 297 101 q 402 158 363 102 q 439 304 442 214 q 419 373 438 346 q 363 402 399 399 l 212 403 z "},"Ѥ":{"ha":1048,"x_min":37,"x_max":1002,"o":"m 258 564 l 349 564 q 500 893 399 781 q 749 1002 602 1005 q 936 911 870 998 q 1002 670 1002 825 l 882 670 q 845 842 880 792 q 743 895 810 892 q 576 817 644 899 q 472 564 509 734 l 778 564 l 760 462 l 462 463 q 448 304 446 371 q 487 150 450 205 q 591 93 524 95 q 726 138 672 90 q 815 313 781 187 l 936 314 q 811 70 905 157 q 585 -14 718 -17 q 444 34 503 -12 q 355 164 385 80 q 328 347 326 248 q 340 463 329 398 l 239 462 l 159 0 l 37 0 l 209 987 l 331 987 l 258 564 z "},"ѥ":{"ha":878,"x_min":24,"x_max":831,"o":"m 214 417 l 302 417 q 425 668 345 585 q 621 747 505 751 q 774 672 718 745 q 830 481 831 600 l 720 481 q 694 599 722 555 q 614 645 666 643 q 437 477 492 650 l 419 417 l 659 417 l 640 315 l 409 315 q 406 243 406 282 q 437 131 408 173 q 521 87 466 89 q 616 126 576 86 q 673 231 657 166 l 783 231 q 690 55 768 127 q 514 -14 613 -17 q 348 71 408 -12 q 292 286 287 155 l 294 315 l 197 315 l 142 0 l 24 0 l 151 734 l 269 734 l 214 417 z "},"Ѧ":{"ha":716,"x_min":-37,"x_max":640,"o":"m 489 297 l 412 297 l 360 0 l 241 0 l 294 297 l 226 297 l 92 0 l -37 0 l 422 987 l 529 987 l 640 0 l 520 0 l 489 297 m 276 408 l 478 408 l 442 774 l 276 408 z "},"ѧ":{"ha":640,"x_min":-54,"x_max":532,"o":"m 391 201 l 335 201 l 300 0 l 184 0 l 219 201 l 168 201 l 70 0 l -54 0 l 315 734 l 415 734 l 532 0 l 420 0 l 391 201 m 218 304 l 373 304 l 342 518 l 341 564 l 322 517 l 218 304 z "},"Ѩ":{"ha":1030,"x_min":47,"x_max":932,"o":"m 241 408 l 445 408 l 715 987 l 821 987 l 932 0 l 812 0 l 782 297 l 704 297 l 652 0 l 534 0 l 585 297 l 518 297 l 383 0 l 255 0 l 394 298 l 222 298 l 170 0 l 47 0 l 219 987 l 342 987 l 241 408 m 568 408 l 771 408 l 735 776 l 568 408 z "},"ѩ":{"ha":889,"x_min":43,"x_max":779,"o":"m 214 304 l 346 304 l 562 734 l 663 734 l 779 0 l 665 0 l 635 201 l 583 201 l 547 0 l 430 0 l 466 201 l 415 201 l 317 0 l 193 0 l 294 201 l 196 201 l 161 0 l 43 0 l 171 734 l 288 734 l 214 304 m 465 304 l 620 304 l 589 518 l 589 564 l 570 518 l 465 304 z "},"Ѫ":{"ha":1013,"x_min":21,"x_max":947,"o":"m 654 547 l 668 547 q 837 475 778 547 q 888 275 895 404 l 886 250 l 845 0 l 723 0 l 764 251 q 768 322 768 288 q 655 441 766 435 l 589 444 l 570 418 l 496 0 l 374 0 l 452 431 l 450 442 l 380 444 q 250 402 298 445 q 185 262 202 359 l 142 0 l 21 0 l 62 250 q 165 476 84 401 q 386 550 245 550 l 409 550 l 273 987 l 947 986 l 654 547 m 532 560 l 739 880 l 436 880 l 532 560 z "},"ѫ":{"ha":877,"x_min":23,"x_max":768,"o":"m 549 407 q 672 349 627 400 q 724 214 718 298 q 722 111 728 163 l 705 0 l 588 0 l 605 112 l 610 178 q 513 307 615 301 l 486 307 l 477 294 l 425 0 l 308 0 l 366 303 l 364 309 l 332 309 q 217 265 259 309 q 158 115 174 221 l 140 0 l 23 0 l 42 125 q 134 334 64 265 q 326 410 204 404 l 231 734 l 768 734 l 549 407 m 438 425 l 567 631 l 382 631 l 438 425 z "},"Ѭ":{"ha":1329,"x_min":37,"x_max":1267,"o":"m 336 0 l 379 258 q 461 450 399 378 l 237 448 l 159 0 l 37 0 l 208 987 l 331 987 l 255 551 l 728 551 l 587 987 l 1267 987 l 969 547 l 972 548 q 1156 471 1095 551 q 1201 250 1217 391 l 1160 0 l 1038 0 l 1079 251 q 1082 322 1083 288 q 969 441 1080 435 l 904 444 l 885 416 l 811 0 l 690 0 l 767 429 l 764 442 l 695 444 q 565 401 612 444 q 500 263 517 359 l 458 0 l 336 0 m 846 560 l 1053 880 l 751 880 l 846 560 z "},"ѭ":{"ha":1160,"x_min":25,"x_max":1052,"o":"m 307 0 l 324 107 q 403 309 345 235 l 196 307 l 142 0 l 25 0 l 153 734 l 270 734 l 214 410 l 614 410 l 514 734 l 1052 734 l 832 407 q 957 349 911 399 q 1008 214 1002 298 q 1006 111 1013 163 l 989 0 l 871 0 l 888 112 l 894 178 q 796 307 899 301 l 770 307 l 761 293 l 708 0 l 591 0 l 649 303 l 648 309 l 609 309 q 497 262 538 307 q 442 116 457 217 l 425 0 l 307 0 m 722 425 l 850 631 l 666 631 l 722 425 z "},"Ѯ":{"ha":619,"x_min":-37,"x_max":642,"o":"m 260 557 q 392 603 341 558 q 452 729 442 648 q 425 845 460 804 q 340 884 395 882 l 166 884 l 184 987 l 342 987 q 514 910 451 983 q 568 726 577 838 q 517 599 562 656 q 395 505 473 542 q 479 419 452 477 q 501 281 507 361 q 408 67 491 148 q 199 -13 326 -13 l 174 -13 q 108 -34 135 -14 q 75 -94 81 -54 q 142 -216 64 -168 l 88 -298 q -4 -209 30 -265 q -33 -89 -37 -153 q 28 42 -30 -5 q 182 90 85 90 l 203 89 q 326 142 275 89 q 385 279 376 195 q 360 408 395 363 q 255 454 325 452 l 166 455 l 184 558 l 260 557 m 439 1192 l 540 1305 l 642 1308 l 642 1299 l 471 1114 l 402 1114 l 286 1298 l 286 1308 l 383 1306 l 439 1192 z "},"ѯ":{"ha":578,"x_min":-36,"x_max":564,"o":"m 237 418 q 349 448 307 418 q 399 532 392 478 q 376 603 404 577 q 298 629 349 628 l 122 630 l 140 734 l 300 733 q 460 674 399 730 q 515 530 521 618 q 379 366 508 429 q 450 304 426 344 q 470 212 473 264 q 390 47 464 109 q 203 -14 315 -14 l 175 -13 q 109 -34 136 -14 q 77 -94 82 -54 q 143 -216 66 -168 l 89 -298 q -2 -210 31 -265 q -33 -88 -36 -155 q 28 42 -30 -5 q 186 90 86 90 l 203 90 q 306 122 265 90 q 354 209 347 155 q 222 315 368 313 l 144 315 l 163 418 l 237 418 m 363 960 l 463 1074 l 564 1076 l 564 1067 l 394 882 l 325 882 l 209 1066 l 209 1076 l 307 1074 l 363 960 z "},"Ѳ":{"ha":806,"x_min":71,"x_max":750,"o":"m 334 -14 q 190 35 250 -12 q 100 170 130 81 q 72 361 71 258 l 75 420 q 144 734 88 601 q 289 935 201 867 q 487 1001 376 1004 q 632 952 572 999 q 721 820 692 906 q 749 626 750 734 q 726 421 747 534 q 661 218 705 308 q 561 75 618 129 q 334 -14 464 -18 m 480 890 q 316 812 385 894 q 206 538 248 730 l 623 538 q 631 681 634 618 q 480 890 621 883 m 341 96 q 505 173 437 92 q 611 436 572 253 l 195 436 l 190 372 q 222 174 183 248 q 341 96 260 100 z "},"ѳ":{"ha":677,"x_min":52,"x_max":611,"o":"m 58 369 q 118 568 71 477 q 233 705 165 659 q 384 748 301 750 q 546 667 486 745 q 610 458 606 589 q 607 376 611 415 l 605 361 q 494 87 583 193 q 278 -14 406 -18 q 160 23 210 -12 q 83 124 110 58 q 53 273 56 190 q 56 354 52 315 l 58 369 m 285 88 q 471 280 410 83 l 483 319 l 170 319 l 168 273 q 199 137 168 184 q 285 88 230 90 m 377 645 q 190 453 254 650 l 180 422 l 492 422 q 469 584 499 526 q 377 645 438 643 z "},"Ѵ":{"ha":752,"x_min":126,"x_max":804,"o":"m 313 250 l 317 172 l 574 802 l 600 867 q 770 1002 660 1002 l 804 1001 l 790 885 l 781 885 q 707 817 734 884 l 343 0 l 238 0 l 126 987 l 254 987 l 313 250 z "},"ѵ":{"ha":604,"x_min":98,"x_max":639,"o":"m 250 214 l 250 164 l 416 605 q 573 749 476 749 q 639 732 604 749 l 618 631 q 598 637 608 637 q 534 583 562 637 l 269 0 l 180 0 l 98 734 l 210 734 l 250 214 z "},"Ѻ":{"ha":806,"x_min":69,"x_max":753,"o":"m 394 -7 l 376 -96 l 258 -96 l 277 -7 q 122 119 175 20 q 75 372 69 218 q 91 530 77 438 q 134 701 105 622 q 444 996 229 958 l 461 1078 l 578 1076 l 561 993 q 753 670 742 937 l 753 613 l 749 555 q 634 163 724 303 q 394 -7 544 22 m 637 650 q 547 878 640 829 l 534 814 l 417 816 l 431 882 q 214 544 260 823 q 192 334 193 411 q 290 106 189 151 l 304 173 l 421 172 l 407 106 q 540 222 487 137 q 615 456 593 307 q 637 650 635 585 z "},"ѻ":{"ha":678,"x_min":50,"x_max":612,"o":"m 58 369 q 149 617 77 519 q 332 740 220 714 l 349 818 l 465 817 l 449 739 q 570 635 528 713 q 611 446 612 557 l 607 376 q 512 113 585 210 q 326 -7 439 17 l 311 -81 l 194 -80 l 210 -5 q 98 86 139 18 q 53 249 58 153 q 56 354 50 304 l 58 369 m 338 100 q 446 217 407 136 q 495 441 484 298 q 436 630 505 579 l 423 568 l 307 568 l 320 631 q 215 513 253 593 q 166 293 177 433 q 222 104 156 156 l 236 169 l 353 168 l 338 100 z "},"Ѽ":{"ha":1021,"x_min":75,"x_max":972,"o":"m 792 987 q 925 917 878 981 q 972 748 971 853 l 969 680 l 905 279 q 812 59 881 137 q 637 -15 743 -18 q 530 16 576 -14 q 464 96 484 46 q 262 -15 382 -18 q 127 50 175 -12 q 76 223 79 113 q 79 292 75 258 l 140 680 q 233 906 160 827 q 420 988 306 986 l 408 881 q 264 684 296 877 l 202 292 q 198 215 197 239 q 273 91 198 96 q 375 137 334 87 q 428 269 417 186 l 475 559 l 598 559 l 551 269 q 550 210 548 241 q 577 125 552 157 q 648 91 603 93 q 738 141 703 89 q 785 292 773 193 l 847 680 l 852 736 q 840 835 857 797 q 782 878 823 873 l 792 987 m 886 1185 l 879 1098 q 804 1107 827 1099 q 727 1142 781 1114 q 650 1179 674 1171 q 602 1186 626 1187 q 554 1165 573 1186 q 531 1111 536 1144 l 530 1098 l 451 1099 l 453 1122 q 497 1234 459 1194 q 597 1272 535 1274 q 652 1263 625 1272 q 727 1229 680 1254 q 803 1195 774 1204 q 859 1185 831 1186 l 886 1185 m 535 937 q 589 1036 581 995 l 602 1101 l 700 1101 l 690 1036 q 583 897 678 954 l 535 937 z "},"ѽ":{"ha":888,"x_min":54,"x_max":818,"o":"m 655 741 q 766 686 724 736 q 814 554 808 636 q 813 461 818 506 l 782 247 q 699 50 760 116 q 547 -15 637 -17 q 394 79 433 -12 q 219 -15 320 -18 q 100 45 142 -12 q 55 203 57 102 q 58 264 54 235 l 87 471 q 171 671 108 603 q 334 742 235 740 l 322 640 q 203 460 227 633 l 175 264 q 171 199 171 229 q 230 87 171 89 q 312 123 278 83 q 358 239 347 163 l 382 399 l 500 399 l 475 239 l 475 190 q 498 115 477 143 q 557 87 519 87 q 664 237 637 84 l 696 462 q 702 564 705 537 q 648 636 694 629 l 655 741 m 795 947 l 789 859 l 760 860 q 636 904 712 862 q 516 947 561 945 l 511 947 q 440 871 454 947 l 439 859 l 360 860 l 362 884 q 406 994 368 953 q 508 1034 444 1035 q 636 991 556 1034 q 767 947 716 948 l 795 947 m 446 692 q 499 792 490 748 l 511 856 l 610 855 l 601 787 q 498 650 589 707 l 446 692 z "},"Ѿ":{"ha":1024,"x_min":70,"x_max":1038,"o":"m 1038 987 l 914 270 q 821 57 895 133 q 640 -15 747 -18 q 538 15 582 -13 q 475 98 494 43 q 270 -14 392 -18 q 120 67 171 -12 q 83 269 70 146 l 205 987 l 327 987 l 206 269 l 203 216 l 204 194 q 281 91 212 96 q 384 137 342 87 q 436 269 425 186 l 558 987 l 684 987 l 563 269 l 561 213 q 585 126 562 159 q 650 92 608 93 q 744 136 706 90 q 794 269 782 182 l 916 987 l 1038 987 m 420 1145 l 433 1217 l 895 1217 l 882 1145 l 700 1145 l 685 1060 l 578 1060 l 594 1145 l 420 1145 z "},"ѿ":{"ha":883,"x_min":47,"x_max":869,"o":"m 869 734 l 787 240 q 705 50 770 118 q 542 -15 640 -18 q 456 10 493 -14 q 400 79 418 33 q 225 -15 327 -18 q 93 57 138 -14 q 60 239 47 127 l 142 734 l 260 734 l 177 239 l 174 196 q 235 87 172 91 q 320 126 286 84 q 364 239 355 168 l 448 734 l 565 734 l 483 239 l 481 193 q 499 116 481 144 q 553 87 518 88 q 628 124 597 85 q 670 239 659 163 l 753 734 l 869 734 m 310 915 l 323 987 l 784 987 l 773 915 l 590 915 l 574 828 l 468 828 l 484 915 l 310 915 z "},"Ҁ":{"ha":775,"x_min":71,"x_max":745,"o":"m 342 -258 l 221 -258 l 268 -8 q 122 106 174 16 q 72 327 71 197 q 78 413 72 374 l 102 570 q 178 803 123 701 q 309 954 233 904 q 477 1002 386 1004 q 676 909 606 999 q 734 671 745 819 l 612 671 q 586 834 623 774 q 470 896 549 894 q 314 813 379 899 q 224 570 249 727 l 201 422 q 194 284 191 350 q 231 148 197 198 q 324 94 264 97 l 403 92 l 342 -258 z "},"ҁ":{"ha":643,"x_min":54,"x_max":585,"o":"m 278 -259 l 161 -259 l 208 -6 q 93 95 132 20 q 56 283 54 171 q 62 380 56 313 q 120 573 75 484 q 232 706 166 662 q 377 748 298 750 q 530 670 475 745 q 579 480 585 595 l 469 481 q 448 596 475 549 q 370 645 421 643 q 230 551 283 648 q 170 292 178 453 l 170 250 q 269 90 174 96 l 338 88 l 278 -259 z "},"҂":{"ha":745,"x_min":34,"x_max":718,"o":"m 332 297 l 472 180 l 420 104 l 279 219 l 142 0 l 34 0 l 209 275 l 68 391 l 120 468 l 262 352 l 419 606 l 279 722 l 331 800 l 472 684 l 613 910 l 718 910 l 541 628 l 683 512 l 630 436 l 491 551 l 332 297 z "},"҃":{"ha":0,"x_min":-439,"x_max":9,"o":"m -320 892 l -336 807 l -439 808 l -411 966 l -108 966 l -95 1039 l 9 1038 l -17 892 l -320 892 z "},"҄":{"ha":0,"x_min":-408,"x_max":19,"o":"m -102 1055 q -12 1015 -43 1055 q 14 909 19 976 l 12 883 l -66 884 l -64 897 l -64 922 q -104 968 -64 966 q -158 961 -131 969 q -243 926 -184 953 q -327 891 -301 899 q -376 884 -352 884 l -408 884 l -399 969 q -325 976 -351 969 q -242 1011 -300 983 q -158 1046 -184 1038 q -102 1055 -131 1055 z "},"҅":{"ha":0,"x_min":-252,"x_max":-129,"o":"m -252 1024 l -237 1101 l -129 1101 l -147 998 l -129 921 l -178 882 l -252 1024 z "},"҆":{"ha":0,"x_min":-231,"x_max":-60,"o":"m -185 883 l -231 934 l -184 1013 l -170 1101 l -60 1101 l -73 1017 l -185 883 z "},"҈":{"ha":0,"x_min":-1004,"x_max":274,"o":"m -421 859 q -376 954 -414 920 q -276 987 -338 988 q -181 952 -216 987 q -145 858 -145 918 l -218 859 q -270 928 -215 928 q -346 860 -326 929 l -421 859 m -64 671 q -20 766 -58 731 q 79 800 18 800 q 175 764 139 800 q 211 670 211 728 l 138 671 q 85 740 141 740 q 12 672 30 741 l -64 671 m 0 330 q 44 423 5 388 q 144 458 82 458 q 239 423 203 457 q 274 329 274 389 l 201 330 q 150 399 205 399 q 74 331 94 399 l 0 330 m -190 -22 q -145 72 -184 37 q -47 106 -106 107 q 48 71 13 105 q 83 -23 83 37 l 11 -22 q -41 47 14 47 q -116 -21 -98 47 l -190 -22 m -604 -214 q -558 -120 -597 -154 q -458 -86 -520 -85 q -363 -122 -399 -87 q -328 -216 -328 -156 l -401 -215 q -452 -146 -397 -146 q -528 -214 -508 -144 l -604 -214 m -831 671 q -785 766 -824 732 q -685 800 -746 800 q -590 764 -625 798 q -554 670 -554 730 l -627 671 q -679 740 -624 740 q -754 672 -736 741 l -831 671 m -1004 330 q -960 424 -998 390 q -860 458 -922 458 q -765 423 -800 457 q -730 329 -730 389 l -802 330 q -854 399 -799 399 q -930 331 -911 399 l -1004 330 m -956 -22 q -911 72 -950 37 q -812 106 -872 107 q -716 71 -752 105 q -681 -23 -681 37 l -754 -22 q -806 47 -751 47 q -881 -21 -863 47 l -956 -22 z "},"҉":{"ha":0,"x_min":-988,"x_max":230,"o":"m -387 -39 l -378 -52 l -495 -280 l -564 -280 l -477 -41 l -387 -39 m -368 763 l -377 774 l -261 1002 l -193 1002 l -279 764 l -368 763 m 12 429 l 19 435 l 230 349 l 218 287 l 1 334 l 12 429 m -770 293 l -777 286 l -988 372 l -977 434 l -760 388 l -770 293 m -100 680 l -98 691 l 127 795 l 169 743 l -39 613 l -100 680 m -663 14 l -665 2 l -890 -102 l -932 -49 l -723 81 l -663 14 m -652 583 l -663 585 l -726 812 l -681 854 l -581 648 l -652 583 m -112 109 l -101 108 l -37 -119 l -84 -161 l -183 44 l -112 109 z "},"Ҋ":{"ha":905,"x_min":37,"x_max":825,"o":"m 699 987 l 825 987 l 653 0 l 532 0 l 663 752 l 163 0 l 37 0 l 209 987 l 331 987 l 200 235 l 699 987 m 779 1232 q 712 1098 770 1147 q 568 1050 654 1048 q 434 1101 484 1052 q 386 1233 385 1151 l 486 1232 q 568 1131 481 1133 q 644 1159 616 1130 q 680 1232 672 1187 l 779 1232 m 631 -243 l 560 -192 q 658 1 639 -95 l 675 103 l 795 103 l 781 12 q 631 -243 757 -143 z "},"ҋ":{"ha":749,"x_min":26,"x_max":663,"o":"m 525 734 l 645 734 l 517 0 l 401 0 l 492 526 l 147 0 l 26 0 l 154 734 l 271 734 l 179 208 l 525 734 m 663 1000 q 596 866 654 916 q 452 819 538 816 q 318 869 368 820 q 270 1001 269 919 l 370 1000 q 452 899 365 901 q 528 927 500 898 q 564 1000 556 956 l 663 1000 m 495 -243 l 425 -192 q 522 1 503 -95 l 540 103 l 660 103 l 646 12 q 495 -243 621 -143 z "},"ҍ":{"ha":650,"x_min":25,"x_max":564,"o":"m 473 884 l 296 884 l 230 506 l 366 505 q 512 435 460 500 q 556 261 564 369 q 474 71 547 144 q 294 0 401 -3 l 25 0 l 178 884 l 75 884 l 92 987 l 196 987 l 219 1118 l 336 1118 l 313 987 l 491 987 l 473 884 m 212 403 l 160 102 l 297 101 q 402 158 363 102 q 439 304 442 214 q 419 373 438 346 q 363 402 399 399 l 212 403 z "},"Ҏ":{"ha":758,"x_min":33,"x_max":755,"o":"m 222 387 l 154 0 l 33 0 l 203 987 l 501 987 q 688 902 621 983 q 743 691 755 821 q 653 484 730 568 l 711 384 l 637 319 l 577 422 q 414 387 503 387 l 222 387 m 587 591 q 618 689 613 644 q 621 758 624 724 q 583 845 615 812 q 498 880 551 877 l 307 880 l 240 493 l 416 493 q 517 516 467 494 l 469 601 l 545 664 l 587 591 z "},"ҏ":{"ha":675,"x_min":-33,"x_max":604,"o":"m 594 363 q 490 94 572 201 l 540 4 l 465 -60 l 419 22 q 304 -13 361 -14 q 149 60 205 -12 l 84 -282 l -33 -282 l 144 734 l 249 734 l 237 664 q 414 747 313 750 q 555 668 507 745 q 601 452 604 591 l 595 377 l 594 363 m 483 483 q 451 600 479 559 q 371 642 422 640 q 228 548 293 644 l 165 178 q 274 91 195 92 q 359 119 311 91 l 313 199 l 389 263 l 423 202 q 472 343 458 267 q 483 483 486 418 z "},"Ґ":{"ha":654,"x_min":28,"x_max":736,"o":"m 686 884 l 684 884 l 684 880 l 302 880 l 150 0 l 28 0 l 200 987 l 583 987 l 623 1215 l 736 1215 l 686 884 z "},"ґ":{"ha":541,"x_min":19,"x_max":570,"o":"m 514 630 l 247 630 l 137 0 l 19 0 l 146 734 l 415 734 l 453 948 l 570 948 l 514 630 z "},"Ҕ":{"ha":733,"x_min":38,"x_max":709,"o":"m 690 880 l 313 880 l 258 565 l 342 564 q 506 514 439 564 q 602 378 574 465 q 617 178 629 292 q 512 -99 597 -2 q 292 -197 428 -195 l 302 -98 q 486 96 443 -95 q 503 276 507 187 q 458 405 500 358 q 340 454 417 452 l 239 455 l 160 0 l 38 0 l 210 987 l 709 987 l 690 880 z "},"ҕ":{"ha":604,"x_min":19,"x_max":530,"o":"m 511 630 l 247 630 l 213 437 l 264 437 q 398 392 342 434 q 481 278 455 350 q 497 120 507 205 q 414 -80 486 8 q 237 -195 341 -168 l 214 -93 q 346 14 302 -63 q 380 192 389 91 q 343 289 374 254 q 258 327 311 324 l 194 328 l 137 0 l 19 0 l 146 734 l 530 734 l 511 630 z "},"Җ":{"ha":1130,"x_min":-45,"x_max":1130,"o":"m 695 450 l 609 450 l 530 0 l 409 0 l 487 450 l 402 450 l 113 0 l -45 0 l 315 531 l 154 987 l 290 987 l 414 559 l 505 559 l 580 987 l 702 987 l 627 559 l 707 559 l 981 987 l 1130 987 l 801 518 l 972 0 l 829 0 l 695 450 m 983 -243 l 865 -243 l 926 104 l 1044 104 l 983 -243 z "},"җ":{"ha":945,"x_min":-50,"x_max":909,"o":"m 558 319 l 488 319 l 433 0 l 316 0 l 372 319 l 308 319 l 104 0 l -50 0 l 226 389 l 102 734 l 236 734 l 321 430 l 391 430 l 444 734 l 560 734 l 507 430 l 568 430 l 761 734 l 909 734 l 655 375 l 791 0 l 651 0 l 558 319 m 790 -243 l 673 -243 l 734 104 l 851 104 l 790 -243 z "},"Қ":{"ha":839,"x_min":38,"x_max":829,"o":"m 331 444 l 237 444 l 159 0 l 38 0 l 210 987 l 331 987 l 255 552 l 324 552 l 669 987 l 829 987 l 436 503 l 671 0 l 532 0 l 331 444 m 657 -245 l 540 -245 l 601 102 l 718 102 l 657 -245 z "},"қ":{"ha":714,"x_min":27,"x_max":667,"o":"m 268 313 l 199 313 l 144 0 l 27 0 l 155 734 l 272 734 l 218 423 l 271 423 l 519 734 l 667 734 l 363 378 l 548 0 l 410 0 l 268 313 m 554 -243 l 437 -243 l 498 104 l 615 104 l 554 -243 z "},"Ҝ":{"ha":752,"x_min":29,"x_max":812,"o":"m 812 987 l 508 515 l 656 0 l 510 0 l 412 444 l 372 444 l 340 278 l 247 278 l 279 444 l 231 444 l 151 0 l 29 0 l 201 987 l 322 987 l 244 552 l 292 552 l 325 726 l 418 726 l 384 552 l 421 552 l 664 987 l 812 987 z "},"ҝ":{"ha":677,"x_min":26,"x_max":706,"o":"m 706 734 l 452 382 l 589 0 l 449 0 l 361 313 l 340 313 l 315 181 l 222 181 l 248 313 l 200 313 l 143 0 l 26 0 l 153 734 l 271 734 l 214 422 l 261 422 l 289 568 l 382 568 l 353 422 l 368 422 l 559 734 l 706 734 z "},"Ҡ":{"ha":964,"x_min":130,"x_max":1027,"o":"m 530 444 l 436 444 l 359 0 l 237 0 l 391 884 l 130 884 l 149 987 l 530 987 l 454 552 l 523 552 l 868 987 l 1027 987 l 635 503 l 870 0 l 730 0 l 530 444 z "},"ҡ":{"ha":825,"x_min":88,"x_max":849,"o":"m 450 313 l 380 313 l 326 0 l 208 0 l 317 630 l 88 630 l 106 734 l 454 734 l 399 423 l 452 423 l 701 734 l 849 734 l 545 377 l 730 0 l 592 0 l 450 313 z "},"Ң":{"ha":899,"x_min":33,"x_max":831,"o":"m 660 0 l 538 0 l 618 456 l 233 456 l 154 0 l 33 0 l 203 987 l 325 987 l 251 563 l 636 563 l 709 987 l 831 987 l 660 0 m 718 -243 l 600 -243 l 661 104 l 779 104 l 718 -243 z "},"ң":{"ha":736,"x_min":26,"x_max":644,"o":"m 517 0 l 400 0 l 454 313 l 199 313 l 144 0 l 26 0 l 154 734 l 272 734 l 216 416 l 472 416 l 528 734 l 644 734 l 517 0 m 575 -243 l 458 -243 l 519 104 l 636 104 l 575 -243 z "},"Ҥ":{"ha":1124,"x_min":33,"x_max":1165,"o":"m 252 563 l 636 563 l 709 987 l 1165 987 l 1147 884 l 814 884 l 660 0 l 538 0 l 618 456 l 234 456 l 154 0 l 33 0 l 203 987 l 326 987 l 252 563 z "},"ҥ":{"ha":835,"x_min":19,"x_max":831,"o":"m 210 416 l 465 416 l 520 734 l 831 734 l 812 630 l 619 630 l 509 0 l 393 0 l 448 313 l 192 313 l 137 0 l 19 0 l 146 734 l 264 734 l 210 416 z "},"Ҧ":{"ha":1194,"x_min":39,"x_max":1095,"o":"m 754 564 l 803 564 q 1022 457 948 561 q 1076 178 1095 353 q 971 -99 1056 -2 q 751 -197 887 -195 l 762 -98 q 945 96 902 -95 q 962 276 966 187 q 918 405 959 358 q 800 454 876 452 l 735 454 l 656 0 l 534 0 l 687 880 l 313 880 l 160 0 l 39 0 l 210 987 l 827 987 l 754 564 z "},"ҧ":{"ha":1025,"x_min":19,"x_max":932,"o":"m 586 437 l 671 437 q 864 343 796 433 q 918 120 932 254 q 834 -80 906 8 q 657 -195 762 -168 l 635 -93 q 768 18 726 -62 q 799 194 810 97 q 758 289 792 254 q 667 327 724 324 l 567 328 l 510 0 l 393 0 l 503 630 l 247 630 l 137 0 l 19 0 l 146 734 l 637 734 l 586 437 z "},"Ҩ":{"ha":871,"x_min":77,"x_max":847,"o":"m 747 -20 q 535 30 627 -16 q 354 -14 444 -15 q 165 76 236 -11 q 81 313 94 163 l 79 357 q 85 463 77 412 l 103 583 q 172 812 125 716 q 283 954 219 907 q 427 1003 348 1001 l 414 891 q 296 811 344 888 q 224 575 248 734 l 205 448 l 200 390 q 211 241 196 309 q 263 136 227 172 q 358 98 300 100 q 435 108 388 96 q 357 474 329 266 l 379 615 q 482 901 408 799 q 665 1000 557 1003 q 795 928 748 997 q 846 733 842 859 l 847 699 l 842 625 l 815 456 q 636 106 781 241 q 755 90 685 92 l 747 -20 m 478 472 q 473 390 473 431 q 552 165 471 250 q 696 468 665 269 l 724 661 l 728 721 q 654 890 732 886 q 505 644 543 895 l 478 472 z "},"ҩ":{"ha":720,"x_min":65,"x_max":652,"o":"m 606 -9 q 435 30 509 -6 q 283 -14 355 -15 q 132 64 188 -12 q 67 272 75 140 l 66 302 q 82 470 65 383 q 132 618 98 556 q 215 713 166 680 q 325 749 264 747 l 313 642 q 239 592 268 637 q 194 441 210 546 q 180 275 179 336 q 210 141 182 186 q 287 94 237 96 q 342 102 307 94 q 284 388 264 226 l 293 453 q 369 674 313 597 q 508 749 425 752 q 612 688 575 746 q 652 523 649 630 l 652 503 l 648 444 l 639 373 q 522 111 615 221 q 616 98 554 100 l 606 -9 m 396 331 q 433 172 391 235 q 522 383 505 258 l 531 447 l 537 509 l 538 556 q 496 644 535 642 q 416 503 437 646 l 399 369 l 396 331 z "},"Ҳ":{"ha":761,"x_min":-22,"x_max":789,"o":"m 401 610 l 640 987 l 789 987 l 458 492 l 633 0 l 496 0 l 372 385 l 127 0 l -22 0 l 316 504 l 144 987 l 279 987 l 401 610 m 614 -243 l 496 -243 l 557 104 l 675 104 l 614 -243 z "},"ҳ":{"ha":633,"x_min":-33,"x_max":604,"o":"m 299 467 l 463 734 l 604 734 l 349 365 l 488 0 l 359 0 l 277 274 l 109 0 l -33 0 l 228 377 l 94 734 l 222 734 l 299 467 m 479 -243 l 361 -243 l 422 104 l 540 104 l 479 -243 z "},"Ҵ":{"ha":1060,"x_min":127,"x_max":966,"o":"m 330 884 l 127 884 l 146 987 l 342 987 l 343 987 l 465 987 l 465 987 l 674 987 l 656 884 l 452 884 l 317 106 l 691 106 l 844 987 l 966 987 l 814 109 l 900 109 l 828 -238 l 720 -238 l 761 0 l 177 0 l 330 884 z "},"ҵ":{"ha":798,"x_min":69,"x_max":724,"o":"m 216 631 l 69 631 l 87 734 l 479 734 l 462 631 l 332 631 l 241 102 l 497 102 l 606 734 l 724 734 l 614 102 l 689 102 l 621 -218 l 517 -218 l 555 0 l 106 0 l 216 631 z "},"Ҷ":{"ha":867,"x_min":134,"x_max":810,"o":"m 810 987 l 638 0 l 516 0 l 591 409 q 378 374 489 372 q 193 455 252 376 q 150 679 134 534 l 201 987 l 323 987 l 272 678 q 269 606 268 641 q 385 482 271 486 q 603 515 475 480 l 688 987 l 810 987 m 686 -243 l 568 -243 l 629 104 l 747 104 l 686 -243 z "},"ҷ":{"ha":698,"x_min":85,"x_max":614,"o":"m 486 0 l 368 0 l 418 264 q 290 245 353 244 q 136 322 186 248 q 98 520 85 397 l 132 734 l 250 734 l 216 519 l 212 465 q 232 382 211 413 q 296 349 254 351 q 429 367 350 347 l 496 734 l 614 734 l 486 0 m 537 -243 l 420 -243 l 481 104 l 598 104 l 537 -243 z "},"Ҹ":{"ha":808,"x_min":134,"x_max":810,"o":"m 323 987 l 272 677 q 268 604 267 639 q 384 480 268 488 l 424 690 l 517 690 l 479 486 q 603 515 535 496 l 688 987 l 810 987 l 638 0 l 516 0 l 591 409 q 465 379 534 388 l 434 216 l 341 216 l 372 374 q 191 457 249 378 q 150 679 134 537 l 201 987 l 323 987 z "},"ҹ":{"ha":658,"x_min":98,"x_max":618,"o":"m 491 0 l 374 0 l 423 264 q 346 248 387 254 l 328 155 l 234 155 l 253 248 q 148 308 187 260 q 102 431 109 356 q 103 520 98 475 l 138 734 l 255 734 l 220 519 l 215 473 q 265 352 207 377 l 300 539 l 394 539 l 359 351 q 435 367 406 359 l 501 734 l 618 734 l 491 0 z "},"Һ":{"ha":808,"x_min":12,"x_max":686,"o":"m 12 0 l 183 987 l 304 987 l 229 578 q 444 612 328 614 q 627 531 568 610 q 671 308 686 453 l 620 0 l 498 0 l 549 309 q 553 381 553 346 q 437 505 551 502 q 218 471 345 507 l 133 0 l 12 0 z "},"Ҽ":{"ha":916,"x_min":106,"x_max":875,"o":"m 521 -14 q 373 26 437 -14 q 273 140 309 65 q 235 308 237 214 q 240 409 233 359 l 253 479 q 142 563 178 497 q 115 734 106 629 l 210 732 l 207 686 q 262 573 204 604 l 264 581 q 408 899 315 793 q 631 1001 501 1004 q 768 956 713 999 q 849 830 824 912 q 871 645 875 748 q 863 549 869 594 l 851 472 l 371 472 l 361 408 l 355 340 q 395 160 351 225 q 525 94 438 95 q 715 149 613 92 l 735 51 q 521 -14 670 -14 m 383 566 l 745 567 l 749 590 q 758 715 760 663 q 623 892 751 888 q 400 633 468 898 l 387 578 l 383 566 z "},"ҽ":{"ha":705,"x_min":17,"x_max":643,"o":"m 344 -14 q 227 21 278 -13 q 146 120 175 56 q 116 260 117 184 q 121 341 115 302 l 123 355 q 43 430 70 376 q 23 581 17 484 l 114 581 q 111 513 108 534 q 136 452 113 475 q 259 672 181 595 q 438 748 336 749 q 633 570 595 743 q 642 467 643 522 q 637 387 642 426 l 628 331 l 235 331 l 231 282 q 261 142 229 194 q 355 89 294 90 q 500 160 435 87 l 522 186 l 588 127 q 485 23 548 60 q 344 -14 422 -15 m 431 645 q 264 486 323 650 l 247 434 l 526 433 l 528 445 l 532 486 q 508 600 534 558 q 431 645 482 642 z "},"Ӄ":{"ha":752,"x_min":29,"x_max":809,"o":"m 151 0 l 29 0 l 201 987 l 322 987 l 248 564 l 308 564 l 659 987 l 809 987 l 437 555 q 599 461 543 539 q 659 259 655 384 q 623 26 661 135 q 509 -142 585 -83 q 328 -205 433 -202 l 336 -100 q 483 -7 433 -97 q 536 237 533 83 q 498 391 538 337 q 377 448 458 445 l 229 448 l 151 0 z "},"ӄ":{"ha":656,"x_min":26,"x_max":666,"o":"m 375 412 q 513 312 467 390 q 548 123 559 233 q 465 -70 537 14 q 290 -178 392 -153 l 268 -76 q 380 -1 339 -53 q 430 125 422 51 q 404 261 439 213 q 295 312 368 309 l 197 313 l 143 0 l 26 0 l 153 734 l 271 734 l 213 422 l 252 422 l 517 734 l 666 734 l 375 412 z "},"Ӆ":{"ha":899,"x_min":-26,"x_max":821,"o":"m 821 987 l 649 0 l 527 0 l 680 880 l 413 880 l 336 503 l 313 378 q 199 87 273 177 q 8 0 126 -3 l -26 0 l -14 106 l 6 106 q 126 176 78 111 q 200 387 174 241 l 221 525 l 315 987 l 821 987 m 625 -243 l 555 -192 q 652 1 633 -95 l 670 103 l 790 103 l 776 12 q 625 -243 751 -143 z "},"ӆ":{"ha":750,"x_min":-30,"x_max":661,"o":"m 646 734 l 519 0 l 401 0 l 511 630 l 325 630 l 271 379 l 252 281 q 161 64 221 132 q 9 0 100 -3 l -30 0 l -17 110 l 5 111 q 102 174 65 115 q 159 374 140 232 l 164 410 l 230 734 l 646 734 m 496 -243 l 426 -192 q 524 1 505 -95 l 541 103 l 661 103 l 647 12 q 496 -243 623 -143 z "},"Ӈ":{"ha":842,"x_min":38,"x_max":826,"o":"m 332 987 l 254 541 l 626 541 l 704 987 l 826 987 l 647 -57 q 574 -236 632 -173 q 427 -298 517 -300 q 358 -284 399 -296 l 378 -180 q 433 -193 412 -193 q 525 -57 505 -193 l 608 435 l 236 435 l 160 0 l 38 0 l 210 987 l 332 987 z "},"ӈ":{"ha":678,"x_min":19,"x_max":637,"o":"m 264 734 l 210 416 l 465 416 l 520 734 l 637 734 l 503 -60 q 430 -238 487 -177 q 286 -298 374 -300 q 218 -284 258 -296 l 237 -185 q 293 -197 271 -197 q 385 -60 366 -197 l 448 313 l 192 313 l 137 0 l 19 0 l 146 734 l 264 734 z "},"Ӊ":{"ha":912,"x_min":33,"x_max":831,"o":"m 660 0 l 538 0 l 618 456 l 233 456 l 154 0 l 33 0 l 203 987 l 325 987 l 251 563 l 636 563 l 709 987 l 831 987 l 660 0 m 637 -243 l 567 -192 q 665 1 646 -95 l 682 103 l 802 103 l 788 12 q 637 -243 764 -143 z "},"ӊ":{"ha":748,"x_min":26,"x_max":659,"o":"m 517 0 l 400 0 l 454 313 l 199 313 l 144 0 l 26 0 l 154 734 l 272 734 l 216 416 l 472 416 l 528 734 l 644 734 l 517 0 m 494 -243 l 424 -192 q 522 1 503 -95 l 539 103 l 659 103 l 645 12 q 494 -243 621 -143 z "},"Ӎ":{"ha":1087,"x_min":33,"x_max":1015,"o":"m 357 987 l 467 183 l 857 987 l 1015 987 l 844 0 l 722 0 l 790 391 l 865 758 l 486 0 l 393 0 l 277 773 l 219 378 l 154 0 l 33 0 l 203 987 l 357 987 m 813 -243 l 743 -192 q 840 1 821 -95 l 858 103 l 978 103 l 964 12 q 813 -243 939 -143 z "},"ӎ":{"ha":933,"x_min":26,"x_max":845,"o":"m 392 168 l 681 734 l 829 734 l 702 0 l 585 0 l 671 496 l 409 0 l 328 0 l 235 524 l 143 0 l 26 0 l 154 734 l 302 734 l 392 168 m 680 -243 l 610 -192 q 707 1 688 -95 l 725 103 l 845 103 l 831 12 q 680 -243 806 -143 z "},"Ә":{"ha":811,"x_min":57,"x_max":754,"o":"m 452 1000 q 611 956 544 1000 q 715 827 678 912 q 753 635 751 741 q 735 441 754 551 q 651 201 712 310 q 508 38 590 92 q 330 -14 427 -16 q 181 30 243 -12 q 88 151 119 71 q 57 332 57 230 q 65 441 57 388 l 77 520 l 621 518 l 623 526 q 634 602 631 562 q 620 750 640 682 q 556 854 601 818 q 448 891 511 890 q 245 836 354 893 l 225 933 q 452 1000 292 1000 m 336 93 q 496 168 427 90 q 610 420 564 245 l 184 419 q 174 328 175 364 q 210 156 167 216 q 336 93 252 96 z "},"Ӡ":{"ha":694,"x_min":41,"x_max":685,"o":"m 685 987 l 670 897 l 387 573 q 547 483 492 562 q 592 281 603 404 q 491 64 581 148 q 274 -16 402 -20 q 101 70 162 -12 q 50 274 41 151 l 171 274 q 196 145 165 195 q 283 93 226 95 q 429 165 374 90 q 472 352 484 241 q 340 475 458 469 l 250 475 l 269 585 l 519 880 l 181 880 l 200 987 l 685 987 z "},"ӡ":{"ha":694,"x_min":-2,"x_max":637,"o":"m 464 630 l 138 630 l 156 734 l 637 734 l 623 647 l 344 316 q 502 226 448 304 q 545 27 555 148 q 445 -189 533 -104 q 229 -269 356 -273 q 58 -184 118 -264 q 5 20 -2 -104 l 123 20 q 149 -113 117 -62 q 238 -165 180 -163 q 382 -96 326 -168 q 431 85 437 -24 l 430 98 q 389 187 423 156 q 297 220 355 218 l 203 220 l 222 330 l 464 630 z "},"Ӻ":{"ha":709,"x_min":16,"x_max":753,"o":"m 734 880 l 358 880 l 205 0 l 83 0 l 254 987 l 753 987 l 734 880 m 423 485 l 66 485 l 84 587 l 441 587 l 423 485 m 325 103 l 300 -60 q 229 -237 284 -175 q 83 -298 173 -300 q 16 -284 52 -297 l 36 -178 q 91 -189 65 -189 q 181 -64 162 -189 l 208 103 l 325 103 z "},"ӻ":{"ha":559,"x_min":7,"x_max":588,"o":"m 570 630 l 304 630 l 195 0 l 77 0 l 205 734 l 588 734 l 570 630 m 401 364 l 44 364 l 62 467 l 420 467 l 401 364 m 316 103 l 291 -60 q 220 -237 275 -175 q 75 -298 164 -300 q 7 -284 43 -297 l 27 -178 q 82 -189 56 -189 q 172 -64 153 -189 l 199 103 l 316 103 z "},"Ӽ":{"ha":775,"x_min":-22,"x_max":789,"o":"m 401 610 l 640 987 l 789 987 l 458 492 l 633 0 l 496 0 l 372 385 l 127 0 l -22 0 l 316 504 l 144 987 l 279 987 l 401 610 m 689 103 l 664 -60 q 593 -237 648 -175 q 448 -298 537 -300 q 380 -284 416 -297 l 400 -178 q 455 -189 429 -189 q 545 -64 526 -189 l 572 103 l 689 103 z "},"ӽ":{"ha":648,"x_min":-33,"x_max":604,"o":"m 299 467 l 463 734 l 604 734 l 349 365 l 488 0 l 359 0 l 277 274 l 109 0 l -33 0 l 228 377 l 94 734 l 222 734 l 299 467 m 554 103 l 529 -60 q 458 -237 513 -175 q 313 -298 402 -300 q 245 -284 281 -297 l 265 -178 q 320 -189 294 -189 q 410 -64 391 -189 l 437 103 l 554 103 z "},"Ԁ":{"ha":755,"x_min":41,"x_max":760,"o":"m 569 599 l 637 987 l 760 987 l 589 0 l 283 1 q 103 86 165 5 q 52 296 41 168 q 150 515 63 431 q 370 600 237 600 l 569 599 m 484 106 l 551 492 l 366 493 q 217 416 271 492 q 172 233 163 341 q 207 144 177 177 q 286 108 236 111 l 484 106 z "},"Ԃ":{"ha":982,"x_min":41,"x_max":934,"o":"m 285 1 q 105 86 168 5 q 53 296 41 166 q 152 516 65 432 q 372 600 239 600 l 572 599 l 640 987 l 762 987 l 607 104 l 644 104 q 768 183 723 106 q 814 404 812 260 q 804 514 814 459 l 918 513 q 928 404 925 458 q 899 194 934 288 q 796 49 865 100 q 639 0 727 -2 l 285 1 m 486 106 l 553 492 l 368 493 q 219 416 273 492 q 174 233 165 341 q 208 143 179 177 q 288 107 237 110 l 486 106 z "},"ԃ":{"ha":1008,"x_min":51,"x_max":931,"o":"m 349 748 q 494 671 442 745 l 566 1058 l 682 1058 l 543 233 l 541 190 q 557 118 540 147 q 607 88 575 90 q 754 189 701 83 q 821 497 808 296 q 817 632 825 564 l 925 633 q 930 498 931 564 q 838 126 928 268 q 596 -14 748 -16 q 433 100 460 -11 q 240 -16 350 -18 q 100 60 149 -14 q 52 262 51 134 q 72 429 52 334 q 129 598 91 523 q 224 711 168 673 q 349 748 281 750 m 478 560 q 372 642 442 639 q 243 570 293 644 q 175 352 193 496 l 174 338 q 169 237 167 283 q 277 92 176 94 q 349 111 315 90 q 419 182 383 132 l 423 234 l 478 560 z "},"Ԅ":{"ha":930,"x_min":125,"x_max":840,"o":"m 369 310 q 340 394 366 362 q 273 428 315 425 l 157 429 l 176 536 l 243 536 q 446 715 425 536 q 447 779 450 749 q 331 880 433 876 l 125 880 l 144 987 l 334 987 q 518 910 456 983 q 569 714 580 838 q 399 482 555 559 q 491 319 486 439 q 488 237 492 282 q 484 171 484 192 q 541 92 487 95 q 656 171 611 87 q 720 439 701 255 l 725 497 q 722 633 729 564 l 835 633 q 840 498 840 565 q 800 228 840 349 q 691 46 760 108 q 530 -15 623 -16 q 401 43 445 -14 q 364 205 358 100 q 369 310 370 278 z "},"ԅ":{"ha":765,"x_min":70,"x_max":700,"o":"m 388 143 l 387 123 q 420 83 387 85 q 538 165 494 77 q 583 395 582 252 q 574 501 583 448 l 682 501 q 693 395 689 448 q 667 189 700 288 q 566 35 633 90 q 413 -18 499 -20 q 304 25 340 -17 q 272 145 268 66 l 277 197 q 194 298 286 293 l 70 300 l 87 401 l 179 401 q 283 432 244 402 q 330 516 322 462 q 313 599 337 569 q 235 631 288 629 l 83 632 l 98 734 l 237 733 q 398 674 340 730 q 449 521 455 617 q 414 428 446 469 q 316 355 382 388 q 393 197 402 317 l 388 143 z "},"Ԇ":{"ha":640,"x_min":108,"x_max":538,"o":"m 108 429 l 126 532 l 209 531 q 333 563 283 531 q 402 655 382 595 q 415 778 422 715 q 297 884 401 880 l 138 884 l 156 987 l 299 986 q 433 950 378 983 q 513 855 488 917 q 530 711 538 793 q 364 481 517 559 q 450 317 448 435 q 447 252 451 283 l 431 159 l 427 143 l 534 144 l 519 52 q 378 -201 494 -102 l 313 -151 q 395 0 368 -73 l 330 0 q 309 78 310 31 l 310 109 l 331 263 l 332 309 q 305 394 329 362 q 237 428 281 425 l 108 429 z "},"ԇ":{"ha":604,"x_min":100,"x_max":523,"o":"m 100 298 l 118 401 l 226 400 q 329 432 291 401 q 374 517 367 462 q 357 599 382 570 q 280 631 333 629 l 120 632 l 138 734 l 282 733 q 442 674 385 730 q 493 522 499 618 q 456 427 488 468 q 359 354 425 385 q 433 235 429 322 q 431 183 435 209 l 422 132 l 523 133 l 508 40 q 366 -212 483 -113 l 302 -162 q 386 0 359 -79 l 327 0 q 305 87 301 31 l 318 200 l 317 226 q 238 297 308 293 l 100 298 z "},"Ԉ":{"ha":1131,"x_min":-16,"x_max":1072,"o":"m 673 880 l 424 880 l 346 503 l 325 389 q 214 93 286 184 q 30 0 142 3 l -16 0 l -4 106 l 17 106 q 136 176 88 111 q 210 384 184 241 l 230 515 l 325 987 l 814 987 l 688 234 l 686 191 q 703 120 686 147 q 751 92 719 94 q 895 193 843 87 q 958 497 946 300 q 954 632 962 564 l 1067 633 q 1072 498 1072 565 q 980 125 1070 269 q 739 -16 890 -20 q 601 49 647 -12 q 563 218 555 111 l 564 235 l 673 880 z "},"ԉ":{"ha":947,"x_min":-17,"x_max":896,"o":"m 498 630 l 337 630 l 284 379 l 266 284 q 179 71 236 139 q 32 0 121 2 l -17 0 l -3 110 l 16 111 q 115 174 78 115 q 170 366 153 233 l 176 410 l 243 734 l 633 734 l 549 233 l 548 190 q 566 116 548 143 q 616 87 583 89 q 735 184 693 84 q 786 459 777 284 q 781 587 789 523 l 889 587 q 896 460 895 524 q 858 204 896 313 q 755 38 820 94 q 606 -16 690 -18 q 467 52 513 -14 q 433 234 421 117 l 498 630 z "},"Ԋ":{"ha":1172,"x_min":31,"x_max":1082,"o":"m 823 987 l 696 233 l 695 191 q 712 120 695 147 q 759 92 728 93 q 904 196 851 86 q 966 497 957 306 q 962 632 970 564 l 1075 633 q 1082 498 1082 565 q 1038 223 1082 343 q 918 43 994 104 q 747 -16 843 -18 q 610 52 656 -14 q 574 235 564 118 l 605 435 l 229 435 l 154 0 l 31 0 l 203 987 l 325 987 l 248 541 l 623 541 l 701 987 l 823 987 z "},"ԋ":{"ha":972,"x_min":20,"x_max":909,"o":"m 456 313 l 192 313 l 137 0 l 20 0 l 148 734 l 264 734 l 209 415 l 473 415 l 528 734 l 645 734 l 562 233 l 559 190 q 577 117 559 145 q 627 87 595 89 q 747 183 704 84 q 798 459 789 281 q 793 587 801 523 l 901 587 q 908 460 907 524 q 873 213 909 326 q 771 42 837 100 q 618 -16 706 -17 q 480 52 526 -14 q 445 234 435 118 l 456 313 z "},"Ԍ":{"ha":736,"x_min":69,"x_max":691,"o":"m 337 -14 q 200 28 259 -12 q 107 144 141 68 q 71 311 74 219 q 75 405 69 359 l 102 574 q 237 885 132 766 q 492 1002 342 1004 q 691 940 607 1001 l 645 848 q 488 897 573 895 q 318 810 388 898 q 224 572 248 722 l 197 404 l 193 343 q 228 162 188 231 q 345 92 269 93 q 485 166 431 89 q 544 412 538 244 q 541 534 546 473 l 656 534 l 659 412 q 547 68 662 181 q 337 -14 460 -18 z "},"ԍ":{"ha":616,"x_min":54,"x_max":536,"o":"m 290 87 q 384 145 355 87 q 410 365 412 202 l 519 365 l 520 286 q 489 113 518 176 q 405 16 459 50 q 281 -15 351 -17 q 118 65 178 -12 q 54 269 58 142 l 54 307 q 149 622 60 494 q 376 749 238 751 q 536 701 473 747 l 498 605 q 371 647 446 646 q 271 607 315 647 q 200 485 227 566 q 169 301 172 404 q 196 144 164 201 q 290 87 229 87 z "},"Ԏ":{"ha":837,"x_min":115,"x_max":771,"o":"m 370 880 l 115 880 l 134 987 l 771 987 l 752 880 l 491 880 l 382 234 l 381 192 q 398 121 381 148 q 446 92 414 94 q 590 194 536 87 q 654 497 644 302 q 650 632 657 564 l 762 633 q 768 498 768 564 q 723 223 767 344 q 605 42 679 102 q 435 -16 530 -18 q 297 52 343 -14 q 260 235 250 117 l 370 880 z "},"ԏ":{"ha":760,"x_min":91,"x_max":676,"o":"m 283 632 l 91 632 l 109 734 l 611 734 l 593 632 l 400 632 l 334 233 l 332 190 q 350 117 332 145 q 399 87 367 89 q 552 292 516 84 q 561 401 560 347 q 552 510 562 456 l 660 510 q 671 402 667 456 q 643 193 676 292 q 543 38 610 94 q 391 -15 476 -17 q 253 52 298 -14 q 217 234 207 118 l 283 632 z "},"Ԑ":{"ha":802,"x_min":69,"x_max":779,"o":"m 424 451 q 268 403 327 451 q 199 267 209 355 q 236 141 190 189 q 364 91 283 92 q 506 141 446 90 q 580 273 566 192 l 702 274 q 593 63 688 142 q 357 -14 498 -16 q 203 24 271 -12 q 102 124 136 60 q 76 270 69 188 q 269 510 90 441 q 189 597 216 545 q 166 714 161 650 q 271 925 175 846 q 512 1002 368 1004 q 705 922 631 999 q 773 727 779 846 l 652 728 q 615 845 656 799 q 505 895 575 892 q 358 847 418 897 q 288 718 297 796 q 317 601 279 642 q 429 557 354 560 l 539 557 l 520 450 l 424 451 z "},"Ԓ":{"ha":902,"x_min":-26,"x_max":821,"o":"m 821 987 l 649 0 l 527 0 l 680 880 l 413 880 l 336 503 l 313 378 q 199 87 273 177 q 8 0 126 -3 l -26 0 l -14 106 l 6 106 q 126 176 78 111 q 200 387 174 241 l 221 525 l 315 987 l 821 987 m 781 103 l 755 -60 q 684 -237 740 -175 q 539 -298 629 -300 q 472 -284 508 -297 l 492 -178 q 547 -189 521 -189 q 637 -64 618 -189 l 663 103 l 781 103 z "},"ԓ":{"ha":752,"x_min":-30,"x_max":652,"o":"m 646 734 l 519 0 l 401 0 l 511 630 l 325 630 l 271 379 l 252 281 q 161 64 221 132 q 9 0 100 -3 l -30 0 l -17 110 l 5 111 q 102 174 65 115 q 159 374 140 232 l 164 410 l 230 734 l 646 734 m 652 103 l 627 -60 q 556 -237 612 -175 q 411 -298 500 -300 q 344 -284 380 -297 l 363 -178 q 418 -189 393 -189 q 509 -64 490 -189 l 535 103 l 652 103 z "}," ":{"ha":610,"x_min":0,"x_max":0,"o":""}," ":{"ha":1187,"x_min":0,"x_max":0,"o":""}," ":{"ha":610,"x_min":0,"x_max":0,"o":""}," ":{"ha":1187,"x_min":0,"x_max":0,"o":""}," ":{"ha":418,"x_min":0,"x_max":0,"o":""}," ":{"ha":321,"x_min":0,"x_max":0,"o":""}," ":{"ha":225,"x_min":0,"x_max":0,"o":""}," ":{"ha":669,"x_min":0,"x_max":0,"o":""}," ":{"ha":342,"x_min":0,"x_max":0,"o":""}," ":{"ha":264,"x_min":0,"x_max":0,"o":""}," ":{"ha":149,"x_min":0,"x_max":0,"o":""},"​":{"ha":0,"x_min":0,"x_max":0,"o":""},"‐":{"ha":342,"x_min":24,"x_max":315,"o":"m 296 368 l 24 368 l 42 471 l 315 471 l 296 368 z "},"‑":{"ha":342,"x_min":24,"x_max":315,"o":"m 296 368 l 24 368 l 42 471 l 315 471 l 296 368 z "},"–":{"ha":778,"x_min":113,"x_max":689,"o":"m 668 441 l 113 441 l 135 544 l 689 544 l 668 441 z "},"—":{"ha":920,"x_min":113,"x_max":882,"o":"m 853 441 l 113 441 l 143 544 l 881 544 l 853 441 z "},"‗":{"ha":549,"x_min":-104,"x_max":457,"o":"m 409 -275 l -104 -275 l -87 -172 l 427 -172 l 409 -275 m 439 -102 l -75 -102 l -57 0 l 457 0 l 439 -102 z "},"‘":{"ha":269,"x_min":121,"x_max":338,"o":"m 275 1055 l 338 1004 q 254 823 271 911 l 237 728 l 121 728 l 132 795 q 275 1055 156 956 z "},"’":{"ha":269,"x_min":98,"x_max":316,"o":"m 161 709 l 98 760 q 183 945 166 857 l 200 1042 l 316 1042 l 304 964 q 161 709 279 806 z "},"‚":{"ha":269,"x_min":-63,"x_max":152,"o":"m 1 -192 l -63 -141 q 22 51 5 -43 l 35 123 l 152 123 l 142 59 q 1 -192 117 -94 z "},"‛":{"ha":269,"x_min":146,"x_max":287,"o":"m 280 1042 l 264 951 q 262 852 256 901 q 287 756 267 804 l 219 710 q 171 791 189 743 q 149 890 152 840 q 151 955 146 922 l 165 1042 l 280 1042 z "},"“":{"ha":456,"x_min":127,"x_max":532,"o":"m 281 1055 l 345 1004 q 260 823 277 911 l 243 728 l 127 728 l 138 795 q 281 1055 162 956 m 468 1055 l 532 1004 q 447 823 465 911 l 430 728 l 315 728 l 325 795 q 468 1055 349 956 z "},"”":{"ha":461,"x_min":106,"x_max":507,"o":"m 170 709 l 106 760 q 191 945 174 857 l 208 1042 l 324 1042 l 312 964 q 170 709 287 806 m 352 709 l 289 760 q 374 945 357 857 l 391 1042 l 507 1042 l 494 964 q 352 709 469 806 z "},"„":{"ha":446,"x_min":-65,"x_max":336,"o":"m -1 -204 l -65 -154 q 22 50 5 -50 l 43 167 l 159 167 l 143 65 q -1 -204 116 -104 m 175 -204 l 112 -154 q 199 50 182 -50 l 220 167 l 336 167 l 319 62 q 175 -204 293 -103 z "},"†":{"ha":657,"x_min":87,"x_max":651,"o":"m 635 630 l 418 630 l 319 0 l 201 0 l 300 630 l 87 630 l 104 734 l 316 734 l 356 987 l 473 987 l 434 734 l 651 734 l 635 630 z "},"‡":{"ha":680,"x_min":-2,"x_max":661,"o":"m 545 0 l 329 0 l 285 -282 l 167 -282 l 211 0 l -2 0 l 14 102 l 227 102 l 310 630 l 96 630 l 113 734 l 326 734 l 366 987 l 484 987 l 444 734 l 661 734 l 644 630 l 428 630 l 345 102 l 562 102 l 545 0 z "},"•":{"ha":460,"x_min":109,"x_max":377,"o":"m 109 519 q 153 621 113 583 q 251 659 193 659 q 341 622 306 659 q 377 526 377 585 l 376 497 q 333 399 372 436 q 234 361 295 361 q 143 397 178 361 q 109 491 109 433 l 109 519 z "},"‥":{"ha":573,"x_min":35,"x_max":433,"o":"m 111 142 q 165 122 144 143 q 186 68 187 101 q 164 14 186 35 q 110 -8 142 -7 q 56 11 77 -9 q 35 64 35 31 q 56 119 35 97 q 111 142 77 141 m 357 142 q 412 122 390 143 q 433 68 433 101 q 410 14 432 35 q 356 -8 389 -7 q 302 11 323 -9 q 281 64 281 31 q 302 119 281 97 q 357 142 323 141 z "},"…":{"ha":802,"x_min":35,"x_max":667,"o":"m 111 142 q 165 122 144 143 q 186 68 187 101 q 164 14 186 35 q 110 -8 142 -7 q 56 11 77 -9 q 35 64 35 31 q 56 119 35 97 q 111 142 77 141 m 357 142 q 412 122 390 143 q 433 68 433 101 q 410 14 432 35 q 356 -8 389 -7 q 302 11 323 -9 q 281 64 281 31 q 302 119 281 97 q 357 142 323 141 m 591 142 q 646 122 624 143 q 667 68 667 101 q 644 14 666 35 q 590 -8 623 -7 q 536 11 557 -9 q 515 64 515 31 q 536 119 515 97 q 591 142 557 141 z "},"‧":{"ha":252,"x_min":58,"x_max":191,"o":"m 59 418 q 78 469 60 448 q 125 492 95 491 q 153 487 141 493 q 174 472 165 481 q 187 449 183 462 q 191 420 191 435 q 172 370 189 391 q 123 348 154 349 q 95 353 107 347 q 75 368 83 359 q 62 391 66 378 q 59 418 58 404 z "},"‰":{"ha":1110,"x_min":104,"x_max":1026,"o":"m 434 241 q 496 390 444 332 q 627 447 549 448 q 743 370 709 446 q 876 446 803 446 q 986 388 945 445 q 1021 242 1026 331 l 1017 198 q 956 43 1008 103 q 825 -16 904 -17 q 707 61 741 -14 q 576 -14 646 -16 q 466 43 506 -14 q 430 189 425 100 l 434 241 m 302 1002 q 415 943 374 1000 q 450 798 455 886 l 446 753 q 385 597 437 656 q 257 542 332 539 q 145 600 186 543 q 109 745 104 656 l 113 789 q 174 945 122 886 q 302 1002 226 1004 m 201 76 l 140 125 l 663 890 l 724 841 l 201 76 m 516 188 l 516 149 q 535 89 519 112 q 581 66 552 66 q 645 97 618 64 q 680 189 671 130 q 685 281 686 258 q 621 365 680 363 q 554 331 581 366 q 521 237 527 296 l 516 188 m 195 744 q 208 657 191 690 q 261 623 224 624 q 324 653 297 621 q 359 745 351 686 l 364 798 l 364 837 q 345 898 361 875 q 299 921 328 920 q 233 886 260 922 q 200 793 206 850 l 195 744 m 767 149 q 831 66 772 68 q 896 98 869 64 q 930 189 922 132 q 935 281 936 259 q 871 365 929 363 q 807 333 833 366 q 772 242 780 300 q 767 149 766 172 z "},"‹":{"ha":373,"x_min":66,"x_max":366,"o":"m 176 366 l 265 104 l 188 104 l 66 366 l 68 380 l 273 644 l 366 644 l 176 366 z "},"›":{"ha":373,"x_min":4,"x_max":305,"o":"m 184 644 l 305 380 l 304 367 l 98 103 l 4 103 l 195 380 l 105 644 l 184 644 z "},"⁄":{"ha":550,"x_min":-5,"x_max":579,"o":"m 56 76 l -5 125 l 517 890 l 579 841 l 56 76 z "},"⁴":{"ha":451,"x_min":73,"x_max":445,"o":"m 385 654 l 445 655 l 429 567 l 374 567 l 353 452 l 255 452 l 275 567 l 73 567 l 82 643 l 342 987 l 443 987 l 385 654 m 185 655 l 290 655 l 328 846 l 318 832 l 185 655 z "},"ⁿ":{"ha":511,"x_min":85,"x_max":500,"o":"m 258 985 l 258 904 q 381 995 312 995 q 465 957 434 995 q 498 855 495 920 q 498 786 500 819 l 442 441 l 334 441 l 387 765 l 390 802 q 341 897 395 897 q 258 831 295 897 l 193 441 l 85 441 l 180 984 l 258 985 z "},"₤":{"ha":695,"x_min":-6,"x_max":692,"o":"m 441 319 l 263 319 l 255 273 q 184 105 237 171 l 592 106 l 572 0 l -6 0 l 9 106 l 47 104 q 124 231 102 130 l 140 319 l 47 319 l 62 404 l 149 404 l 162 496 l 77 496 l 92 581 l 175 581 l 190 699 q 289 922 208 839 q 486 1001 370 1004 q 638 928 584 999 q 686 736 692 857 l 564 737 q 545 851 570 810 q 466 895 519 893 q 364 842 406 897 q 310 690 322 787 l 296 581 l 487 581 l 472 496 l 284 496 l 271 404 l 456 404 l 441 319 z "},"₦":{"ha":939,"x_min":16,"x_max":943,"o":"m 817 637 l 943 637 l 925 534 l 800 534 l 782 434 l 908 434 l 890 331 l 764 331 l 707 0 l 587 0 l 478 331 l 259 331 l 201 0 l 80 0 l 138 331 l 16 331 l 34 434 l 155 434 l 174 534 l 52 534 l 69 637 l 191 637 l 252 987 l 369 987 l 484 637 l 696 637 l 757 987 l 878 987 l 817 637 m 277 434 l 444 434 l 411 534 l 295 534 l 277 434 m 552 434 l 661 434 l 679 534 l 518 534 l 552 434 m 309 637 l 378 637 l 336 762 l 309 637 m 623 218 l 644 331 l 586 331 l 623 218 z "},"₧":{"ha":962,"x_min":31,"x_max":924,"o":"m 907 637 l 801 637 l 724 180 l 722 153 q 732 111 721 127 q 764 95 743 95 q 811 102 779 95 l 802 -1 q 724 -12 763 -13 q 643 22 672 -12 q 608 116 614 56 q 608 182 605 150 l 684 637 l 616 637 q 508 445 581 508 q 321 382 436 382 l 214 383 l 148 0 l 31 0 l 202 987 l 409 987 q 573 914 516 983 q 621 733 630 845 l 699 734 l 731 911 l 849 911 l 818 734 l 924 734 l 907 637 m 232 486 l 326 484 q 459 551 414 486 q 507 753 505 616 q 407 883 510 878 l 301 884 l 232 486 z "},"₨":{"ha":1235,"x_min":33,"x_max":1183,"o":"m 394 399 l 224 399 l 154 0 l 33 0 l 203 987 l 465 987 q 656 905 592 983 q 707 696 720 827 q 648 533 698 602 q 511 426 597 465 l 626 9 l 625 0 l 495 0 l 394 399 m 242 506 l 382 505 q 496 539 447 506 q 569 633 545 572 q 585 765 593 694 q 548 847 580 817 q 461 880 517 877 l 307 880 l 242 506 m 1012 193 q 940 300 1021 258 l 849 348 q 750 431 779 387 q 726 534 722 475 q 802 688 731 627 q 974 747 872 749 q 1128 683 1072 745 q 1179 524 1183 621 l 1063 524 q 1039 611 1065 579 q 967 644 1013 642 q 881 614 915 644 q 840 538 847 585 q 894 448 832 483 l 1008 389 q 1128 202 1135 319 q 1048 43 1122 102 q 870 -14 975 -16 q 706 53 769 -12 q 647 220 643 117 l 765 219 q 793 122 764 155 q 876 90 822 90 q 969 118 932 90 q 1012 193 1006 146 z "},"₩":{"ha":862,"x_min":16,"x_max":913,"o":"m 572 665 l 686 665 l 789 987 l 913 987 l 801 665 l 871 665 l 853 562 l 766 562 l 720 430 l 830 430 l 812 327 l 685 327 l 572 0 l 456 0 l 470 327 l 359 327 l 257 0 l 142 0 l 143 327 l 16 327 l 33 430 l 143 430 l 143 562 l 56 562 l 74 665 l 143 665 l 144 987 l 262 987 l 253 665 l 373 665 l 472 987 l 585 987 l 572 665 m 244 429 l 301 430 l 341 562 l 254 562 l 244 429 m 559 429 l 614 430 l 654 562 l 572 562 l 559 429 m 391 430 l 473 430 l 482 562 l 434 562 l 391 430 m 268 319 l 271 330 l 248 330 l 247 322 l 231 196 l 268 319 m 581 322 l 583 330 l 561 330 l 560 321 l 548 203 l 581 322 m 460 661 l 481 662 l 482 670 l 491 760 l 465 668 l 460 661 z "},"₪":{"ha":909,"x_min":16,"x_max":872,"o":"m 456 732 q 573 674 534 730 q 610 522 612 619 l 607 460 l 572 237 l 454 237 l 490 462 l 496 515 q 418 629 501 624 l 243 630 l 133 0 l 16 0 l 144 734 l 456 732 m 231 0 l 317 497 l 433 497 l 365 103 l 528 102 q 625 140 588 102 q 677 268 662 178 l 755 734 l 872 734 l 795 273 q 718 64 777 130 q 561 0 659 -2 l 231 0 z "},"€":{"ha":672,"x_min":60,"x_max":694,"o":"m 482 367 l 277 367 l 273 312 q 301 154 268 212 q 404 94 335 96 q 528 116 456 92 l 532 5 q 399 -12 465 -13 q 221 69 285 -9 q 156 279 158 147 q 161 368 155 323 l 60 367 l 75 451 l 171 451 l 187 544 l 92 544 l 106 629 l 197 629 q 276 841 224 756 q 398 964 328 925 q 555 1002 468 1004 q 694 980 610 1001 l 669 870 q 551 896 608 895 q 318 629 378 900 l 528 629 l 513 544 l 309 544 l 292 451 l 497 451 l 482 367 z "},"₱":{"ha":880,"x_min":54,"x_max":917,"o":"m 256 387 l 189 0 l 68 0 l 164 553 l 54 553 l 73 656 l 182 656 l 193 720 l 83 720 l 101 822 l 210 822 l 239 987 l 537 987 q 691 940 630 983 q 772 822 751 897 l 917 822 l 898 720 l 787 720 l 779 686 l 770 654 l 888 656 l 870 553 l 742 553 q 449 385 652 382 l 256 387 m 659 685 l 665 720 l 314 720 l 302 656 l 649 654 l 659 685 m 452 492 q 602 555 540 495 l 286 553 l 275 493 l 452 492 m 332 822 l 640 823 q 534 880 611 876 l 342 880 l 332 822 z "},"₹":{"ha":630,"x_min":42,"x_max":692,"o":"m 644 880 l 515 880 q 531 746 536 814 l 650 746 l 603 639 l 524 639 q 413 457 491 516 q 205 395 336 397 l 411 9 l 411 0 l 268 0 l 42 425 l 56 503 l 201 502 q 399 640 336 502 l 72 639 l 119 746 l 409 746 q 291 880 409 871 l 113 881 l 160 987 l 692 987 l 644 880 z "},"₺":{"ha":682,"x_min":14,"x_max":632,"o":"m 632 523 l 627 479 q 550 213 608 329 q 409 41 492 98 q 224 -14 326 -16 q 102 0 176 -13 l 169 404 l 14 330 l 37 457 l 191 532 l 208 628 l 53 554 l 76 682 l 230 756 l 271 987 l 391 987 l 362 821 l 517 895 l 494 767 l 340 692 l 323 596 l 477 670 l 455 543 l 300 467 l 236 96 q 411 190 342 99 q 505 463 479 281 l 512 523 l 632 523 z "},"₼":{"ha":782,"x_min":-9,"x_max":678,"o":"m 475 595 q 628 468 577 568 q 671 216 678 368 q 664 126 669 168 l 643 0 l 526 0 l 547 128 q 559 255 558 212 q 462 482 562 437 l 374 0 l 258 0 l 345 484 q 209 369 263 453 q 130 132 154 284 l 108 0 l -9 0 l 13 130 q 134 450 46 330 q 358 596 221 570 l 386 734 l 503 734 l 475 595 z "},"₽":{"ha":793,"x_min":-9,"x_max":795,"o":"m 405 186 l 227 186 l 195 0 l 74 0 l 106 186 l -9 186 l 10 294 l 125 294 l 141 387 l 26 387 l 44 493 l 159 493 l 245 987 l 543 987 q 729 902 663 983 q 783 694 795 821 q 683 468 771 551 q 454 386 594 386 l 262 387 l 245 294 l 424 294 l 405 186 m 280 493 l 460 492 q 576 527 527 492 q 647 628 625 562 q 662 760 670 693 q 624 845 655 813 q 540 880 592 877 l 347 880 l 280 493 z "},"℅":{"ha":869,"x_min":140,"x_max":772,"o":"m 447 715 q 394 588 439 635 q 282 542 350 541 q 178 600 215 543 q 146 745 140 657 l 150 798 q 209 948 161 892 q 328 1003 258 1004 q 432 954 394 1002 q 469 827 471 907 l 384 827 q 326 921 388 921 q 266 885 289 921 q 237 790 243 850 q 231 710 231 731 q 244 647 231 671 q 283 623 258 623 q 364 714 345 623 l 447 715 m 618 446 q 731 386 690 444 q 766 242 772 328 l 762 198 q 700 41 753 99 q 573 -15 647 -17 q 490 13 525 -14 q 438 86 455 41 q 425 189 421 132 l 429 233 q 490 389 437 331 q 618 446 542 447 m 511 149 q 531 89 514 112 q 576 66 547 66 q 642 100 616 64 q 675 195 669 136 l 680 243 l 680 281 q 660 341 677 319 q 614 365 644 364 q 551 333 577 366 q 516 242 524 300 q 511 149 510 172 m 213 76 l 151 125 l 673 890 l 736 841 l 213 76 z "},"ℓ":{"ha":576,"x_min":56,"x_max":585,"o":"m 349 -14 q 218 43 267 -9 q 161 185 169 96 q 165 291 156 238 l 167 302 q 56 285 119 288 l 70 404 q 181 425 123 406 l 245 798 q 314 991 262 926 q 445 1055 366 1057 q 549 994 513 1053 q 578 842 585 935 l 574 814 q 479 551 559 676 q 292 359 404 434 l 280 291 q 273 208 273 239 q 356 94 273 100 l 349 -14 m 313 517 q 458 823 439 659 l 460 842 q 463 903 464 890 q 434 949 460 947 q 366 836 382 954 l 361 798 l 313 517 z "},"№":{"ha":1201,"x_min":28,"x_max":1188,"o":"m 1076 279 l 731 279 l 749 376 l 1093 376 l 1076 279 m 1014 999 q 1142 932 1097 997 q 1180 764 1188 867 l 1175 710 q 1103 528 1163 595 q 953 465 1042 462 q 823 533 868 467 q 785 698 777 598 l 791 755 q 863 935 802 869 q 1014 999 924 1002 m 889 696 l 888 652 q 908 584 890 610 q 961 558 927 559 q 1036 595 1006 556 q 1072 711 1065 635 l 1078 765 l 1078 809 q 1006 904 1073 901 q 895 750 910 906 l 889 696 m 581 0 l 454 0 l 280 774 l 145 0 l 28 0 l 200 987 l 326 987 l 502 211 l 637 987 l 752 987 l 581 0 z "},"™":{"ha":744,"x_min":160,"x_max":711,"o":"m 639 880 l 523 623 l 493 623 l 463 895 l 415 623 l 361 623 l 425 987 l 490 987 l 519 718 l 642 987 l 711 987 l 648 623 l 593 623 l 639 880 m 373 932 l 294 932 l 240 623 l 186 623 l 239 932 l 160 932 l 170 987 l 383 987 l 373 932 z "},"℮":{"ha":864,"x_min":88,"x_max":779,"o":"m 640 63 q 387 -13 515 -16 q 227 41 297 -12 q 122 180 156 93 q 98 361 88 268 q 168 552 107 460 q 316 697 228 645 q 498 747 404 750 q 649 698 585 745 q 746 566 713 651 q 771 382 779 481 l 768 349 l 260 349 l 220 125 q 382 52 285 55 q 642 134 497 47 l 640 63 m 503 684 q 306 602 410 686 l 271 413 l 626 413 l 661 608 q 503 684 597 681 z "},"⅛":{"ha":905,"x_min":121,"x_max":813,"o":"m 275 438 l 176 438 l 247 843 l 124 805 l 140 897 l 351 973 l 365 973 l 275 438 m 181 76 l 121 125 l 643 890 l 705 841 l 181 76 m 809 398 q 725 272 806 319 q 782 152 785 232 q 729 35 779 80 q 604 -8 680 -9 q 492 34 534 -8 q 454 140 450 75 q 549 279 460 227 q 501 387 498 317 q 550 500 504 457 q 667 543 596 543 q 773 503 732 543 q 809 398 813 463 m 684 159 q 672 209 686 189 q 629 229 657 229 q 574 205 595 229 q 550 151 554 182 q 559 100 546 122 q 604 79 573 79 q 658 101 636 79 q 684 159 680 124 m 713 390 q 704 437 717 419 q 668 455 692 455 q 616 427 637 455 q 601 359 596 398 q 615 329 603 341 q 645 317 627 317 q 691 339 672 317 q 713 390 711 361 z "},"⅜":{"ha":1000,"x_min":96,"x_max":900,"o":"m 234 758 l 281 758 q 340 781 317 760 q 369 838 364 802 q 360 885 372 866 q 317 904 348 903 q 243 842 264 904 l 144 841 q 198 951 151 909 q 316 991 245 993 q 429 950 386 990 q 467 843 471 910 q 374 718 463 765 q 436 602 439 689 q 380 484 433 530 q 249 440 328 439 q 136 485 177 441 q 97 599 96 529 l 194 599 q 254 528 193 529 q 313 550 290 528 q 341 607 336 572 q 278 680 349 677 l 227 680 l 234 758 m 288 76 l 228 125 l 750 890 l 812 841 l 288 76 m 896 398 q 812 272 892 319 q 869 152 871 232 q 816 35 866 80 q 691 -8 766 -9 q 578 34 621 -8 q 541 140 536 75 q 636 279 547 227 q 588 387 585 317 q 637 500 591 457 q 754 543 683 543 q 860 503 819 543 q 896 398 900 463 m 770 159 q 759 209 773 189 q 715 229 744 229 q 661 205 682 229 q 637 151 641 182 q 646 100 633 122 q 691 79 660 79 q 745 101 723 79 q 770 159 766 124 m 800 390 q 791 437 804 419 q 755 455 779 455 q 703 427 724 455 q 688 359 683 398 q 702 329 690 341 q 732 317 713 317 q 778 339 759 317 q 800 390 798 361 z "},"⅝":{"ha":999,"x_min":96,"x_max":897,"o":"m 125 709 l 201 979 l 470 979 l 454 890 l 268 890 l 232 774 q 301 793 264 792 q 399 748 364 794 q 431 625 435 701 q 378 489 429 543 q 250 436 327 435 q 139 480 182 437 q 96 592 97 523 l 191 591 q 207 540 193 555 q 251 524 222 524 q 316 565 293 524 q 335 657 340 606 q 317 699 332 683 q 277 715 302 715 q 209 687 244 715 l 125 709 m 269 76 l 209 125 l 731 890 l 793 841 l 269 76 m 893 398 q 809 272 890 319 q 866 152 869 232 q 813 35 863 80 q 688 -8 764 -9 q 576 34 618 -8 q 538 140 534 75 q 633 279 544 227 q 585 387 583 317 q 634 500 588 457 q 751 543 680 543 q 857 503 817 543 q 893 398 897 463 m 768 159 q 756 209 770 189 q 713 229 741 229 q 659 205 679 229 q 634 151 638 182 q 644 100 630 122 q 688 79 657 79 q 742 101 720 79 q 768 159 764 124 m 798 390 q 788 437 801 419 q 752 455 776 455 q 701 427 721 455 q 685 359 680 398 q 699 329 687 341 q 729 317 711 317 q 775 339 756 317 q 798 390 795 361 z "},"⅞":{"ha":940,"x_min":116,"x_max":856,"o":"m 494 911 l 227 444 l 116 444 l 383 891 l 142 891 l 158 979 l 505 979 l 494 911 m 215 76 l 155 125 l 677 890 l 739 841 l 215 76 m 852 398 q 768 272 848 319 q 825 152 827 232 q 772 35 822 80 q 647 -8 722 -9 q 534 34 576 -8 q 496 140 492 75 q 592 279 503 227 q 544 387 541 317 q 593 500 547 457 q 710 543 639 543 q 815 503 775 543 q 852 398 856 463 m 726 159 q 714 209 729 189 q 671 229 700 229 q 617 205 637 229 q 593 151 597 182 q 602 100 589 122 q 647 79 616 79 q 701 101 679 79 q 726 159 722 124 m 756 390 q 747 437 760 419 q 711 455 734 455 q 659 427 680 455 q 644 359 639 398 q 657 329 646 341 q 688 317 669 317 q 734 339 715 317 q 756 390 753 361 z "},"∂":{"ha":677,"x_min":57,"x_max":640,"o":"m 368 693 q 519 594 462 690 l 522 651 q 488 841 525 768 q 383 917 451 914 q 300 907 340 919 q 220 879 260 895 l 222 982 q 398 1027 314 1029 q 579 926 519 1026 q 634 633 640 826 q 610 408 631 525 q 554 207 590 290 q 281 -15 457 -19 q 122 62 180 -12 q 60 262 64 136 q 94 478 57 374 q 203 639 131 581 q 368 693 275 696 m 372 591 q 247 531 298 593 q 180 342 196 469 l 176 294 q 200 144 172 199 q 288 87 228 90 q 417 160 365 83 q 492 402 469 237 l 498 448 q 465 547 501 506 q 372 591 428 588 z "},"∏":{"ha":835,"x_min":19,"x_max":814,"o":"m 637 -144 l 520 -144 l 681 884 l 297 884 l 136 -144 l 19 -144 l 196 987 l 814 987 l 637 -144 z "},"∑":{"ha":699,"x_min":-50,"x_max":734,"o":"m 511 391 l 106 -79 l 593 -79 l 575 -182 l -50 -182 l -32 -79 l 391 406 l 137 897 l 153 987 l 734 987 l 715 884 l 263 884 l 513 409 l 511 391 z "},"−":{"ha":680,"x_min":112,"x_max":592,"o":"m 574 441 l 112 441 l 130 544 l 592 544 l 574 441 z "},"√":{"ha":729,"x_min":51,"x_max":792,"o":"m 298 216 l 668 987 l 792 987 l 312 0 l 224 0 l 159 426 l 51 426 l 69 530 l 258 530 l 298 216 z "},"∞":{"ha":1184,"x_min":51,"x_max":1110,"o":"m 776 -14 q 638 52 696 -12 q 559 220 580 116 l 516 148 q 275 -15 410 -18 q 99 96 158 -12 q 53 277 58 172 q 55 355 51 318 l 60 387 q 124 577 77 492 q 238 706 172 662 q 381 747 304 749 q 518 682 460 745 q 598 514 576 619 q 692 653 651 607 q 780 724 733 699 q 884 748 827 749 q 1040 666 981 745 q 1104 458 1098 587 q 1064 224 1110 340 q 943 44 1019 107 q 776 -14 868 -18 m 169 304 q 193 146 164 204 q 283 87 222 88 q 372 119 327 85 q 456 220 416 153 q 515 355 495 286 l 520 383 q 502 507 522 443 q 447 607 481 571 q 374 644 414 642 q 272 605 316 646 q 200 481 227 564 q 169 304 172 398 m 989 428 q 965 585 994 526 q 876 646 936 644 q 743 569 808 647 q 642 378 677 492 l 637 351 q 654 230 634 296 q 708 127 674 164 q 783 88 741 90 q 881 123 836 85 q 954 241 925 161 q 989 428 983 321 z "},"∫":{"ha":324,"x_min":-129,"x_max":476,"o":"m 152 -73 q 84 -242 139 -184 q -59 -298 29 -300 q -129 -283 -92 -297 l -109 -185 q -66 -196 -78 -195 q 0 -166 -26 -198 q 34 -73 26 -134 l 168 812 q 239 995 181 930 q 390 1058 298 1059 q 476 1043 416 1058 l 454 946 q 406 955 424 955 q 283 804 307 957 l 152 -73 z "},"≈":{"ha":671,"x_min":35,"x_max":629,"o":"m 95 611 q 241 686 160 685 q 346 650 292 686 q 418 604 400 614 q 481 588 446 589 q 601 646 541 588 l 629 674 l 614 546 q 476 472 549 472 q 389 500 433 472 l 359 519 q 290 561 316 551 q 238 570 264 570 q 83 484 164 568 l 95 611 m 47 328 q 193 404 112 402 q 259 389 230 404 q 318 353 288 374 q 373 319 348 332 q 432 304 398 305 q 580 391 501 304 l 566 263 q 428 189 501 189 q 341 217 385 189 l 311 237 q 242 278 267 269 q 190 287 218 287 q 35 201 115 285 l 47 328 z "},"≠":{"ha":652,"x_min":73,"x_max":604,"o":"m 535 271 l 248 271 l 140 106 l 85 151 l 163 271 l 73 271 l 92 379 l 234 379 l 347 552 l 122 552 l 141 661 l 418 661 l 534 838 l 590 793 l 503 661 l 604 661 l 584 552 l 432 552 l 319 379 l 555 379 l 535 271 z "},"≤":{"ha":608,"x_min":-25,"x_max":574,"o":"m 183 456 l 489 301 l 467 188 l 60 420 l 78 509 l 574 740 l 549 613 l 183 456 m 437 1 l -25 1 l -7 104 l 455 104 l 437 1 z "},"≥":{"ha":627,"x_min":18,"x_max":591,"o":"m 466 478 l 140 636 l 161 746 l 591 514 l 574 426 l 54 194 l 79 318 l 466 478 m 481 1 l 18 1 l 37 103 l 498 103 l 481 1 z "},"◊":{"ha":603,"x_min":50,"x_max":576,"o":"m 351 987 l 439 987 l 576 486 l 277 0 l 189 0 l 50 500 l 351 987 m 375 840 l 167 486 l 252 146 l 460 500 l 375 840 z "},"":{"ha":372,"x_min":81,"x_max":335,"o":"m 156 263 q 211 243 189 264 q 232 189 233 222 q 210 135 231 155 q 155 113 188 114 q 102 131 123 111 q 81 184 81 151 q 102 240 81 218 q 156 263 123 262 m 258 861 q 313 841 292 862 q 334 787 335 820 q 312 733 334 753 q 258 711 290 712 q 204 729 225 709 q 183 783 183 749 q 204 838 183 816 q 258 861 225 860 z "},"":{"ha":410,"x_min":76,"x_max":397,"o":"m 163 429 l 76 429 l 129 734 l 217 734 l 163 429 m 345 429 l 256 429 l 310 734 l 397 734 l 345 429 z "},"":{"ha":324,"x_min":-22,"x_max":168,"o":"m 41 -109 l -22 -59 q 45 96 29 20 l 57 162 l 168 162 l 161 117 q 41 -109 140 -24 z "},"ﬁ":{"ha":667,"x_min":48,"x_max":618,"o":"m 48 0 l 159 637 l 66 637 l 83 734 l 175 734 l 184 797 q 272 992 201 924 q 448 1057 342 1060 q 530 1043 490 1056 q 608 1014 569 1029 l 576 909 q 450 945 513 945 q 304 806 328 947 l 293 734 l 408 734 l 391 637 l 277 637 l 166 0 l 48 0 m 490 0 l 372 0 l 500 734 l 618 734 l 490 0 z "},"ﬂ":{"ha":686,"x_min":67,"x_max":682,"o":"m 552 939 q 456 952 488 952 q 321 799 343 952 l 311 734 l 433 734 l 416 637 l 295 637 l 184 0 l 67 0 l 178 637 l 85 637 l 102 734 l 195 734 l 206 815 q 288 996 222 932 q 453 1058 353 1061 q 573 1041 505 1057 l 682 1015 l 509 0 l 393 0 l 552 939 z "},"ﬃ":{"ha":1010,"x_min":67,"x_max":960,"o":"m 67 0 l 178 637 l 85 637 l 102 734 l 195 734 l 204 806 q 284 995 220 928 q 446 1058 348 1061 q 522 1045 481 1057 l 505 943 q 451 951 477 950 q 322 803 346 951 l 311 734 l 519 734 l 526 788 q 611 987 542 916 q 791 1057 680 1059 q 873 1043 833 1056 q 951 1014 912 1030 l 920 909 q 792 944 857 944 q 646 806 671 946 l 635 734 l 752 734 l 735 637 l 619 637 l 509 0 l 391 0 l 502 637 l 295 637 l 184 0 l 67 0 m 833 0 l 716 0 l 844 734 l 960 734 l 833 0 z "},"ﬄ":{"ha":1010,"x_min":67,"x_max":1005,"o":"m 67 0 l 178 637 l 85 637 l 102 734 l 195 734 l 205 810 q 286 996 222 932 q 446 1058 349 1060 q 522 1045 481 1057 l 505 943 q 451 951 472 951 q 369 918 403 953 q 324 815 336 882 l 311 734 l 519 734 l 530 815 q 612 996 547 932 q 777 1058 677 1061 q 884 1043 820 1057 l 1005 1015 l 833 0 l 716 0 l 880 937 q 781 951 810 951 q 693 916 728 951 q 647 812 659 880 l 635 734 l 758 734 l 741 637 l 619 637 l 509 0 l 391 0 l 502 637 l 295 637 l 184 0 l 67 0 z "},"﻿":{"ha":0,"x_min":0,"x_max":0,"o":""},"￼":{"ha":1388,"x_min":-58,"x_max":1436,"o":"m 532 317 q 478 208 525 249 q 366 168 431 166 q 263 210 302 169 q 227 317 224 252 l 233 392 q 285 502 238 460 q 397 543 332 544 q 500 500 460 541 q 538 393 539 458 l 532 317 m 545 171 l 610 543 l 726 543 q 822 515 789 541 q 852 446 854 490 q 832 394 850 413 q 787 360 813 374 q 840 281 840 340 q 825 226 840 248 q 699 170 789 173 l 545 171 m 477 395 q 461 467 480 440 q 403 494 442 493 q 334 469 363 496 q 296 394 304 443 l 288 317 q 302 246 283 274 q 362 217 321 218 q 432 243 403 216 q 468 317 460 271 l 477 395 m 1130 545 l 1196 545 l 1156 288 q 1113 203 1149 234 q 1024 172 1076 172 q 934 200 968 172 q 899 286 899 228 l 959 284 q 1016 221 956 220 q 1065 241 1046 222 q 1090 288 1084 260 l 1130 545 m -58 -270 l -20 -56 l 55 -56 l 31 -193 l 160 -193 l 146 -270 l -58 -270 m 1014 -270 l 1027 -193 l 1158 -193 l 1182 -56 l 1256 -56 l 1219 -270 l 1014 -270 m 126 793 l 160 986 l 364 986 l 351 907 l 222 907 l 201 793 l 126 793 m 1218 907 l 1232 986 l 1436 986 l 1402 793 l 1329 793 l 1349 907 l 1218 907 m 638 336 l 618 222 l 693 222 q 778 282 768 225 q 731 336 787 331 l 638 336 m 955 907 l 969 986 l 1153 986 l 1139 907 l 955 907 m 692 907 l 707 986 l 890 986 l 876 907 l 692 907 m 430 907 l 444 986 l 627 986 l 612 907 l 430 907 m 751 -270 l 765 -193 l 949 -193 l 935 -270 l 751 -270 m 489 -270 l 503 -193 l 686 -193 l 672 -270 l 489 -270 m 227 -270 l 240 -193 l 422 -193 l 409 -270 l 227 -270 m 642 382 l 701 383 q 793 442 785 387 q 753 484 800 479 l 731 486 l 667 487 l 642 382 m 113 282 l 37 282 l 68 453 l 143 453 l 113 282 m 157 538 l 82 538 l 112 708 l 187 708 l 157 538 m 68 28 l -7 28 l 24 197 l 99 197 l 68 28 m 1314 282 l 1240 282 l 1270 453 l 1344 453 l 1314 282 m 1358 538 l 1284 538 l 1315 708 l 1389 708 l 1358 538 m 1270 28 l 1196 28 l 1226 197 l 1300 197 l 1270 28 z "},"�":{"ha":1425,"x_min":62,"x_max":1361,"o":"m 711 1097 l 1361 436 l 711 -225 l 62 436 l 711 1097 m 767 273 q 777 332 767 312 q 812 368 787 351 q 893 440 862 394 q 924 536 924 486 q 868 674 924 623 q 710 725 811 725 q 558 678 612 725 q 503 545 504 631 l 640 545 q 661 597 642 579 q 710 614 681 614 q 768 593 749 614 q 787 536 787 571 q 724 431 787 471 q 646 355 662 387 q 630 273 630 324 l 767 273 m 767 211 l 630 211 l 630 96 l 767 96 l 767 211 m 716 -374 l 719 -374 l 719 -376 l 716 -376 l 716 -374 m 715 1467 l 718 1467 l 718 1464 l 715 1464 l 715 1467 z "}," ":{"ha":315,"x_min":0,"x_max":0,"o":""},"­":{"ha":341,"x_min":24,"x_max":315,"o":"m 296 368 l 24 368 l 42 471 l 315 471 l 296 368 z "},"Đ":{"ha":796,"x_min":19,"x_max":756,"o":"m 53 0 l 131 452 l 19 452 l 37 554 l 149 554 l 224 987 l 445 987 q 679 871 602 983 q 733 576 756 759 l 709 418 q 566 107 679 215 q 280 0 454 -1 l 53 0 m 376 452 l 252 452 l 193 106 l 281 106 q 486 181 408 104 q 589 414 565 258 l 614 579 q 619 686 621 633 q 571 826 616 776 q 441 880 526 877 l 327 880 l 270 554 l 395 554 l 376 452 z "},"Ð":{"ha":796,"x_min":19,"x_max":756,"o":"m 53 0 l 131 452 l 19 452 l 37 554 l 149 554 l 224 987 l 445 987 q 679 871 602 983 q 733 576 756 759 l 709 418 q 566 107 679 215 q 280 0 454 -1 l 53 0 m 376 452 l 252 452 l 193 106 l 281 106 q 486 181 408 104 q 589 414 565 258 l 614 579 q 619 686 621 633 q 571 826 616 776 q 441 880 526 877 l 327 880 l 270 554 l 395 554 l 376 452 z "},"ħ":{"ha":677,"x_min":36,"x_max":600,"o":"m 421 837 l 296 837 l 262 658 q 440 747 344 749 q 551 700 511 746 q 597 572 591 654 q 595 481 600 526 l 515 0 l 398 0 l 479 483 l 481 536 q 396 642 481 640 q 266 563 326 644 l 245 534 l 153 0 l 36 0 l 181 837 l 64 837 l 82 939 l 199 939 l 217 1042 l 334 1042 l 315 939 l 439 939 l 421 837 z "},"Ŧ":{"ha":708,"x_min":121,"x_max":764,"o":"m 564 558 l 437 558 l 341 0 l 220 0 l 316 558 l 206 558 l 224 661 l 334 661 l 372 880 l 121 880 l 140 987 l 764 987 l 745 880 l 494 880 l 455 661 l 582 661 l 564 558 z "},"ŧ":{"ha":405,"x_min":1,"x_max":404,"o":"m 359 408 l 241 408 l 203 180 l 201 153 q 243 96 199 96 q 292 102 259 95 l 281 0 q 205 -12 243 -14 q 112 39 143 -12 q 89 182 81 90 l 125 408 l 1 408 l 20 511 l 142 511 l 163 637 l 54 637 l 72 734 l 180 734 l 211 911 l 328 911 l 296 734 l 404 734 l 387 637 l 280 637 l 258 511 l 377 511 l 359 408 z "},"À":{"ha":783,"x_min":-45,"x_max":677,"o":"m 526 258 l 203 258 l 84 0 l -45 0 l 435 987 l 539 987 l 677 0 l 557 0 l 526 258 m 254 365 l 513 365 l 461 812 l 254 365 m 570 1053 l 473 1053 l 334 1252 l 473 1252 l 570 1053 z "},"Á":{"ha":783,"x_min":-45,"x_max":747,"o":"m 526 258 l 203 258 l 84 0 l -45 0 l 435 987 l 539 987 l 677 0 l 557 0 l 526 258 m 254 365 l 513 365 l 461 812 l 254 365 m 590 1252 l 747 1252 l 539 1053 l 431 1053 l 590 1252 z "},"Â":{"ha":783,"x_min":-45,"x_max":680,"o":"m 526 258 l 203 258 l 84 0 l -45 0 l 435 987 l 539 987 l 677 0 l 557 0 l 526 258 m 254 365 l 513 365 l 461 812 l 254 365 m 680 1067 l 680 1058 l 586 1059 l 529 1174 l 429 1060 l 334 1059 l 334 1068 l 498 1252 l 565 1252 l 680 1067 z "},"Ã":{"ha":783,"x_min":-45,"x_max":726,"o":"m 526 258 l 203 258 l 84 0 l -45 0 l 435 987 l 539 987 l 677 0 l 557 0 l 526 258 m 254 365 l 513 365 l 461 812 l 254 365 m 726 1231 q 683 1109 719 1156 q 592 1065 648 1063 q 552 1076 570 1065 q 519 1099 535 1086 q 486 1122 503 1112 q 448 1131 469 1132 q 382 1055 402 1129 l 306 1060 q 350 1182 313 1135 q 442 1228 387 1230 q 515 1193 473 1227 q 587 1161 556 1160 q 654 1238 633 1163 l 726 1231 z "},"Ä":{"ha":783,"x_min":-45,"x_max":732,"o":"m 526 258 l 203 258 l 84 0 l -45 0 l 435 987 l 539 987 l 677 0 l 557 0 l 526 258 m 254 365 l 513 365 l 461 812 l 254 365 m 304 1139 q 325 1191 305 1170 q 377 1213 345 1211 q 429 1193 408 1213 q 449 1141 450 1173 q 429 1090 449 1110 q 376 1068 408 1069 q 325 1087 345 1067 q 304 1139 304 1107 m 587 1137 q 608 1190 588 1168 q 659 1212 627 1211 q 712 1193 692 1213 q 732 1140 732 1173 q 711 1088 732 1108 q 659 1067 691 1068 q 607 1086 628 1066 q 587 1137 587 1105 z "},"Å":{"ha":783,"x_min":-45,"x_max":677,"o":"m 526 258 l 203 258 l 84 0 l -45 0 l 435 987 l 539 987 l 677 0 l 557 0 l 526 258 m 254 365 l 513 365 l 461 812 l 254 365 m 383 1167 q 428 1272 385 1229 q 532 1314 472 1314 q 627 1275 588 1314 q 666 1178 666 1236 q 621 1076 665 1118 q 517 1034 577 1034 q 421 1072 460 1034 q 383 1167 382 1111 m 448 1168 q 464 1116 446 1137 q 511 1095 482 1095 q 569 1119 543 1095 q 600 1177 596 1143 q 585 1230 604 1208 q 538 1253 566 1253 q 479 1228 507 1253 q 448 1168 452 1203 z "},"Ǻ":{"ha":783,"x_min":-45,"x_max":726,"o":"m 526 258 l 203 258 l 84 0 l -45 0 l 435 987 l 539 987 l 677 0 l 557 0 l 526 258 m 254 365 l 513 365 l 461 812 l 254 365 m 600 1316 l 726 1315 l 578 1192 l 499 1192 l 600 1316 m 507 1159 q 573 1127 547 1160 q 600 1049 600 1095 q 571 968 600 1002 q 501 934 543 934 q 434 963 462 932 q 406 1041 406 994 q 435 1123 406 1088 q 507 1159 465 1159 m 456 1042 q 493 987 456 987 q 529 1006 513 987 q 549 1048 546 1025 l 550 1067 q 515 1105 545 1105 q 456 1042 477 1105 z "},"Ç":{"ha":770,"x_min":76,"x_max":757,"o":"m 683 314 q 568 71 661 159 q 334 -14 475 -18 q 197 28 255 -12 q 109 142 140 67 q 77 308 78 216 q 82 402 76 356 l 109 576 q 243 892 141 779 q 498 1001 346 1004 q 691 912 625 999 q 751 669 757 825 l 629 670 q 618 798 631 754 q 574 868 605 842 q 491 895 544 893 q 323 818 389 898 q 232 577 256 737 l 205 401 q 198 272 195 330 q 240 138 203 183 q 340 92 277 94 q 483 138 429 88 q 564 313 537 189 l 683 314 m 359 -6 l 347 -43 q 396 -81 378 -52 q 412 -154 413 -110 q 360 -260 410 -221 q 220 -302 310 -299 l 223 -229 q 321 -157 313 -222 q 276 -102 328 -111 l 248 -97 l 276 -6 l 359 -6 z "},"È":{"ha":675,"x_min":33,"x_max":713,"o":"m 572 456 l 233 456 l 172 106 l 567 106 l 548 0 l 33 0 l 203 987 l 713 987 l 694 880 l 307 880 l 251 563 l 590 563 l 572 456 m 536 1061 l 439 1061 l 300 1260 l 439 1260 l 536 1061 z "},"É":{"ha":675,"x_min":33,"x_max":713,"o":"m 572 456 l 233 456 l 172 106 l 567 106 l 548 0 l 33 0 l 203 987 l 713 987 l 694 880 l 307 880 l 251 563 l 590 563 l 572 456 m 556 1260 l 713 1260 l 505 1061 l 397 1061 l 556 1260 z "},"Ê":{"ha":675,"x_min":33,"x_max":713,"o":"m 572 456 l 233 456 l 172 106 l 567 106 l 548 0 l 33 0 l 203 987 l 713 987 l 694 880 l 307 880 l 251 563 l 590 563 l 572 456 m 646 1076 l 646 1066 l 552 1067 l 495 1182 l 395 1068 l 300 1067 l 300 1076 l 464 1260 l 531 1260 l 646 1076 z "},"Ë":{"ha":675,"x_min":33,"x_max":713,"o":"m 572 456 l 233 456 l 172 106 l 567 106 l 548 0 l 33 0 l 203 987 l 713 987 l 694 880 l 307 880 l 251 563 l 590 563 l 572 456 m 271 1147 q 291 1199 271 1178 q 343 1221 311 1219 q 395 1201 374 1221 q 415 1149 416 1181 q 395 1098 415 1118 q 342 1076 374 1078 q 291 1095 311 1076 q 271 1147 271 1115 m 553 1145 q 574 1198 554 1177 q 625 1220 593 1219 q 678 1201 658 1221 q 698 1148 699 1181 q 677 1096 698 1116 q 625 1075 657 1076 q 573 1094 594 1074 q 553 1145 553 1114 z "},"Ì":{"ha":344,"x_min":37,"x_max":349,"o":"m 159 0 l 37 0 l 209 987 l 330 987 l 159 0 m 349 1061 l 252 1061 l 113 1260 l 252 1260 l 349 1061 z "},"Í":{"ha":344,"x_min":37,"x_max":525,"o":"m 159 0 l 37 0 l 209 987 l 330 987 l 159 0 m 368 1260 l 525 1260 l 317 1061 l 210 1061 l 368 1260 z "},"Î":{"ha":344,"x_min":37,"x_max":458,"o":"m 159 0 l 37 0 l 209 987 l 330 987 l 159 0 m 458 1076 l 458 1066 l 365 1067 l 308 1182 l 208 1068 l 113 1067 l 113 1076 l 277 1260 l 344 1260 l 458 1076 z "},"Ï":{"ha":344,"x_min":37,"x_max":511,"o":"m 159 0 l 37 0 l 209 987 l 330 987 l 159 0 m 83 1147 q 104 1199 84 1178 q 156 1221 123 1219 q 208 1201 187 1221 q 228 1149 229 1181 q 208 1098 228 1118 q 155 1076 187 1078 q 103 1095 123 1076 q 83 1147 83 1115 m 366 1145 q 387 1198 367 1177 q 438 1220 406 1219 q 491 1201 471 1221 q 511 1148 511 1181 q 490 1096 511 1116 q 438 1075 470 1076 q 386 1094 407 1074 q 366 1145 366 1114 z "},"Ñ":{"ha":841,"x_min":33,"x_max":830,"o":"m 659 0 l 541 0 l 288 766 l 155 0 l 33 0 l 203 987 l 322 987 l 576 218 l 709 987 l 830 987 l 659 0 m 750 1231 q 707 1109 743 1156 q 616 1065 671 1063 q 576 1076 593 1065 q 543 1099 559 1086 q 509 1122 526 1112 q 471 1131 492 1132 q 406 1055 426 1129 l 330 1060 q 374 1182 337 1135 q 466 1228 410 1230 q 538 1193 497 1227 q 611 1161 580 1160 q 677 1238 656 1163 l 750 1231 z "},"Ò":{"ha":816,"x_min":78,"x_max":761,"o":"m 343 -14 q 150 75 220 -11 q 79 309 81 160 q 84 407 78 358 l 113 591 q 246 896 146 788 q 496 1001 345 1004 q 680 924 612 998 q 759 714 748 850 l 761 677 q 755 578 761 627 l 726 391 q 593 88 691 193 q 343 -14 494 -17 m 634 581 l 640 647 q 608 826 647 766 q 489 890 570 887 q 323 818 388 893 q 233 593 258 742 l 203 397 l 199 342 q 231 162 192 226 q 351 96 270 99 q 602 374 549 90 l 634 581 m 586 1054 l 490 1054 l 351 1253 l 490 1253 l 586 1054 z "},"Ó":{"ha":816,"x_min":78,"x_max":763,"o":"m 343 -14 q 150 75 220 -11 q 79 309 81 160 q 84 407 78 358 l 113 591 q 246 896 146 788 q 496 1001 345 1004 q 680 924 612 998 q 759 714 748 850 l 761 677 q 755 578 761 627 l 726 391 q 593 88 691 193 q 343 -14 494 -17 m 634 581 l 640 647 q 608 826 647 766 q 489 890 570 887 q 323 818 388 893 q 233 593 258 742 l 203 397 l 199 342 q 231 162 192 226 q 351 96 270 99 q 602 374 549 90 l 634 581 m 606 1253 l 763 1253 l 555 1054 l 448 1054 l 606 1253 z "},"Ô":{"ha":816,"x_min":78,"x_max":761,"o":"m 343 -14 q 150 75 220 -11 q 79 309 81 160 q 84 407 78 358 l 113 591 q 246 896 146 788 q 496 1001 345 1004 q 680 924 612 998 q 759 714 748 850 l 761 677 q 755 578 761 627 l 726 391 q 593 88 691 193 q 343 -14 494 -17 m 634 581 l 640 647 q 608 826 647 766 q 489 890 570 887 q 323 818 388 893 q 233 593 258 742 l 203 397 l 199 342 q 231 162 192 226 q 351 96 270 99 q 602 374 549 90 l 634 581 m 696 1069 l 696 1059 l 602 1061 l 545 1175 l 445 1061 l 350 1060 l 350 1069 l 514 1253 l 581 1253 l 696 1069 z "},"Õ":{"ha":816,"x_min":78,"x_max":761,"o":"m 343 -14 q 150 75 220 -11 q 79 309 81 160 q 84 407 78 358 l 113 591 q 246 896 146 788 q 496 1001 345 1004 q 680 924 612 998 q 759 714 748 850 l 761 677 q 755 578 761 627 l 726 391 q 593 88 691 193 q 343 -14 494 -17 m 634 581 l 640 647 q 608 826 647 766 q 489 890 570 887 q 323 818 388 893 q 233 593 258 742 l 203 397 l 199 342 q 231 162 192 226 q 351 96 270 99 q 602 374 549 90 l 634 581 m 743 1232 q 700 1111 735 1157 q 608 1066 664 1065 q 569 1077 586 1066 q 535 1101 551 1088 q 502 1123 519 1114 q 464 1133 485 1133 q 398 1057 418 1131 l 322 1061 q 366 1183 330 1136 q 458 1230 403 1231 q 531 1195 490 1228 q 604 1162 572 1161 q 670 1239 649 1164 l 743 1232 z "},"Ö":{"ha":816,"x_min":78,"x_max":761,"o":"m 343 -14 q 150 75 220 -11 q 79 309 81 160 q 84 407 78 358 l 113 591 q 246 896 146 788 q 496 1001 345 1004 q 680 924 612 998 q 759 714 748 850 l 761 677 q 755 578 761 627 l 726 391 q 593 88 691 193 q 343 -14 494 -17 m 634 581 l 640 647 q 608 826 647 766 q 489 890 570 887 q 323 818 388 893 q 233 593 258 742 l 203 397 l 199 342 q 231 162 192 226 q 351 96 270 99 q 602 374 549 90 l 634 581 m 321 1140 q 341 1192 321 1171 q 393 1214 361 1213 q 445 1195 425 1215 q 465 1143 466 1175 q 445 1091 465 1112 q 393 1069 425 1071 q 341 1088 361 1069 q 321 1140 321 1108 m 604 1139 q 624 1191 604 1170 q 675 1213 644 1212 q 728 1194 708 1214 q 748 1141 749 1174 q 728 1089 748 1109 q 675 1068 707 1069 q 624 1087 644 1067 q 604 1139 603 1107 z "},"Ù":{"ha":764,"x_min":60,"x_max":784,"o":"m 784 987 l 665 292 q 555 65 646 147 q 326 -15 464 -18 q 128 70 195 -12 q 76 292 60 151 l 194 987 l 315 987 l 197 291 q 196 215 192 250 q 333 92 208 96 q 473 137 419 89 q 543 283 526 186 l 662 987 l 784 987 m 557 1053 l 461 1053 l 322 1252 l 461 1252 l 557 1053 z "},"Ú":{"ha":764,"x_min":60,"x_max":784,"o":"m 784 987 l 665 292 q 555 65 646 147 q 326 -15 464 -18 q 128 70 195 -12 q 76 292 60 151 l 194 987 l 315 987 l 197 291 q 196 215 192 250 q 333 92 208 96 q 473 137 419 89 q 543 283 526 186 l 662 987 l 784 987 m 578 1252 l 734 1252 l 527 1053 l 419 1053 l 578 1252 z "},"Û":{"ha":764,"x_min":60,"x_max":784,"o":"m 784 987 l 665 292 q 555 65 646 147 q 326 -15 464 -18 q 128 70 195 -12 q 76 292 60 151 l 194 987 l 315 987 l 197 291 q 196 215 192 250 q 333 92 208 96 q 473 137 419 89 q 543 283 526 186 l 662 987 l 784 987 m 667 1067 l 667 1058 l 574 1059 l 517 1174 l 416 1060 l 321 1059 l 321 1068 l 486 1252 l 553 1252 l 667 1067 z "},"Ü":{"ha":764,"x_min":60,"x_max":784,"o":"m 784 987 l 665 292 q 555 65 646 147 q 326 -15 464 -18 q 128 70 195 -12 q 76 292 60 151 l 194 987 l 315 987 l 197 291 q 196 215 192 250 q 333 92 208 96 q 473 137 419 89 q 543 283 526 186 l 662 987 l 784 987 m 292 1139 q 313 1191 293 1170 q 365 1213 332 1211 q 417 1193 396 1213 q 437 1141 437 1173 q 416 1090 437 1110 q 364 1068 396 1069 q 312 1087 332 1067 q 292 1139 292 1107 m 575 1137 q 595 1190 576 1168 q 647 1212 615 1211 q 700 1193 680 1213 q 720 1140 720 1173 q 699 1088 720 1108 q 647 1067 679 1068 q 595 1086 616 1066 q 575 1137 574 1105 z "},"Ý":{"ha":713,"x_min":123,"x_max":789,"o":"m 364 493 l 646 987 l 789 987 l 405 361 l 342 0 l 221 0 l 287 376 l 123 987 l 255 987 l 364 493 m 555 1252 l 711 1252 l 504 1053 l 396 1053 l 555 1252 z "},"à":{"ha":652,"x_min":37,"x_max":582,"o":"m 392 0 q 389 40 388 20 l 391 80 q 223 -14 313 -14 q 86 43 135 -14 q 42 195 37 100 q 136 377 50 309 q 363 446 222 446 l 444 446 l 456 524 q 364 645 468 645 q 275 613 311 645 q 230 531 239 582 l 114 530 q 198 686 123 623 q 376 748 274 749 q 529 687 475 747 q 572 522 582 628 l 512 160 q 507 86 506 121 l 511 12 l 510 0 l 392 0 m 248 94 q 399 180 336 94 l 430 356 l 376 357 q 254 331 307 357 q 178 261 200 306 q 163 163 156 216 q 248 94 172 94 m 477 842 l 381 842 l 242 1042 l 381 1042 l 477 842 z "},"á":{"ha":652,"x_min":37,"x_max":654,"o":"m 392 0 q 389 40 388 20 l 391 80 q 223 -14 313 -14 q 86 43 135 -14 q 42 195 37 100 q 136 377 50 309 q 363 446 222 446 l 444 446 l 456 524 q 364 645 468 645 q 275 613 311 645 q 230 531 239 582 l 114 530 q 198 686 123 623 q 376 748 274 749 q 529 687 475 747 q 572 522 582 628 l 512 160 q 507 86 506 121 l 511 12 l 510 0 l 392 0 m 248 94 q 399 180 336 94 l 430 356 l 376 357 q 254 331 307 357 q 178 261 200 306 q 163 163 156 216 q 248 94 172 94 m 498 1042 l 654 1042 l 447 842 l 339 842 l 498 1042 z "},"â":{"ha":652,"x_min":37,"x_max":587,"o":"m 392 0 q 389 40 388 20 l 391 80 q 223 -14 313 -14 q 86 43 135 -14 q 42 195 37 100 q 136 377 50 309 q 363 446 222 446 l 444 446 l 456 524 q 364 645 468 645 q 275 613 311 645 q 230 531 239 582 l 114 530 q 198 686 123 623 q 376 748 274 749 q 529 687 475 747 q 572 522 582 628 l 512 160 q 507 86 506 121 l 511 12 l 510 0 l 392 0 m 248 94 q 399 180 336 94 l 430 356 l 376 357 q 254 331 307 357 q 178 261 200 306 q 163 163 156 216 q 248 94 172 94 m 587 857 l 587 848 l 494 849 l 437 964 l 336 850 l 241 848 l 241 858 l 406 1042 l 473 1042 l 587 857 z "},"ã":{"ha":652,"x_min":37,"x_max":634,"o":"m 392 0 q 389 40 388 20 l 391 80 q 223 -14 313 -14 q 86 43 135 -14 q 42 195 37 100 q 136 377 50 309 q 363 446 222 446 l 444 446 l 456 524 q 364 645 468 645 q 275 613 311 645 q 230 531 239 582 l 114 530 q 198 686 123 623 q 376 748 274 749 q 529 687 475 747 q 572 522 582 628 l 512 160 q 507 86 506 121 l 511 12 l 510 0 l 392 0 m 248 94 q 399 180 336 94 l 430 356 l 376 357 q 254 331 307 357 q 178 261 200 306 q 163 163 156 216 q 248 94 172 94 m 634 1021 q 591 899 627 945 q 500 854 555 853 q 460 865 477 854 q 427 889 443 876 q 393 912 410 902 q 355 921 376 922 q 290 845 310 919 l 214 850 q 258 972 221 924 q 350 1018 294 1019 q 422 983 381 1017 q 495 951 464 949 q 562 1027 541 953 l 634 1021 z "},"ä":{"ha":652,"x_min":37,"x_max":640,"o":"m 392 0 q 389 40 388 20 l 391 80 q 223 -14 313 -14 q 86 43 135 -14 q 42 195 37 100 q 136 377 50 309 q 363 446 222 446 l 444 446 l 456 524 q 364 645 468 645 q 275 613 311 645 q 230 531 239 582 l 114 530 q 198 686 123 623 q 376 748 274 749 q 529 687 475 747 q 572 522 582 628 l 512 160 q 507 86 506 121 l 511 12 l 510 0 l 392 0 m 248 94 q 399 180 336 94 l 430 356 l 376 357 q 254 331 307 357 q 178 261 200 306 q 163 163 156 216 q 248 94 172 94 m 212 928 q 233 980 213 960 q 285 1002 252 1001 q 337 983 316 1003 q 357 931 357 963 q 336 880 357 900 q 284 858 316 859 q 232 877 252 857 q 212 928 212 897 m 495 927 q 515 979 496 958 q 567 1002 535 1000 q 620 982 600 1002 q 640 930 640 962 q 619 878 640 898 q 567 857 599 858 q 515 876 536 856 q 495 927 494 895 z "},"å":{"ha":652,"x_min":37,"x_max":582,"o":"m 392 0 q 389 40 388 20 l 391 80 q 223 -14 313 -14 q 86 43 135 -14 q 42 195 37 100 q 136 377 50 309 q 363 446 222 446 l 444 446 l 456 524 q 364 645 468 645 q 275 613 311 645 q 230 531 239 582 l 114 530 q 198 686 123 623 q 376 748 274 749 q 529 687 475 747 q 572 522 582 628 l 512 160 q 507 86 506 121 l 511 12 l 510 0 l 392 0 m 248 94 q 399 180 336 94 l 430 356 l 376 357 q 254 331 307 357 q 178 261 200 306 q 163 163 156 216 q 248 94 172 94 m 291 957 q 336 1061 292 1019 q 440 1104 380 1104 q 535 1065 496 1104 q 574 968 574 1025 q 529 865 572 907 q 425 823 485 823 q 329 862 368 823 q 291 957 290 901 m 356 958 q 372 906 353 927 q 419 884 390 884 q 477 908 450 884 q 508 966 504 932 q 493 1020 512 998 q 446 1042 474 1042 q 387 1018 414 1042 q 356 958 360 993 z "},"ǻ":{"ha":652,"x_min":37,"x_max":633,"o":"m 392 0 q 389 40 388 20 l 391 80 q 223 -14 313 -14 q 86 43 135 -14 q 42 195 37 100 q 136 377 50 309 q 363 446 222 446 l 444 446 l 456 524 q 364 645 468 645 q 275 613 311 645 q 230 531 239 582 l 114 530 q 198 686 123 623 q 376 748 274 749 q 529 687 475 747 q 572 522 582 628 l 512 160 q 507 86 506 121 l 511 12 l 510 0 l 392 0 m 248 94 q 399 180 336 94 l 430 356 l 376 357 q 254 331 307 357 q 178 261 200 306 q 163 163 156 216 q 248 94 172 94 m 507 1106 l 633 1105 l 486 982 l 407 982 l 507 1106 m 414 949 q 481 918 454 951 q 507 840 507 885 q 479 759 507 793 q 409 724 450 724 q 341 754 370 723 q 313 831 313 785 q 343 914 313 878 q 414 949 372 949 m 363 833 q 401 778 363 778 q 437 797 420 778 q 457 838 454 815 l 458 857 q 423 895 452 895 q 363 833 385 895 z "},"ç":{"ha":629,"x_min":43,"x_max":593,"o":"m 281 87 q 378 123 338 85 q 433 231 417 161 l 543 231 q 452 53 528 123 q 274 -14 376 -17 q 119 44 177 -12 q 50 202 62 100 q 51 325 43 263 l 60 399 q 165 661 83 570 q 380 747 248 751 q 537 673 481 745 q 589 481 593 601 l 478 481 q 373 645 482 641 q 180 418 214 651 q 163 221 159 273 q 281 87 170 90 m 283 -6 l 270 -43 q 319 -81 302 -52 q 335 -154 336 -110 q 283 -260 333 -221 q 143 -302 233 -299 l 146 -229 q 245 -157 236 -222 q 199 -102 252 -111 l 171 -97 l 199 -6 l 283 -6 z "},"è":{"ha":637,"x_min":44,"x_max":594,"o":"m 290 -14 q 105 75 166 -12 q 60 314 44 163 l 69 387 q 173 654 90 557 q 385 747 256 751 q 542 676 489 745 q 591 482 594 607 l 585 401 l 575 331 l 182 332 q 174 236 173 271 q 208 129 175 168 q 300 89 240 90 q 386 106 344 87 q 475 172 429 125 l 530 95 q 423 12 487 38 q 290 -14 359 -15 m 377 645 q 209 500 257 650 l 191 434 l 472 433 l 475 451 q 479 516 479 482 q 377 645 477 640 m 460 842 l 363 842 l 224 1042 l 363 1042 l 460 842 z "},"é":{"ha":637,"x_min":44,"x_max":637,"o":"m 290 -14 q 105 75 166 -12 q 60 314 44 163 l 69 387 q 173 654 90 557 q 385 747 256 751 q 542 676 489 745 q 591 482 594 607 l 585 401 l 575 331 l 182 332 q 174 236 173 271 q 208 129 175 168 q 300 89 240 90 q 386 106 344 87 q 475 172 429 125 l 530 95 q 423 12 487 38 q 290 -14 359 -15 m 377 645 q 209 500 257 650 l 191 434 l 472 433 l 475 451 q 479 516 479 482 q 377 645 477 640 m 480 1042 l 637 1042 l 429 842 l 321 842 l 480 1042 z "},"ê":{"ha":637,"x_min":44,"x_max":594,"o":"m 290 -14 q 105 75 166 -12 q 60 314 44 163 l 69 387 q 173 654 90 557 q 385 747 256 751 q 542 676 489 745 q 591 482 594 607 l 585 401 l 575 331 l 182 332 q 174 236 173 271 q 208 129 175 168 q 300 89 240 90 q 386 106 344 87 q 475 172 429 125 l 530 95 q 423 12 487 38 q 290 -14 359 -15 m 377 645 q 209 500 257 650 l 191 434 l 472 433 l 475 451 q 479 516 479 482 q 377 645 477 640 m 570 857 l 570 848 l 476 849 l 419 964 l 319 850 l 224 848 l 224 858 l 388 1042 l 455 1042 l 570 857 z "},"ë":{"ha":637,"x_min":44,"x_max":623,"o":"m 290 -14 q 105 75 166 -12 q 60 314 44 163 l 69 387 q 173 654 90 557 q 385 747 256 751 q 542 676 489 745 q 591 482 594 607 l 585 401 l 575 331 l 182 332 q 174 236 173 271 q 208 129 175 168 q 300 89 240 90 q 386 106 344 87 q 475 172 429 125 l 530 95 q 423 12 487 38 q 290 -14 359 -15 m 377 645 q 209 500 257 650 l 191 434 l 472 433 l 475 451 q 479 516 479 482 q 377 645 477 640 m 195 928 q 215 980 195 960 q 267 1002 235 1001 q 319 983 298 1003 q 339 931 340 963 q 319 880 339 900 q 267 858 298 859 q 215 877 235 857 q 195 928 195 897 m 477 927 q 498 979 478 958 q 549 1002 517 1000 q 602 982 582 1002 q 622 930 623 962 q 602 878 622 898 q 549 857 581 858 q 497 876 518 856 q 477 927 477 895 z "},"ì":{"ha":323,"x_min":25,"x_max":300,"o":"m 142 0 l 25 0 l 153 734 l 270 734 l 142 0 m 300 842 l 204 842 l 65 1041 l 204 1041 l 300 842 z "},"í":{"ha":323,"x_min":25,"x_max":477,"o":"m 142 0 l 25 0 l 153 734 l 270 734 l 142 0 m 320 1041 l 477 1041 l 269 842 l 161 842 l 320 1041 z "},"î":{"ha":323,"x_min":25,"x_max":410,"o":"m 142 0 l 25 0 l 153 734 l 270 734 l 142 0 m 410 857 l 410 847 l 317 848 l 260 963 l 159 849 l 64 848 l 64 857 l 229 1041 l 296 1041 l 410 857 z "},"ï":{"ha":323,"x_min":25,"x_max":463,"o":"m 142 0 l 25 0 l 153 734 l 270 734 l 142 0 m 35 928 q 56 980 36 959 q 108 1002 75 1000 q 160 982 139 1002 q 180 930 180 962 q 159 879 180 899 q 107 857 139 859 q 55 876 75 857 q 35 928 35 896 m 318 926 q 338 979 319 958 q 390 1001 358 1000 q 443 982 422 1002 q 463 929 463 962 q 442 877 463 897 q 390 856 422 857 q 338 875 359 855 q 318 926 317 895 z "},"ñ":{"ha":659,"x_min":16,"x_max":628,"o":"m 253 734 l 237 654 q 419 747 317 749 q 530 700 489 747 q 576 572 571 653 q 574 481 579 526 l 494 0 l 378 0 l 458 483 l 461 536 q 376 642 461 640 q 245 563 306 644 l 225 534 l 133 0 l 16 0 l 143 734 l 253 734 m 628 1021 q 585 899 621 945 q 494 854 549 853 q 454 865 471 854 q 420 889 437 876 q 387 912 404 902 q 349 921 370 922 q 283 845 304 919 l 208 850 q 252 972 215 924 q 344 1018 288 1019 q 416 983 375 1017 q 489 951 458 949 q 555 1027 534 953 l 628 1021 z "},"ò":{"ha":683,"x_min":45,"x_max":625,"o":"m 64 399 q 172 654 86 557 q 389 747 258 751 q 524 700 470 745 q 602 576 578 655 q 614 401 625 496 l 606 332 q 498 79 584 174 q 281 -14 412 -17 q 146 33 200 -12 q 68 157 92 78 q 56 332 45 237 l 64 399 m 169 282 q 197 141 167 191 q 288 88 227 91 q 418 144 367 85 q 488 322 470 203 l 498 401 l 501 450 q 472 592 503 542 q 381 645 441 642 q 248 579 301 648 q 179 386 195 509 l 171 319 l 169 282 m 466 842 l 370 842 l 231 1042 l 370 1042 l 466 842 z "},"ó":{"ha":683,"x_min":45,"x_max":643,"o":"m 64 399 q 172 654 86 557 q 389 747 258 751 q 524 700 470 745 q 602 576 578 655 q 614 401 625 496 l 606 332 q 498 79 584 174 q 281 -14 412 -17 q 146 33 200 -12 q 68 157 92 78 q 56 332 45 237 l 64 399 m 169 282 q 197 141 167 191 q 288 88 227 91 q 418 144 367 85 q 488 322 470 203 l 498 401 l 501 450 q 472 592 503 542 q 381 645 441 642 q 248 579 301 648 q 179 386 195 509 l 171 319 l 169 282 m 486 1042 l 643 1042 l 435 842 l 328 842 l 486 1042 z "},"ô":{"ha":683,"x_min":45,"x_max":625,"o":"m 64 399 q 172 654 86 557 q 389 747 258 751 q 524 700 470 745 q 602 576 578 655 q 614 401 625 496 l 606 332 q 498 79 584 174 q 281 -14 412 -17 q 146 33 200 -12 q 68 157 92 78 q 56 332 45 237 l 64 399 m 169 282 q 197 141 167 191 q 288 88 227 91 q 418 144 367 85 q 488 322 470 203 l 498 401 l 501 450 q 472 592 503 542 q 381 645 441 642 q 248 579 301 648 q 179 386 195 509 l 171 319 l 169 282 m 576 857 l 576 848 l 482 849 l 425 964 l 325 850 l 230 848 l 230 858 l 394 1042 l 461 1042 l 576 857 z "},"õ":{"ha":683,"x_min":45,"x_max":625,"o":"m 64 399 q 172 654 86 557 q 389 747 258 751 q 524 700 470 745 q 602 576 578 655 q 614 401 625 496 l 606 332 q 498 79 584 174 q 281 -14 412 -17 q 146 33 200 -12 q 68 157 92 78 q 56 332 45 237 l 64 399 m 169 282 q 197 141 167 191 q 288 88 227 91 q 418 144 367 85 q 488 322 470 203 l 498 401 l 501 450 q 472 592 503 542 q 381 645 441 642 q 248 579 301 648 q 179 386 195 509 l 171 319 l 169 282 m 623 1021 q 579 899 615 945 q 488 854 544 853 q 449 865 466 854 q 415 889 431 876 q 382 912 399 902 q 344 921 365 922 q 278 845 298 919 l 202 850 q 246 972 210 924 q 338 1018 283 1019 q 411 983 370 1017 q 484 951 452 949 q 550 1027 529 953 l 623 1021 z "},"ö":{"ha":683,"x_min":45,"x_max":629,"o":"m 64 399 q 172 654 86 557 q 389 747 258 751 q 524 700 470 745 q 602 576 578 655 q 614 401 625 496 l 606 332 q 498 79 584 174 q 281 -14 412 -17 q 146 33 200 -12 q 68 157 92 78 q 56 332 45 237 l 64 399 m 169 282 q 197 141 167 191 q 288 88 227 91 q 418 144 367 85 q 488 322 470 203 l 498 401 l 501 450 q 472 592 503 542 q 381 645 441 642 q 248 579 301 648 q 179 386 195 509 l 171 319 l 169 282 m 201 928 q 221 980 201 960 q 273 1002 241 1001 q 325 983 304 1003 q 345 931 346 963 q 325 880 345 900 q 273 858 304 859 q 221 877 241 857 q 201 928 201 897 m 484 927 q 504 979 484 958 q 555 1002 524 1000 q 608 982 588 1002 q 628 930 629 962 q 608 878 628 898 q 555 857 587 858 q 504 876 524 856 q 484 927 483 895 z "},"ù":{"ha":658,"x_min":59,"x_max":621,"o":"m 396 64 q 220 -14 325 -17 q 101 43 142 -13 q 59 198 59 98 l 62 260 l 142 734 l 258 734 l 179 258 l 176 208 q 192 126 174 159 q 248 93 211 94 q 410 190 347 88 l 503 734 l 621 734 l 494 0 l 383 0 l 396 64 m 467 842 l 371 842 l 232 1042 l 371 1042 l 467 842 z "},"ú":{"ha":658,"x_min":59,"x_max":644,"o":"m 396 64 q 220 -14 325 -17 q 101 43 142 -13 q 59 198 59 98 l 62 260 l 142 734 l 258 734 l 179 258 l 176 208 q 192 126 174 159 q 248 93 211 94 q 410 190 347 88 l 503 734 l 621 734 l 494 0 l 383 0 l 396 64 m 488 1042 l 644 1042 l 437 842 l 329 842 l 488 1042 z "},"û":{"ha":658,"x_min":59,"x_max":621,"o":"m 396 64 q 220 -14 325 -17 q 101 43 142 -13 q 59 198 59 98 l 62 260 l 142 734 l 258 734 l 179 258 l 176 208 q 192 126 174 159 q 248 93 211 94 q 410 190 347 88 l 503 734 l 621 734 l 494 0 l 383 0 l 396 64 m 577 857 l 577 848 l 484 849 l 427 964 l 326 850 l 231 848 l 231 858 l 395 1042 l 463 1042 l 577 857 z "},"ü":{"ha":658,"x_min":59,"x_max":630,"o":"m 396 64 q 220 -14 325 -17 q 101 43 142 -13 q 59 198 59 98 l 62 260 l 142 734 l 258 734 l 179 258 l 176 208 q 192 126 174 159 q 248 93 211 94 q 410 190 347 88 l 503 734 l 621 734 l 494 0 l 383 0 l 396 64 m 202 928 q 222 980 203 960 q 275 1002 242 1001 q 327 983 306 1003 q 347 931 347 963 q 326 880 347 900 q 274 858 306 859 q 222 877 242 857 q 202 928 202 897 m 485 927 q 505 979 486 958 q 557 1002 525 1000 q 610 982 589 1002 q 629 930 630 962 q 609 878 629 898 q 557 857 589 858 q 505 876 526 856 q 485 927 484 895 z "},"ý":{"ha":568,"x_min":-60,"x_max":612,"o":"m 243 201 l 466 734 l 594 734 l 214 -114 q 122 -253 176 -206 q 7 -298 69 -300 q -60 -286 -14 -298 l -48 -184 l -23 -189 q 115 -98 66 -193 l 165 14 l 82 734 l 205 734 l 243 201 m 456 1042 l 612 1042 l 405 842 l 297 842 l 456 1042 z "},"ÿ":{"ha":568,"x_min":-60,"x_max":598,"o":"m 243 201 l 466 734 l 594 734 l 214 -114 q 122 -253 176 -206 q 7 -298 69 -300 q -60 -286 -14 -298 l -48 -184 l -23 -189 q 115 -98 66 -193 l 165 14 l 82 734 l 205 734 l 243 201 m 170 928 q 191 980 171 960 q 243 1002 210 1001 q 295 983 274 1003 q 315 931 315 963 q 294 880 315 900 q 242 858 274 859 q 190 877 210 857 q 170 928 170 897 m 453 927 q 473 979 454 958 q 525 1002 493 1000 q 578 982 557 1002 q 597 930 598 962 q 577 878 597 898 q 525 857 557 858 q 473 876 494 856 q 453 927 452 895 z "},"Ā":{"ha":783,"x_min":-45,"x_max":720,"o":"m 526 258 l 203 258 l 84 0 l -45 0 l 435 987 l 539 987 l 677 0 l 557 0 l 526 258 m 254 365 l 513 365 l 461 812 l 254 365 m 705 1099 l 322 1099 l 338 1196 l 720 1196 l 705 1099 z "},"ā":{"ha":652,"x_min":37,"x_max":628,"o":"m 392 0 q 389 40 388 20 l 391 80 q 223 -14 313 -14 q 86 43 135 -14 q 42 195 37 100 q 136 377 50 309 q 363 446 222 446 l 444 446 l 456 524 q 364 645 468 645 q 275 613 311 645 q 230 531 239 582 l 114 530 q 198 686 123 623 q 376 748 274 749 q 529 687 475 747 q 572 522 582 628 l 512 160 q 507 86 506 121 l 511 12 l 510 0 l 392 0 m 248 94 q 399 180 336 94 l 430 356 l 376 357 q 254 331 307 357 q 178 261 200 306 q 163 163 156 216 q 248 94 172 94 m 613 888 l 230 888 l 245 985 l 628 985 l 613 888 z "},"Ă":{"ha":783,"x_min":-45,"x_max":726,"o":"m 526 258 l 203 258 l 84 0 l -45 0 l 435 987 l 539 987 l 677 0 l 557 0 l 526 258 m 254 365 l 513 365 l 461 812 l 254 365 m 726 1225 q 660 1090 718 1140 q 515 1043 602 1040 q 381 1094 431 1044 q 333 1225 332 1143 l 433 1225 q 515 1123 428 1126 q 591 1151 564 1122 q 627 1224 619 1180 l 726 1225 z "},"ă":{"ha":652,"x_min":37,"x_max":633,"o":"m 392 0 q 389 40 388 20 l 391 80 q 223 -14 313 -14 q 86 43 135 -14 q 42 195 37 100 q 136 377 50 309 q 363 446 222 446 l 444 446 l 456 524 q 364 645 468 645 q 275 613 311 645 q 230 531 239 582 l 114 530 q 198 686 123 623 q 376 748 274 749 q 529 687 475 747 q 572 522 582 628 l 512 160 q 507 86 506 121 l 511 12 l 510 0 l 392 0 m 248 94 q 399 180 336 94 l 430 356 l 376 357 q 254 331 307 357 q 178 261 200 306 q 163 163 156 216 q 248 94 172 94 m 633 1015 q 567 880 625 930 q 422 833 509 830 q 289 884 339 834 q 241 1015 239 933 l 340 1015 q 423 913 336 916 q 499 941 471 912 q 535 1014 527 970 l 633 1015 z "},"Ą":{"ha":783,"x_min":-45,"x_max":677,"o":"m 651 0 l 654 -2 l 618 -33 q 541 -155 545 -98 q 570 -199 537 -197 q 599 -194 585 -200 l 626 -182 l 626 -265 q 537 -294 585 -294 q 463 -260 490 -294 q 437 -170 436 -226 q 555 9 439 -66 l 526 258 l 203 258 l 84 0 l -45 0 l 435 987 l 539 987 l 677 0 l 651 0 m 254 365 l 513 365 l 461 812 l 254 365 z "},"ą":{"ha":652,"x_min":37,"x_max":582,"o":"m 482 0 l 485 -2 l 450 -33 q 372 -155 376 -98 q 401 -199 368 -197 q 430 -194 416 -200 l 457 -182 l 457 -265 q 368 -294 416 -294 q 294 -260 321 -294 q 269 -170 267 -226 q 390 12 271 -64 q 389 46 387 29 l 391 80 q 223 -14 313 -14 q 86 43 135 -14 q 42 195 37 100 q 136 377 50 309 q 363 446 222 446 l 444 446 l 456 524 q 364 645 468 645 q 275 613 311 645 q 230 531 239 582 l 114 530 q 198 686 123 623 q 376 748 274 749 q 529 687 475 747 q 572 522 582 628 l 512 160 q 507 86 506 121 l 511 12 l 510 0 l 482 0 m 248 94 q 399 180 336 94 l 430 356 l 376 357 q 254 331 307 357 q 178 261 200 306 q 163 163 156 216 q 248 94 172 94 z "},"Ć":{"ha":770,"x_min":76,"x_max":757,"o":"m 683 314 q 568 71 661 159 q 334 -14 475 -18 q 197 28 255 -12 q 109 142 140 67 q 77 308 78 216 q 82 402 76 356 l 109 576 q 243 892 141 779 q 498 1001 346 1004 q 691 912 625 999 q 751 669 757 825 l 629 670 q 618 798 631 754 q 574 868 605 842 q 491 895 544 893 q 323 818 389 898 q 232 577 256 737 l 205 401 q 198 272 195 330 q 240 138 203 183 q 340 92 277 94 q 483 138 429 88 q 564 313 537 189 l 683 314 m 592 1274 l 749 1274 l 541 1075 l 433 1075 l 592 1274 z "},"ć":{"ha":629,"x_min":43,"x_max":617,"o":"m 281 87 q 378 123 338 85 q 433 231 417 161 l 543 231 q 452 53 528 123 q 274 -14 376 -17 q 119 44 177 -12 q 50 202 62 100 q 51 325 43 263 l 60 399 q 165 661 83 570 q 380 747 248 751 q 537 673 481 745 q 589 481 593 601 l 478 481 q 373 645 482 641 q 180 418 214 651 q 163 221 159 273 q 281 87 170 90 m 460 1042 l 617 1042 l 410 842 l 302 842 l 460 1042 z "},"Ĉ":{"ha":770,"x_min":76,"x_max":757,"o":"m 683 314 q 568 71 661 159 q 334 -14 475 -18 q 197 28 255 -12 q 109 142 140 67 q 77 308 78 216 q 82 402 76 356 l 109 576 q 243 892 141 779 q 498 1001 346 1004 q 691 912 625 999 q 751 669 757 825 l 629 670 q 618 798 631 754 q 574 868 605 842 q 491 895 544 893 q 323 818 389 898 q 232 577 256 737 l 205 401 q 198 272 195 330 q 240 138 203 183 q 340 92 277 94 q 483 138 429 88 q 564 313 537 189 l 683 314 m 682 1090 l 682 1080 l 588 1082 l 531 1196 l 431 1082 l 336 1081 l 336 1090 l 500 1274 l 567 1274 l 682 1090 z "},"ĉ":{"ha":629,"x_min":43,"x_max":593,"o":"m 281 87 q 378 123 338 85 q 433 231 417 161 l 543 231 q 452 53 528 123 q 274 -14 376 -17 q 119 44 177 -12 q 50 202 62 100 q 51 325 43 263 l 60 399 q 165 661 83 570 q 380 747 248 751 q 537 673 481 745 q 589 481 593 601 l 478 481 q 373 645 482 641 q 180 418 214 651 q 163 221 159 273 q 281 87 170 90 m 550 857 l 550 848 l 456 849 l 399 964 l 299 850 l 204 848 l 204 858 l 368 1042 l 435 1042 l 550 857 z "},"Ċ":{"ha":770,"x_min":76,"x_max":757,"o":"m 683 314 q 568 71 661 159 q 334 -14 475 -18 q 197 28 255 -12 q 109 142 140 67 q 77 308 78 216 q 82 402 76 356 l 109 576 q 243 892 141 779 q 498 1001 346 1004 q 691 912 625 999 q 751 669 757 825 l 629 670 q 618 798 631 754 q 574 868 605 842 q 491 895 544 893 q 323 818 389 898 q 232 577 256 737 l 205 401 q 198 272 195 330 q 240 138 203 183 q 340 92 277 94 q 483 138 429 88 q 564 313 537 189 l 683 314 m 448 1158 q 467 1211 448 1190 q 519 1233 487 1232 q 571 1214 551 1234 q 592 1162 592 1194 q 571 1109 591 1130 q 519 1088 551 1089 q 469 1106 490 1086 q 448 1158 448 1125 z "},"ċ":{"ha":629,"x_min":43,"x_max":593,"o":"m 281 87 q 378 123 338 85 q 433 231 417 161 l 543 231 q 452 53 528 123 q 274 -14 376 -17 q 119 44 177 -12 q 50 202 62 100 q 51 325 43 263 l 60 399 q 165 661 83 570 q 380 747 248 751 q 537 673 481 745 q 589 481 593 601 l 478 481 q 373 645 482 641 q 180 418 214 651 q 163 221 159 273 q 281 87 170 90 m 316 925 q 336 978 316 957 q 388 1000 355 999 q 440 982 419 1002 q 460 929 460 962 q 440 877 460 897 q 388 855 420 857 q 337 873 358 854 q 316 925 316 892 z "},"Č":{"ha":770,"x_min":76,"x_max":757,"o":"m 683 314 q 568 71 661 159 q 334 -14 475 -18 q 197 28 255 -12 q 109 142 140 67 q 77 308 78 216 q 82 402 76 356 l 109 576 q 243 892 141 779 q 498 1001 346 1004 q 691 912 625 999 q 751 669 757 825 l 629 670 q 618 798 631 754 q 574 868 605 842 q 491 895 544 893 q 323 818 389 898 q 232 577 256 737 l 205 401 q 198 272 195 330 q 240 138 203 183 q 340 92 277 94 q 483 138 429 88 q 564 313 537 189 l 683 314 m 514 1160 l 614 1274 l 715 1276 l 715 1267 l 545 1082 l 476 1082 l 360 1266 l 360 1276 l 457 1274 l 514 1160 z "},"č":{"ha":629,"x_min":43,"x_max":593,"o":"m 281 87 q 378 123 338 85 q 433 231 417 161 l 543 231 q 452 53 528 123 q 274 -14 376 -17 q 119 44 177 -12 q 50 202 62 100 q 51 325 43 263 l 60 399 q 165 661 83 570 q 380 747 248 751 q 537 673 481 745 q 589 481 593 601 l 478 481 q 373 645 482 641 q 180 418 214 651 q 163 221 159 273 q 281 87 170 90 m 382 927 l 482 1041 l 584 1043 l 584 1034 l 413 849 l 345 849 l 229 1034 l 229 1043 l 326 1042 l 382 927 z "},"Ď":{"ha":776,"x_min":33,"x_max":736,"o":"m 33 0 l 203 987 l 425 987 q 659 871 581 983 q 713 576 736 759 l 689 418 q 546 107 659 215 q 260 0 433 -1 l 33 0 m 307 880 l 172 106 l 261 106 q 466 181 387 104 q 568 414 545 258 l 593 579 q 599 686 600 633 q 550 826 595 776 q 421 880 505 877 l 307 880 m 474 1145 l 574 1259 l 675 1261 l 675 1253 l 505 1067 l 436 1067 l 320 1252 l 320 1261 l 417 1260 l 474 1145 z "},"ď":{"ha":777,"x_min":47,"x_max":868,"o":"m 349 747 q 499 661 450 744 l 570 1042 l 687 1042 l 507 0 l 400 0 l 413 79 q 239 -14 340 -16 q 97 58 147 -12 q 47 258 47 127 q 63 418 47 318 q 111 587 79 517 q 349 747 189 751 m 164 229 q 276 92 168 94 q 350 111 315 90 q 421 182 385 132 l 485 553 q 372 642 451 638 q 178 406 211 650 q 164 229 161 286 m 741 772 l 677 822 q 745 977 729 901 l 757 1043 l 868 1043 l 861 998 q 741 772 840 857 z "},"Ē":{"ha":675,"x_min":33,"x_max":713,"o":"m 572 456 l 233 456 l 172 106 l 567 106 l 548 0 l 33 0 l 203 987 l 713 987 l 694 880 l 307 880 l 251 563 l 590 563 l 572 456 m 671 1107 l 288 1107 l 304 1204 l 686 1204 l 671 1107 z "},"ē":{"ha":637,"x_min":44,"x_max":610,"o":"m 290 -14 q 105 75 166 -12 q 60 314 44 163 l 69 387 q 173 654 90 557 q 385 747 256 751 q 542 676 489 745 q 591 482 594 607 l 585 401 l 575 331 l 182 332 q 174 236 173 271 q 208 129 175 168 q 300 89 240 90 q 386 106 344 87 q 475 172 429 125 l 530 95 q 423 12 487 38 q 290 -14 359 -15 m 377 645 q 209 500 257 650 l 191 434 l 472 433 l 475 451 q 479 516 479 482 q 377 645 477 640 m 595 888 l 212 888 l 228 985 l 610 985 l 595 888 z "},"Ĕ":{"ha":675,"x_min":33,"x_max":713,"o":"m 572 456 l 233 456 l 172 106 l 567 106 l 548 0 l 33 0 l 203 987 l 713 987 l 694 880 l 307 880 l 251 563 l 590 563 l 572 456 m 692 1233 q 626 1098 684 1148 q 481 1051 568 1048 q 348 1102 397 1053 q 299 1234 298 1152 l 399 1233 q 481 1131 394 1134 q 557 1159 530 1131 q 593 1232 585 1188 l 692 1233 z "},"ĕ":{"ha":637,"x_min":44,"x_max":616,"o":"m 290 -14 q 105 75 166 -12 q 60 314 44 163 l 69 387 q 173 654 90 557 q 385 747 256 751 q 542 676 489 745 q 591 482 594 607 l 585 401 l 575 331 l 182 332 q 174 236 173 271 q 208 129 175 168 q 300 89 240 90 q 386 106 344 87 q 475 172 429 125 l 530 95 q 423 12 487 38 q 290 -14 359 -15 m 377 645 q 209 500 257 650 l 191 434 l 472 433 l 475 451 q 479 516 479 482 q 377 645 477 640 m 616 1015 q 550 880 608 930 q 405 833 492 830 q 272 884 321 834 q 223 1015 222 933 l 323 1015 q 406 913 318 916 q 481 941 454 912 q 517 1014 509 970 l 616 1015 z "},"Ė":{"ha":675,"x_min":33,"x_max":713,"o":"m 572 456 l 233 456 l 172 106 l 567 106 l 548 0 l 33 0 l 203 987 l 713 987 l 694 880 l 307 880 l 251 563 l 590 563 l 572 456 m 412 1143 q 431 1196 412 1175 q 484 1219 451 1217 q 535 1200 515 1220 q 556 1147 556 1180 q 535 1095 555 1116 q 484 1074 515 1075 q 433 1092 454 1072 q 412 1143 412 1111 z "},"ė":{"ha":637,"x_min":44,"x_max":594,"o":"m 290 -14 q 105 75 166 -12 q 60 314 44 163 l 69 387 q 173 654 90 557 q 385 747 256 751 q 542 676 489 745 q 591 482 594 607 l 585 401 l 575 331 l 182 332 q 174 236 173 271 q 208 129 175 168 q 300 89 240 90 q 386 106 344 87 q 475 172 429 125 l 530 95 q 423 12 487 38 q 290 -14 359 -15 m 377 645 q 209 500 257 650 l 191 434 l 472 433 l 475 451 q 479 516 479 482 q 377 645 477 640 m 336 925 q 355 978 336 957 q 408 1000 375 999 q 459 982 439 1002 q 480 929 480 962 q 459 877 479 897 q 408 855 439 857 q 357 873 378 854 q 336 925 336 892 z "},"Ę":{"ha":675,"x_min":33,"x_max":713,"o":"m 572 456 l 233 456 l 172 106 l 567 106 l 548 0 l 504 0 l 507 -2 l 471 -33 q 393 -155 398 -98 q 423 -199 390 -197 q 452 -194 437 -200 l 479 -182 l 479 -265 q 390 -294 437 -294 q 316 -260 343 -294 q 290 -170 289 -226 q 395 0 293 -70 l 33 0 l 203 987 l 713 987 l 694 880 l 307 880 l 251 563 l 590 563 l 572 456 z "},"ę":{"ha":637,"x_min":45,"x_max":593,"o":"m 530 95 q 389 0 476 24 l 362 -24 q 294 -138 300 -83 q 324 -182 291 -180 q 353 -177 338 -183 l 380 -165 l 380 -248 q 291 -277 338 -277 q 217 -243 244 -277 q 191 -153 190 -209 q 260 -12 194 -75 q 98 85 152 -1 q 60 314 45 171 l 68 387 q 173 654 90 557 q 384 747 256 751 q 541 676 488 745 q 591 482 593 607 l 585 401 l 574 331 l 181 332 q 173 236 172 271 q 207 129 174 168 q 300 89 239 90 q 386 106 343 87 q 475 172 428 125 l 530 95 m 376 645 q 208 500 256 650 l 190 434 l 471 433 l 475 451 q 479 516 479 482 q 376 645 476 640 z "},"Ě":{"ha":675,"x_min":33,"x_max":713,"o":"m 572 456 l 233 456 l 172 106 l 567 106 l 548 0 l 33 0 l 203 987 l 713 987 l 694 880 l 307 880 l 251 563 l 590 563 l 572 456 m 478 1145 l 578 1259 l 680 1261 l 680 1253 l 509 1067 l 440 1067 l 324 1252 l 324 1261 l 421 1260 l 478 1145 z "},"ě":{"ha":637,"x_min":44,"x_max":604,"o":"m 290 -14 q 105 75 166 -12 q 60 314 44 163 l 69 387 q 173 654 90 557 q 385 747 256 751 q 542 676 489 745 q 591 482 594 607 l 585 401 l 575 331 l 182 332 q 174 236 173 271 q 208 129 175 168 q 300 89 240 90 q 386 106 344 87 q 475 172 429 125 l 530 95 q 423 12 487 38 q 290 -14 359 -15 m 377 645 q 209 500 257 650 l 191 434 l 472 433 l 475 451 q 479 516 479 482 q 377 645 477 640 m 402 927 l 502 1041 l 604 1043 l 604 1034 l 433 849 l 364 849 l 248 1034 l 248 1043 l 345 1042 l 402 927 z "},"Ĝ":{"ha":803,"x_min":76,"x_max":758,"o":"m 660 123 q 594 58 631 85 q 353 -14 494 -16 q 154 73 227 -12 q 77 302 81 157 q 82 401 76 351 l 113 595 q 237 895 144 791 q 495 1001 334 1004 q 690 917 623 997 q 755 697 758 837 l 634 698 q 596 845 634 798 q 489 894 559 892 q 323 827 388 899 q 234 597 259 755 l 203 391 l 199 335 l 199 288 q 358 93 210 96 q 454 109 412 92 q 537 158 496 126 l 578 386 l 403 386 l 422 492 l 717 492 l 660 123 m 673 1090 l 673 1080 l 580 1082 l 523 1196 l 422 1082 l 328 1081 l 328 1090 l 492 1274 l 559 1274 l 673 1090 z "},"ĝ":{"ha":671,"x_min":1,"x_max":635,"o":"m 349 747 q 504 651 456 745 l 528 734 l 635 734 l 509 -6 q 458 -159 498 -93 q 355 -258 418 -224 q 212 -290 292 -292 q 96 -261 154 -288 q 1 -193 37 -235 l 57 -113 q 207 -187 123 -184 q 329 -146 281 -190 q 392 -13 376 -102 l 410 73 q 240 -14 337 -16 q 97 60 146 -12 q 49 257 47 132 q 62 404 49 311 q 158 662 85 574 q 349 747 230 751 m 165 229 q 277 92 169 94 q 422 183 358 90 l 486 551 q 373 642 450 638 q 178 401 210 648 q 165 229 163 283 m 572 857 l 572 848 l 478 849 l 421 964 l 321 850 l 226 848 l 226 858 l 390 1042 l 457 1042 l 572 857 z "},"Ğ":{"ha":803,"x_min":76,"x_max":758,"o":"m 660 123 q 594 58 631 85 q 353 -14 494 -16 q 154 73 227 -12 q 77 302 81 157 q 82 401 76 351 l 113 595 q 237 895 144 791 q 495 1001 334 1004 q 690 917 623 997 q 755 697 758 837 l 634 698 q 596 845 634 798 q 489 894 559 892 q 323 827 388 899 q 234 597 259 755 l 203 391 l 199 335 l 199 288 q 358 93 210 96 q 454 109 412 92 q 537 158 496 126 l 578 386 l 403 386 l 422 492 l 717 492 l 660 123 m 720 1247 q 653 1113 711 1162 q 509 1065 595 1063 q 375 1116 425 1067 q 327 1248 326 1166 l 427 1247 q 509 1145 422 1148 q 585 1174 557 1145 q 621 1246 613 1202 l 720 1247 z "},"ğ":{"ha":671,"x_min":1,"x_max":635,"o":"m 349 747 q 504 651 456 745 l 528 734 l 635 734 l 509 -6 q 458 -159 498 -93 q 355 -258 418 -224 q 212 -290 292 -292 q 96 -261 154 -288 q 1 -193 37 -235 l 57 -113 q 207 -187 123 -184 q 329 -146 281 -190 q 392 -13 376 -102 l 410 73 q 240 -14 337 -16 q 97 60 146 -12 q 49 257 47 132 q 62 404 49 311 q 158 662 85 574 q 349 747 230 751 m 165 229 q 277 92 169 94 q 422 183 358 90 l 486 551 q 373 642 450 638 q 178 401 210 648 q 165 229 163 283 m 618 1015 q 552 880 610 930 q 407 833 494 830 q 274 884 323 834 q 225 1015 224 933 l 325 1015 q 408 913 320 916 q 484 941 456 912 q 519 1014 511 970 l 618 1015 z "},"Ġ":{"ha":803,"x_min":76,"x_max":758,"o":"m 660 123 q 594 58 631 85 q 353 -14 494 -16 q 154 73 227 -12 q 77 302 81 157 q 82 401 76 351 l 113 595 q 237 895 144 791 q 495 1001 334 1004 q 690 917 623 997 q 755 697 758 837 l 634 698 q 596 845 634 798 q 489 894 559 892 q 323 827 388 899 q 234 597 259 755 l 203 391 l 199 335 l 199 288 q 358 93 210 96 q 454 109 412 92 q 537 158 496 126 l 578 386 l 403 386 l 422 492 l 717 492 l 660 123 m 439 1158 q 459 1211 439 1190 q 511 1233 479 1232 q 563 1214 543 1234 q 584 1162 584 1194 q 563 1109 583 1130 q 511 1088 543 1089 q 460 1106 481 1086 q 439 1158 439 1125 z "},"ġ":{"ha":671,"x_min":1,"x_max":635,"o":"m 349 747 q 504 651 456 745 l 528 734 l 635 734 l 509 -6 q 458 -159 498 -93 q 355 -258 418 -224 q 212 -290 292 -292 q 96 -261 154 -288 q 1 -193 37 -235 l 57 -113 q 207 -187 123 -184 q 329 -146 281 -190 q 392 -13 376 -102 l 410 73 q 240 -14 337 -16 q 97 60 146 -12 q 49 257 47 132 q 62 404 49 311 q 158 662 85 574 q 349 747 230 751 m 165 229 q 277 92 169 94 q 422 183 358 90 l 486 551 q 373 642 450 638 q 178 401 210 648 q 165 229 163 283 m 338 925 q 357 978 338 957 q 410 1000 377 999 q 461 982 441 1002 q 482 929 482 962 q 461 877 481 897 q 410 855 441 857 q 359 873 380 854 q 338 925 338 892 z "},"Ģ":{"ha":803,"x_min":76,"x_max":758,"o":"m 660 123 q 594 58 631 85 q 353 -14 494 -16 q 154 73 227 -12 q 77 302 81 157 q 82 401 76 351 l 113 595 q 237 895 144 791 q 495 1001 334 1004 q 690 917 623 997 q 755 697 758 837 l 634 698 q 596 845 634 798 q 489 894 559 892 q 323 827 388 899 q 234 597 259 755 l 203 391 l 199 335 l 199 288 q 358 93 210 96 q 454 109 412 92 q 537 158 496 126 l 578 386 l 403 386 l 422 492 l 717 492 l 660 123 m 259 -354 l 196 -304 q 263 -149 248 -224 l 275 -83 l 387 -83 l 380 -127 q 259 -354 358 -269 z "},"ģ":{"ha":671,"x_min":1,"x_max":635,"o":"m 349 747 q 504 651 456 745 l 528 734 l 635 734 l 509 -6 q 458 -159 498 -93 q 355 -258 418 -224 q 212 -290 292 -292 q 96 -261 154 -288 q 1 -193 37 -235 l 57 -113 q 207 -187 123 -184 q 329 -146 281 -190 q 392 -13 376 -102 l 410 73 q 240 -14 337 -16 q 97 60 146 -12 q 49 257 47 132 q 62 404 49 311 q 158 662 85 574 q 349 747 230 751 m 165 229 q 277 92 169 94 q 422 183 358 90 l 486 551 q 373 642 450 638 q 178 401 210 648 q 165 229 163 283 m 460 1143 l 526 1084 q 466 940 480 1012 l 450 850 l 334 850 l 346 932 q 460 1143 364 1055 z "},"Ĥ":{"ha":842,"x_min":33,"x_max":831,"o":"m 660 0 l 538 0 l 618 456 l 233 456 l 154 0 l 33 0 l 203 987 l 325 987 l 251 563 l 636 563 l 709 987 l 831 987 l 660 0 m 696 1076 l 696 1066 l 602 1067 l 545 1182 l 445 1068 l 350 1067 l 350 1076 l 514 1260 l 581 1260 l 696 1076 z "},"ĥ":{"ha":657,"x_min":16,"x_max":582,"o":"m 241 658 q 420 747 323 749 q 531 700 490 746 q 576 572 571 654 q 574 481 579 526 l 494 0 l 378 0 l 458 483 l 461 536 q 376 642 461 640 q 245 563 306 644 l 225 534 l 133 0 l 16 0 l 197 1042 l 314 1042 l 241 658 m 582 1075 l 582 1065 l 488 1067 l 431 1181 l 331 1067 l 236 1066 l 236 1076 l 400 1259 l 467 1259 l 582 1075 z "},"Ĩ":{"ha":344,"x_min":37,"x_max":505,"o":"m 159 0 l 37 0 l 209 987 l 330 987 l 159 0 m 505 1239 q 462 1118 498 1164 q 371 1073 427 1072 q 331 1084 349 1073 q 298 1107 314 1095 q 264 1130 281 1120 q 227 1139 248 1140 q 161 1063 181 1137 l 85 1068 q 129 1190 92 1143 q 221 1236 165 1238 q 294 1201 252 1235 q 366 1169 335 1168 q 433 1246 412 1171 l 505 1239 z "},"ĩ":{"ha":323,"x_min":25,"x_max":457,"o":"m 142 0 l 25 0 l 153 734 l 270 734 l 142 0 m 457 1019 q 414 898 450 944 q 323 853 378 852 q 283 864 300 853 q 250 888 266 875 q 216 910 233 901 q 178 920 199 920 q 113 844 133 918 l 37 848 q 81 970 44 923 q 173 1017 117 1018 q 245 982 204 1015 q 318 949 287 948 q 385 1026 363 951 l 457 1019 z "},"Ī":{"ha":344,"x_min":37,"x_max":499,"o":"m 159 0 l 37 0 l 209 987 l 330 987 l 159 0 m 484 1107 l 101 1107 l 117 1204 l 499 1204 l 484 1107 z "},"ī":{"ha":323,"x_min":25,"x_max":451,"o":"m 142 0 l 25 0 l 153 734 l 270 734 l 142 0 m 436 887 l 53 887 l 68 984 l 451 984 l 436 887 z "},"Ĭ":{"ha":344,"x_min":37,"x_max":505,"o":"m 159 0 l 37 0 l 209 987 l 330 987 l 159 0 m 505 1233 q 438 1098 496 1148 q 294 1051 380 1048 q 160 1102 210 1053 q 112 1234 111 1152 l 212 1233 q 294 1131 207 1134 q 370 1159 342 1131 q 406 1232 398 1188 l 505 1233 z "},"ĭ":{"ha":323,"x_min":25,"x_max":456,"o":"m 142 0 l 25 0 l 153 734 l 270 734 l 142 0 m 456 1014 q 390 879 448 929 q 245 832 332 829 q 112 883 162 833 q 64 1015 62 932 l 163 1014 q 246 912 159 915 q 322 940 294 911 q 358 1013 350 969 l 456 1014 z "},"Į":{"ha":344,"x_min":-70,"x_max":330,"o":"m 159 0 l 37 0 l 209 987 l 330 987 l 159 0 m 148 4 l 113 -26 q 35 -149 39 -92 q 64 -193 31 -191 q 93 -188 79 -194 l 120 -176 l 120 -259 q 31 -288 79 -288 q -43 -254 -16 -288 q -68 -163 -70 -220 q 101 45 -64 -38 l 148 4 z "},"į":{"ha":315,"x_min":-84,"x_max":314,"o":"m 142 0 l 25 0 l 153 734 l 270 734 l 142 0 m 180 928 q 199 979 181 957 q 247 1002 216 1000 q 295 982 276 1003 q 313 930 314 961 q 293 879 311 900 q 245 857 275 857 q 197 876 215 855 q 180 928 178 897 m 134 -2 l 98 -33 q 20 -155 25 -98 q 50 -199 17 -197 q 79 -194 64 -200 l 106 -182 l 106 -265 q 17 -294 64 -294 q -57 -260 -30 -294 q -83 -170 -84 -226 q 87 39 -78 -44 l 134 -2 z "},"İ":{"ha":344,"x_min":37,"x_max":368,"o":"m 159 0 l 37 0 l 209 987 l 330 987 l 159 0 m 224 1143 q 243 1196 224 1175 q 296 1219 263 1217 q 348 1200 327 1220 q 368 1147 368 1180 q 348 1095 368 1116 q 296 1074 328 1075 q 245 1092 266 1072 q 224 1143 224 1111 z "},"Ĳ":{"ha":1002,"x_min":37,"x_max":1005,"o":"m 159 0 l 37 0 l 209 987 l 330 987 l 159 0 m 883 987 l 1005 987 l 886 288 q 784 63 865 144 q 585 -14 703 -18 q 413 67 471 -10 q 364 273 355 144 l 486 273 q 508 140 479 185 q 593 92 536 94 q 703 139 658 90 q 764 288 747 189 l 883 987 z "},"ĳ":{"ha":623,"x_min":25,"x_max":618,"o":"m 142 0 l 25 0 l 153 734 l 270 734 l 142 0 m 180 928 q 199 979 181 957 q 247 1002 216 1000 q 295 982 276 1003 q 313 930 314 961 q 293 879 311 900 q 245 857 275 857 q 197 876 215 855 q 180 928 178 897 m 578 734 l 439 -87 q 377 -249 425 -197 q 254 -298 330 -300 q 184 -285 224 -297 l 194 -184 q 241 -192 226 -192 q 319 -104 301 -192 l 461 734 l 578 734 m 552 1002 q 600 983 581 1003 q 617 929 618 962 q 598 879 616 900 q 549 857 581 857 q 501 877 519 855 q 485 927 484 898 q 504 978 486 956 q 552 1002 521 1000 z "},"Ĵ":{"ha":658,"x_min":11,"x_max":767,"o":"m 539 987 l 661 987 l 543 288 q 440 63 522 144 q 241 -14 359 -18 q 69 67 127 -10 q 20 273 11 144 l 142 273 q 164 140 136 185 q 250 92 192 94 q 359 139 314 90 q 420 288 404 189 l 539 987 m 767 1067 l 767 1057 l 673 1059 l 616 1173 l 516 1059 l 421 1058 l 421 1067 l 585 1251 l 652 1251 l 767 1067 z "},"ĵ":{"ha":327,"x_min":-138,"x_max":414,"o":"m 281 734 l 146 -60 q 75 -237 130 -175 q -71 -298 19 -300 q -138 -284 -101 -297 l -119 -185 q -64 -196 -85 -197 q 28 -60 8 -196 l 163 734 l 281 734 m 414 830 l 414 821 l 321 822 l 264 937 l 163 823 l 68 821 l 68 831 l 233 1015 l 300 1015 l 414 830 z "},"Ķ":{"ha":741,"x_min":33,"x_max":811,"o":"m 331 454 l 211 332 l 154 0 l 33 0 l 203 987 l 325 987 l 243 518 l 340 625 l 656 987 l 811 987 l 418 546 l 656 0 l 519 0 l 331 454 m 235 -288 l 172 -237 q 239 -83 224 -158 l 252 -16 l 363 -16 l 356 -61 q 235 -288 334 -202 z "},"ķ":{"ha":614,"x_min":16,"x_max":627,"o":"m 258 334 l 178 257 l 134 0 l 16 0 l 197 1042 l 315 1042 l 208 427 l 477 734 l 627 734 l 341 420 l 521 0 l 393 0 l 258 334 m 158 -300 l 95 -250 q 162 -96 146 -171 l 174 -29 l 286 -29 l 279 -74 q 158 -300 257 -215 z "},"Ĺ":{"ha":647,"x_min":33,"x_max":549,"o":"m 173 106 l 549 106 l 530 0 l 33 0 l 203 987 l 326 987 l 173 106 m 361 1249 l 517 1249 l 310 1049 l 202 1049 l 361 1249 z "},"ĺ":{"ha":315,"x_min":25,"x_max":522,"o":"m 142 0 l 25 0 l 206 1042 l 323 1042 l 142 0 m 365 1317 l 522 1317 l 314 1118 l 206 1118 l 365 1317 z "},"Ļ":{"ha":647,"x_min":33,"x_max":549,"o":"m 173 106 l 549 106 l 530 0 l 33 0 l 203 987 l 326 987 l 173 106 m 200 -341 l 137 -291 q 204 -136 189 -212 l 216 -70 l 328 -70 l 321 -115 q 200 -341 299 -256 z "},"ļ":{"ha":315,"x_min":-62,"x_max":323,"o":"m 142 0 l 25 0 l 206 1042 l 323 1042 l 142 0 m 1 -341 l -62 -291 q 5 -136 -11 -212 l 17 -70 l 128 -70 l 121 -115 q 1 -341 100 -256 z "},"Ľ":{"ha":647,"x_min":33,"x_max":578,"o":"m 173 106 l 549 106 l 530 0 l 33 0 l 203 987 l 326 987 l 173 106 m 451 717 l 388 767 q 455 922 439 846 l 467 988 l 578 988 l 572 943 q 451 717 550 802 z "},"ľ":{"ha":417,"x_min":25,"x_max":520,"o":"m 142 0 l 25 0 l 206 1042 l 323 1042 l 142 0 m 393 772 l 330 822 q 397 977 381 901 l 409 1043 l 520 1043 l 513 998 q 393 772 492 857 z "},"Ŀ":{"ha":647,"x_min":33,"x_max":549,"o":"m 173 106 l 549 106 l 530 0 l 33 0 l 203 987 l 326 987 l 173 106 m 358 538 q 378 591 358 570 q 430 613 397 612 q 482 594 461 614 q 503 542 503 574 q 482 490 502 510 q 430 468 462 469 q 379 486 400 467 q 358 538 358 505 z "},"ŀ":{"ha":465,"x_min":25,"x_max":435,"o":"m 142 0 l 25 0 l 206 1042 l 323 1042 l 142 0 m 291 528 q 311 581 291 559 q 363 603 330 602 q 415 584 394 604 q 435 532 435 564 q 415 479 435 500 q 363 458 395 459 q 312 476 333 456 q 291 528 291 495 z "},"Ń":{"ha":841,"x_min":33,"x_max":830,"o":"m 659 0 l 541 0 l 288 766 l 155 0 l 33 0 l 203 987 l 322 987 l 576 218 l 709 987 l 830 987 l 659 0 m 614 1252 l 770 1252 l 563 1053 l 455 1053 l 614 1252 z "},"ń":{"ha":659,"x_min":16,"x_max":648,"o":"m 253 734 l 237 654 q 419 747 317 749 q 530 700 489 747 q 576 572 571 653 q 574 481 579 526 l 494 0 l 378 0 l 458 483 l 461 536 q 376 642 461 640 q 245 563 306 644 l 225 534 l 133 0 l 16 0 l 143 734 l 253 734 m 492 1042 l 648 1042 l 441 842 l 333 842 l 492 1042 z "},"Ņ":{"ha":841,"x_min":33,"x_max":830,"o":"m 659 0 l 541 0 l 288 766 l 155 0 l 33 0 l 203 987 l 322 987 l 576 218 l 709 987 l 830 987 l 659 0 m 255 -341 l 192 -291 q 259 -136 243 -212 l 271 -70 l 382 -70 l 376 -115 q 255 -341 354 -256 z "},"ņ":{"ha":659,"x_min":16,"x_max":579,"o":"m 253 734 l 237 654 q 419 747 317 749 q 530 700 489 747 q 576 572 571 653 q 574 481 579 526 l 494 0 l 378 0 l 458 483 l 461 536 q 376 642 461 640 q 245 563 306 644 l 225 534 l 133 0 l 16 0 l 143 734 l 253 734 m 168 -341 l 104 -291 q 172 -136 156 -212 l 184 -70 l 295 -70 l 288 -115 q 168 -341 267 -256 z "},"Ň":{"ha":841,"x_min":33,"x_max":830,"o":"m 659 0 l 541 0 l 288 766 l 155 0 l 33 0 l 203 987 l 322 987 l 576 218 l 709 987 l 830 987 l 659 0 m 536 1137 l 635 1251 l 737 1253 l 737 1244 l 566 1059 l 498 1059 l 382 1244 l 382 1253 l 479 1252 l 536 1137 z "},"ň":{"ha":659,"x_min":16,"x_max":615,"o":"m 253 734 l 237 654 q 419 747 317 749 q 530 700 489 747 q 576 572 571 653 q 574 481 579 526 l 494 0 l 378 0 l 458 483 l 461 536 q 376 642 461 640 q 245 563 306 644 l 225 534 l 133 0 l 16 0 l 143 734 l 253 734 m 414 927 l 513 1041 l 615 1043 l 615 1034 l 444 849 l 376 849 l 260 1034 l 260 1043 l 357 1042 l 414 927 z "},"ŉ":{"ha":659,"x_min":16,"x_max":579,"o":"m 253 734 l 237 654 q 419 747 317 749 q 530 700 489 747 q 576 572 571 653 q 574 481 579 526 l 494 0 l 378 0 l 458 483 l 461 536 q 376 642 461 640 q 245 563 306 644 l 225 534 l 133 0 l 16 0 l 143 734 l 253 734 m 106 773 l 43 823 q 110 978 94 903 l 122 1044 l 233 1044 l 227 1000 q 106 773 205 859 z "},"Ō":{"ha":816,"x_min":78,"x_max":761,"o":"m 343 -14 q 150 75 220 -11 q 79 309 81 160 q 84 407 78 358 l 113 591 q 246 896 146 788 q 496 1001 345 1004 q 680 924 612 998 q 759 714 748 850 l 761 677 q 755 578 761 627 l 726 391 q 593 88 691 193 q 343 -14 494 -17 m 634 581 l 640 647 q 608 826 647 766 q 489 890 570 887 q 323 818 388 893 q 233 593 258 742 l 203 397 l 199 342 q 231 162 192 226 q 351 96 270 99 q 602 374 549 90 l 634 581 m 722 1100 l 338 1100 l 354 1197 l 736 1197 l 722 1100 z "},"ō":{"ha":683,"x_min":45,"x_max":625,"o":"m 64 399 q 172 654 86 557 q 389 747 258 751 q 524 700 470 745 q 602 576 578 655 q 614 401 625 496 l 606 332 q 498 79 584 174 q 281 -14 412 -17 q 146 33 200 -12 q 68 157 92 78 q 56 332 45 237 l 64 399 m 169 282 q 197 141 167 191 q 288 88 227 91 q 418 144 367 85 q 488 322 470 203 l 498 401 l 501 450 q 472 592 503 542 q 381 645 441 642 q 248 579 301 648 q 179 386 195 509 l 171 319 l 169 282 m 602 888 l 218 888 l 234 985 l 616 985 l 602 888 z "},"Ŏ":{"ha":816,"x_min":78,"x_max":761,"o":"m 343 -14 q 150 75 220 -11 q 79 309 81 160 q 84 407 78 358 l 113 591 q 246 896 146 788 q 496 1001 345 1004 q 680 924 612 998 q 759 714 748 850 l 761 677 q 755 578 761 627 l 726 391 q 593 88 691 193 q 343 -14 494 -17 m 634 581 l 640 647 q 608 826 647 766 q 489 890 570 887 q 323 818 388 893 q 233 593 258 742 l 203 397 l 199 342 q 231 162 192 226 q 351 96 270 99 q 602 374 549 90 l 634 581 m 742 1226 q 676 1092 734 1141 q 531 1044 618 1042 q 398 1095 448 1046 q 349 1227 348 1145 l 449 1226 q 532 1124 444 1127 q 608 1153 580 1124 q 644 1225 635 1181 l 742 1226 z "},"ŏ":{"ha":683,"x_min":45,"x_max":625,"o":"m 64 399 q 172 654 86 557 q 389 747 258 751 q 524 700 470 745 q 602 576 578 655 q 614 401 625 496 l 606 332 q 498 79 584 174 q 281 -14 412 -17 q 146 33 200 -12 q 68 157 92 78 q 56 332 45 237 l 64 399 m 169 282 q 197 141 167 191 q 288 88 227 91 q 418 144 367 85 q 488 322 470 203 l 498 401 l 501 450 q 472 592 503 542 q 381 645 441 642 q 248 579 301 648 q 179 386 195 509 l 171 319 l 169 282 m 622 1015 q 556 880 614 930 q 411 833 498 830 q 278 884 328 834 q 229 1015 228 933 l 329 1015 q 412 913 324 916 q 488 941 460 912 q 524 1014 515 970 l 622 1015 z "}}}
